<?xml version="1.0" standalone="no"?>
<!DOCTYPE svg PUBLIC "-//W3C//DTD SVG 1.1//EN" "http://www.w3.org/Graphics/SVG/1.1/DTD/svg11.dtd" >
<svg>
<metadata>
Created by FontForge 20090622 at Thu Jun  7 06:37:13 2018
 By deploy user
Copyright &#194;&#169; 2017 by Ericsson. All rights reserved.
</metadata>
<defs>
<font id="EricssonHilda-Regular" horiz-adv-x="560" >
  <font-face 
    font-family="Ericsson Hilda"
    font-weight="400"
    font-stretch="normal"
    units-per-em="1000"
    panose-1="0 0 5 0 0 0 0 0 0 0"
    ascent="750"
    descent="-250"
    x-height="507"
    cap-height="700"
    bbox="-651 -234 1140 919"
    underline-thickness="60"
    underline-position="-70"
    unicode-range="U+0020-U+FB02"
  />
<missing-glyph 
d="M478 760v-860h-396v860h396zM134 -50h292v760h-292v-760z" />
    <glyph glyph-name="fi" unicode="fi" horiz-adv-x="572" 
d="M106 587q0 75 38 113.5t105 38.5q39 0 65 -11v-74q-21 8 -50 8q-42 0 -60 -21.5t-18 -67.5v-66h120v-72h-120v-435h-80v435h-78v72h78v80zM506 663q0 -22 -16 -38t-39 -16t-39.5 16t-16.5 38t16.5 38t39.5 16t39 -16t16 -38zM411 0v507h80v-507h-80z" />
    <glyph glyph-name="fl" unicode="fl" horiz-adv-x="572" 
d="M106 587q0 75 38 113.5t105 38.5q39 0 65 -11v-74q-21 8 -50 8q-42 0 -60 -21.5t-18 -67.5v-66h120v-72h-120v-435h-80v435h-78v72h78v80zM411 730h80v-730h-80v730z" />
    <glyph glyph-name=".notdef" 
d="M478 760v-860h-396v860h396zM134 -50h292v760h-292v-760z" />
    <glyph glyph-name=".null" horiz-adv-x="0" 
 />
    <glyph glyph-name="nonmarkingreturn" horiz-adv-x="333" 
 />
    <glyph glyph-name="space" unicode=" " horiz-adv-x="221" 
 />
    <glyph glyph-name="exclam" unicode="!" horiz-adv-x="302" 
d="M109 193v507h83v-507h-83zM151 -8q-25 0 -41.5 16.5t-16.5 40.5t16.5 40.5t41.5 16.5q24 0 41 -16.5t17 -40.5t-17 -40.5t-41 -16.5z" />
    <glyph glyph-name="quotedbl" unicode="&#x22;" horiz-adv-x="346" 
d="M51 478v222h78v-222h-78zM217 478v222h78v-222h-78z" />
    <glyph glyph-name="numbersign" unicode="#" 
d="M545 419h-114l-40 -138h98v-62h-115l-63 -219h-66l63 219h-129l-63 -219h-66l63 219h-98v62h115l40 138h-98v61h115l63 220h66l-63 -220h129l63 220h66l-63 -220h97v-61zM325 281l40 138h-129l-40 -138h129z" />
    <glyph glyph-name="dollar" unicode="$" 
d="M510 186q0 -86 -55 -136.5t-143 -59.5v-100h-53v98q-64 3 -119 21t-85 42v81q83 -63 204 -69v264l-5 2q-46 17 -74 30.5t-57 36t-42.5 53.5t-13.5 74q0 79 54 128t138 58v81h53v-79q99 -4 156 -41v-81q-64 42 -156 47v-244l17 -6q88 -33 134.5 -75.5t46.5 -124.5z
M146 526q0 -41 26 -64.5t87 -48.5v221q-55 -7 -84 -34.5t-29 -73.5zM312 65q58 8 88 40t30 79t-27.5 73.5t-90.5 50.5v-243z" />
    <glyph glyph-name="percent" unicode="%" horiz-adv-x="834" 
d="M217 401q-66 0 -110.5 43.5t-44.5 111.5q0 69 44.5 112.5t110.5 43.5t110 -43.5t44 -112.5q0 -68 -44.5 -111.5t-109.5 -43.5zM138 1l487 700h74l-486 -700h-75zM216 459q40 0 65 28t25 69q0 42 -25 70t-65 28t-64.5 -28t-24.5 -70q0 -41 24.5 -69t64.5 -28zM618 -10
q-66 0 -110.5 43.5t-44.5 111.5q0 69 44.5 112.5t110.5 43.5t110 -43.5t44 -112.5q0 -68 -44.5 -111.5t-109.5 -43.5zM617 48q40 0 65 28t25 69q0 42 -25 70t-65 28t-64.5 -28t-24.5 -70q0 -41 24.5 -69t64.5 -28z" />
    <glyph glyph-name="ampersand" unicode="&#x26;" horiz-adv-x="652" 
d="M666 0h-105l-74 80q-90 -92 -222 -92q-103 0 -163.5 52.5t-60.5 134.5q0 72 44 119t120 86q-86 95 -86 174q0 66 50 111t136 45q82 0 131.5 -41.5t49.5 -112.5q0 -64 -42.5 -108.5t-116.5 -83.5l152 -164q27 48 46 115h84q-28 -105 -74 -175zM302 641q-46 0 -74 -24
t-28 -62q0 -33 19.5 -64t58.5 -75q61 31 94.5 62t33.5 77q0 42 -29 64t-75 22zM271 59q97 0 164 76l-181 193q-63 -33 -96 -66t-33 -83q0 -56 40 -88t106 -32z" />
    <glyph glyph-name="quotesingle" unicode="'" horiz-adv-x="181" 
d="M51 478v222h78v-222h-78z" />
    <glyph glyph-name="parenleft" unicode="(" horiz-adv-x="354" 
d="M240 -122q-75 90 -114.5 200.5t-39.5 225.5t39.5 225.5t114.5 200.5h93q-80 -91 -123.5 -201t-43.5 -225t43.5 -225t123.5 -201h-93z" />
    <glyph glyph-name="parenright" unicode=")" horiz-adv-x="354" 
d="M21 -122q80 91 123.5 201t43.5 225t-43.5 225t-123.5 201h93q75 -90 114.5 -200.5t39.5 -225.5t-39.5 -225.5t-114.5 -200.5h-93z" />
    <glyph glyph-name="asterisk" unicode="*" horiz-adv-x="426" 
d="M187 387l5 136l-114 -73l-27 46l122 63l-122 63l27 45l114 -73l-5 136h52l-5 -136l114 73l27 -45l-121 -63l121 -63l-27 -46l-114 74l5 -137h-52z" />
    <glyph glyph-name="plus" unicode="+" 
d="M484 379v-64h-170v-172h-68v172h-170v64h170v172h68v-172h170z" />
    <glyph glyph-name="comma" unicode="," horiz-adv-x="218" 
d="M25 -116l61 202h81l-66 -202h-76z" />
    <glyph glyph-name="hyphen" unicode="-" horiz-adv-x="379" 
d="M46 274v77h287v-77h-287z" />
    <glyph glyph-name="period" unicode="." horiz-adv-x="218" 
d="M109 -8q-24 0 -41 16.5t-17 40.5t17 40.5t41 16.5q25 0 41.5 -16.5t16.5 -40.5t-16.5 -40.5t-41.5 -16.5z" />
    <glyph glyph-name="slash" unicode="/" horiz-adv-x="437" 
d="M26 -92l305 842h80l-305 -842h-80z" />
    <glyph glyph-name="zero" unicode="0" 
d="M280 711q117 0 173.5 -92.5t56.5 -248.5v-40q0 -156 -56.5 -248.5t-173.5 -92.5t-173.5 92.5t-56.5 248.5v40q0 156 56.5 248.5t173.5 92.5zM130 369v-38q0 -45 4 -77l276 275q-36 107 -130 107q-150 0 -150 -267zM430 331v38q0 46 -4 78l-276 -276q36 -107 130 -107
q150 0 150 267z" />
    <glyph glyph-name="one" unicode="1" 
d="M348 67h164v-67h-420v67h176v542l-167 -51v75l212 72h35v-638z" />
    <glyph glyph-name="two" unicode="2" 
d="M143 75h353v-75h-439v39q0 71 37.5 128t123.5 126l56 45q75 60 105.5 100t30.5 85q0 51 -35.5 80.5t-105.5 29.5q-105 0 -186 -66v84q72 60 191 60q105 0 161 -52t56 -136q0 -62 -37 -114.5t-130 -127.5l-49 -40q-69 -55 -97 -89.5t-35 -76.5z" />
    <glyph glyph-name="three" unicode="3" 
d="M279 425q95 -1 157.5 -55t62.5 -151q0 -102 -67.5 -166.5t-178.5 -64.5q-115 0 -193 49v84q82 -55 192 -55q79 0 123 43.5t44 107.5q0 61 -39.5 97.5t-113.5 36.5q-47 0 -73 -13l-34 53l213 234h-296v75h390v-71z" />
    <glyph glyph-name="four" unicode="4" 
d="M431 227h104v-74h-104v-153h-80v153h-317v71l277 476h120v-473zM119 227h232v397z" />
    <glyph glyph-name="five" unicode="5" 
d="M280 431q98 0 161 -56t63 -156q0 -103 -67.5 -167t-182.5 -64q-110 0 -189 49v84q83 -55 189 -55q83 0 126.5 44t43.5 109q0 62 -39 98.5t-113 36.5q-70 0 -117 -32l-65 23l40 355h346v-75h-278l-25 -215q47 21 107 21z" />
    <glyph glyph-name="six" unicode="6" 
d="M298 454q104 0 160.5 -59.5t56.5 -164.5q0 -102 -58.5 -172t-166.5 -70q-112 0 -173 68.5t-61 182.5v30q0 68 24.5 137t64 124t79.5 97t82 73h119q-189 -139 -255 -284q55 38 128 38zM290 64q71 0 108 43.5t37 117.5q0 153 -148 153q-40 0 -80 -16.5t-67 -45.5
q-4 -23 -4 -52v-20q0 -83 39.5 -131.5t114.5 -48.5z" />
    <glyph glyph-name="seven" unicode="7" 
d="M57 700h455v-73q-100 -123 -173 -293.5t-95 -333.5h-88q15 145 89 319t172 306h-360v75z" />
    <glyph glyph-name="eight" unicode="8" 
d="M405 371q55 -24 83.5 -70.5t28.5 -105.5q0 -92 -62.5 -149.5t-174.5 -57.5t-174.5 57.5t-62.5 149.5q0 59 28.5 105.5t83.5 70.5q-87 50 -87 151q0 82 57.5 135.5t154.5 53.5t154.5 -53.5t57.5 -135.5q0 -101 -87 -151zM280 637q-61 0 -96.5 -33t-35.5 -83t35.5 -83
t96.5 -33t96.5 33t35.5 83q0 51 -35 83.5t-97 32.5zM280 62q75 0 116 37.5t41 97.5t-40.5 97.5t-116.5 37.5q-75 0 -116 -37.5t-41 -97.5t41 -97.5t116 -37.5z" />
    <glyph glyph-name="nine" unicode="9" 
d="M272 712q109 0 170.5 -69t61.5 -182v-30q0 -68 -24.5 -137t-64 -124t-79.5 -97t-82 -73h-115q186 137 252 284q-56 -38 -131 -38q-98 0 -156.5 61t-58.5 163q0 103 58.5 172.5t168.5 69.5zM269 322q94 0 151 62q4 23 4 52v20q0 83 -39.5 131.5t-114.5 48.5
q-71 0 -108 -43.5t-37 -117.5q0 -76 38 -114.5t106 -38.5z" />
    <glyph glyph-name="colon" unicode=":" horiz-adv-x="258" 
d="M129 381q-24 0 -41 16.5t-17 40.5t17 40.5t41 16.5q25 0 41.5 -16.5t16.5 -40.5t-16.5 -40.5t-41.5 -16.5zM129 -8q-24 0 -41 16.5t-17 40.5t17 40.5t41 16.5q25 0 41.5 -16.5t16.5 -40.5t-16.5 -40.5t-41.5 -16.5z" />
    <glyph glyph-name="semicolon" unicode=";" horiz-adv-x="258" 
d="M129 381q-24 0 -41 16.5t-17 40.5t17 40.5t41 16.5q25 0 41.5 -16.5t16.5 -40.5t-16.5 -40.5t-41.5 -16.5zM28 -116l61 202h81l-66 -202h-76z" />
    <glyph glyph-name="less" unicode="&#x3c;" 
d="M484 509v-71l-319 -109l319 -110v-71l-408 150v61z" />
    <glyph glyph-name="equal" unicode="=" 
d="M76 399v64h408v-64h-408zM76 231v64h408v-64h-408z" />
    <glyph glyph-name="greater" unicode="&#x3e;" 
d="M76 509l408 -150v-61l-408 -150v71l319 110l-319 109v71z" />
    <glyph glyph-name="question" unicode="?" horiz-adv-x="447" 
d="M130 193q0 57 16.5 99t60.5 86l35 34q41 39 61 69.5t20 63.5q0 45 -35 66t-92 21q-86 0 -148 -44v82q23 18 65 29.5t85 11.5q91 0 151 -39.5t60 -120.5q0 -54 -25 -93t-85 -98l-39 -40q-46 -45 -48 -127h-82zM170 -8q-24 0 -41 16.5t-17 40.5t17 40.5t41 16.5
q25 0 41.5 -16.5t16.5 -40.5t-16.5 -40.5t-41.5 -16.5z" />
    <glyph glyph-name="at" unicode="@" horiz-adv-x="967" 
d="M693 442l-46 -223q-31 -149 71 -149q55 0 91.5 57.5t36.5 155.5q0 156 -94.5 243t-254.5 87q-159 0 -268 -112.5t-109 -277.5q0 -159 99 -259t276 -100q143 0 227 57v-61q-86 -54 -226 -54q-203 0 -322 115t-119 304q0 190 125.5 318t317.5 128q188 0 300.5 -107.5
t112.5 -279.5q0 -122 -55.5 -196.5t-141.5 -74.5q-60 0 -93 26.5t-42 62.5q-54 -89 -158 -89q-71 0 -113 48t-42 132q0 102 61 183t163 81q81 0 119 -55l8 40h76zM433 76q38 0 66.5 21t47 60t29.5 79.5t19 92.5q-10 28 -37 47.5t-67 19.5q-69 0 -108.5 -61.5t-39.5 -142.5
q0 -56 25 -86t65 -30z" />
    <glyph glyph-name="A" unicode="A" horiz-adv-x="644" 
d="M541 0l-73 206h-294l-73 -206h-86l251 700h112l251 -700h-88zM202 286h238l-119 339z" />
    <glyph glyph-name="B" unicode="B" horiz-adv-x="640" 
d="M478 367q51 -22 80.5 -65.5t29.5 -102.5q0 -90 -60 -144.5t-154 -54.5h-281v700h272q90 0 146 -50.5t56 -135.5q0 -102 -89 -147zM363 620h-187v-218h187q59 0 90.5 30.5t31.5 78.5t-31.5 78.5t-90.5 30.5zM372 80q64 0 98.5 34t34.5 87t-34.5 87t-98.5 34h-196v-242h196
z" />
    <glyph glyph-name="C" unicode="C" horiz-adv-x="597" 
d="M139 328q0 -117 57.5 -188t173.5 -71q95 0 173 45v-84q-65 -41 -172 -41q-155 0 -235.5 94.5t-80.5 242.5v48q0 148 80.5 242.5t236.5 94.5q106 0 171 -41v-84q-78 45 -173 45q-116 0 -173.5 -71t-57.5 -188v-44z" />
    <glyph glyph-name="D" unicode="D" horiz-adv-x="666" 
d="M316 700q143 0 219 -91.5t76 -240.5v-36q0 -149 -76 -240.5t-219 -91.5h-223v700h223zM527 333v34q0 114 -52.5 183.5t-158.5 69.5h-140v-541h140q106 0 158.5 69.5t52.5 184.5z" />
    <glyph glyph-name="E" unicode="E" horiz-adv-x="592" 
d="M176 80h357v-80h-440v700h438v-80h-355v-217h323v-80h-323v-243z" />
    <glyph glyph-name="F" unicode="F" horiz-adv-x="567" 
d="M93 0v700h431v-80h-348v-225h316v-80h-316v-315h-83z" />
    <glyph glyph-name="G" unicode="G" horiz-adv-x="677" 
d="M352 372h254v-305q-43 -37 -106.5 -57.5t-127.5 -20.5q-154 0 -235.5 94.5t-81.5 242.5v48q0 147 84 242t240 95q63 0 115 -16.5t82 -38.5v-84q-92 59 -199 59q-115 0 -176.5 -72t-61.5 -187v-44q0 -116 59 -187.5t172 -71.5q88 0 153 38v185h-171v80z" />
    <glyph glyph-name="H" unicode="H" horiz-adv-x="678" 
d="M502 700h83v-700h-83v323h-326v-323h-83v700h83v-297h326v297z" />
    <glyph glyph-name="I" unicode="I" horiz-adv-x="377" 
d="M319 631h-89v-562h89v-69h-260v69h88v562h-88v69h260v-69z" />
    <glyph glyph-name="J" unicode="J" horiz-adv-x="448" 
d="M361 700v-502q0 -98 -50.5 -152t-153.5 -54q-79 0 -137 25v86q59 -31 136 -31q68 0 95.5 35t27.5 103v490h82z" />
    <glyph glyph-name="K" unicode="K" horiz-adv-x="623" 
d="M627 0h-112l-339 342v-342h-83v700h83v-322l318 322h109l-336 -337z" />
    <glyph glyph-name="L" unicode="L" horiz-adv-x="539" 
d="M93 0v700h83v-620h331v-80h-414z" />
    <glyph glyph-name="M" unicode="M" horiz-adv-x="811" 
d="M607 700h111v-700h-82v598l-204 -447h-56l-203 444v-595h-80v700h112l201 -447z" />
    <glyph glyph-name="N" unicode="N" horiz-adv-x="694" 
d="M521 700h80v-700h-93l-335 579v-579h-80v700h95l333 -577v577z" />
    <glyph glyph-name="O" unicode="O" horiz-adv-x="702" 
d="M351 711q143 0 219 -95t76 -248v-36q0 -153 -76 -248t-219 -95q-144 0 -220 94.5t-76 248.5v36q0 154 76 248.5t220 94.5zM563 367q0 119 -53 191.5t-159 72.5q-107 0 -159.5 -72.5t-52.5 -191.5v-34q0 -119 52.5 -191.5t159.5 -72.5q106 0 159 72.5t53 191.5v34z" />
    <glyph glyph-name="P" unicode="P" horiz-adv-x="605" 
d="M347 700q100 0 162.5 -58t62.5 -154q0 -97 -62.5 -155t-162.5 -58h-171v-275h-83v700h254zM345 355q69 0 106.5 37.5t37.5 95.5t-37.5 95t-106.5 37h-169v-265h169z" />
    <glyph glyph-name="Q" unicode="Q" horiz-adv-x="702" 
d="M646 332q0 -200 -119 -289l109 -130h-99l-78 93q-49 -17 -108 -17q-144 0 -220 94.5t-76 248.5v36q0 154 76 248.5t220 94.5q143 0 219 -95t76 -248v-36zM139 333q0 -119 52.5 -191.5t159.5 -72.5q106 0 159 72.5t53 191.5v34q0 119 -53 191.5t-159 72.5
q-107 0 -159.5 -72.5t-52.5 -191.5v-34z" />
    <glyph glyph-name="R" unicode="R" horiz-adv-x="647" 
d="M527 0l-237 290h-114v-290h-83v700h260q98 0 160 -56t62 -149q0 -83 -51 -137.5t-134 -65.5l242 -292h-105zM176 620v-250h175q68 0 104.5 35.5t36.5 89.5t-36.5 89.5t-104.5 35.5h-175z" />
    <glyph glyph-name="S" unicode="S" 
d="M273 -12q-73 0 -135.5 18.5t-96.5 44.5v85q97 -69 232 -69q78 0 119.5 32t41.5 85q0 49 -31.5 76t-103.5 52l-49 17q-49 18 -78.5 31.5t-59.5 36t-43.5 53.5t-13.5 73q0 88 68 138t169 50q115 0 182 -41v-84q-76 46 -182 46q-72 0 -113 -27.5t-41 -78.5q0 -45 33 -70
t110 -52l47 -17q44 -16 73 -30t58 -37.5t43.5 -56.5t14.5 -77q0 -96 -69 -147t-175 -51z" />
    <glyph glyph-name="T" unicode="T" horiz-adv-x="584" 
d="M333 -1h-83v621h-220v80h524v-80h-221v-621z" />
    <glyph glyph-name="U" unicode="U" horiz-adv-x="673" 
d="M337 -12q-123 0 -187 70t-64 183v459h84v-458q0 -79 41 -127t126 -48q84 0 125 48t41 127v458h84v-459q0 -113 -64 -183t-186 -70z" />
    <glyph glyph-name="V" unicode="V" horiz-adv-x="645" 
d="M541 700h86l-253 -700h-103l-253 700h88l218 -610z" />
    <glyph glyph-name="W" unicode="W" horiz-adv-x="955" 
d="M837 700h85l-177 -700h-113l-155 592l-155 -592h-113l-176 700h87l150 -622l162 622h92l162 -622z" />
    <glyph glyph-name="X" unicode="X" horiz-adv-x="643" 
d="M613 0h-96l-196 297l-196 -297h-94l236 358l-226 342h95l186 -282l185 282h96l-227 -342z" />
    <glyph glyph-name="Y" unicode="Y" horiz-adv-x="583" 
d="M570 700l-237 -386v-314h-83v314l-237 386h94l186 -304l185 304h92z" />
    <glyph glyph-name="Z" unicode="Z" horiz-adv-x="605" 
d="M48 0v76l407 544h-380v80h481v-76l-406 -544h407v-80h-509z" />
    <glyph glyph-name="bracketleft" unicode="[" horiz-adv-x="345" 
d="M96 -140v870h209v-64h-130v-742h130v-64h-209z" />
    <glyph glyph-name="backslash" unicode="\" horiz-adv-x="437" 
d="M411 -92h-80l-305 842h80z" />
    <glyph glyph-name="bracketright" unicode="]" horiz-adv-x="345" 
d="M40 -140v64h131v742h-131v64h210v-870h-210z" />
    <glyph glyph-name="asciicircum" unicode="^" 
d="M517 290h-72l-165 338l-165 -338h-72l200 410h74z" />
    <glyph glyph-name="underscore" unicode="_" horiz-adv-x="484" 
d="M-5 -158v56h494v-56h-494z" />
    <glyph glyph-name="grave" unicode="`" horiz-adv-x="280" 
d="M149 598l-98 132h91l87 -132h-80z" />
    <glyph glyph-name="a" unicode="a" horiz-adv-x="551" 
d="M396 507h73v-507h-73v55q-52 -63 -143 -63q-99 0 -154 69.5t-55 175.5v33q0 106 55 175.5t154 69.5q91 0 143 -63v55zM262 70q82 0 127 67v233q-45 67 -127 67q-68 0 -102.5 -46.5t-34.5 -122.5v-29q0 -76 34.5 -122.5t102.5 -46.5z" />
    <glyph glyph-name="b" unicode="b" horiz-adv-x="552" 
d="M299 515q99 0 154 -69.5t55 -175.5v-33q0 -106 -55 -175.5t-154 -69.5q-91 0 -144 64v-56h-73v730h80v-271q54 56 137 56zM427 239v29q0 76 -34.5 122.5t-102.5 46.5q-83 0 -128 -68v-231q45 -68 128 -68q68 0 102.5 46.5t34.5 122.5z" />
    <glyph glyph-name="c" unicode="c" horiz-adv-x="445" 
d="M276 -10q-110 0 -171 70t-61 177v33q0 107 61 177t171 70q78 0 125 -29v-79q-56 30 -122 30q-77 0 -115.5 -47t-38.5 -124v-29q0 -77 38.5 -124t115.5 -47q66 0 122 30v-79q-47 -29 -125 -29z" />
    <glyph glyph-name="d" unicode="d" horiz-adv-x="552" 
d="M390 730h80v-730h-73v56q-53 -64 -144 -64q-99 0 -154 69.5t-55 175.5v33q0 106 55 175.5t154 69.5q83 0 137 -56v271zM262 70q83 0 128 68v231q-45 68 -128 68q-68 0 -102.5 -46.5t-34.5 -122.5v-29q0 -76 34.5 -122.5t102.5 -46.5z" />
    <glyph glyph-name="e" unicode="e" horiz-adv-x="506" 
d="M463 291v-53h-340q0 -79 42.5 -124.5t128.5 -45.5q81 0 141 39v-80q-53 -37 -143 -37q-118 0 -183 67t-65 180v33q0 110 58.5 179.5t158.5 69.5q99 0 150.5 -61t51.5 -167zM259 444q-57 0 -91.5 -37t-42.5 -101h258q-3 138 -124 138z" />
    <glyph glyph-name="f" unicode="f" horiz-adv-x="329" 
d="M264 662q-42 0 -60 -21.5t-18 -67.5v-66h120v-72h-120v-435h-80v435h-78v72h78v80q0 75 38 113.5t105 38.5q39 0 65 -11v-74q-21 8 -50 8z" />
    <glyph glyph-name="g" unicode="g" horiz-adv-x="547" 
d="M394 507h75v-487q0 -93 -52 -151t-166 -58q-103 0 -161 36v80q66 -39 157 -39q74 0 108 34t34 103v33q-52 -54 -137 -54q-98 0 -153 68t-55 172v30q0 105 55 173t153 68q89 0 142 -60v52zM261 81q83 0 128 64v228q-45 64 -128 64q-67 0 -101.5 -45t-34.5 -120v-25
q0 -75 34.5 -120.5t101.5 -45.5z" />
    <glyph glyph-name="h" unicode="h" horiz-adv-x="551" 
d="M312 517q80 0 124 -45t44 -124v-348h-80v329q0 110 -102 110q-82 0 -136 -63v-376h-80v730h80v-272q61 59 150 59z" />
    <glyph glyph-name="i" unicode="i" horiz-adv-x="243" 
d="M122 609q-23 0 -39.5 16t-16.5 38t16.5 38t39.5 16t39 -16t16 -38t-16 -38t-39 -16zM82 0v507h80v-507h-80z" />
    <glyph glyph-name="j" unicode="j" horiz-adv-x="243" 
d="M122 609q-23 0 -39.5 16t-16.5 38t16.5 38t39.5 16t39 -16t16 -38t-16 -38t-39 -16zM82 507h80v-540q0 -80 -38 -119.5t-105 -39.5q-43 0 -67 11v73q21 -8 52 -8q41 0 59.5 23t18.5 71v529z" />
    <glyph glyph-name="k" unicode="k" horiz-adv-x="492" 
d="M491 0h-105l-224 255v-255h-80v730h80v-446l209 223h101l-222 -233z" />
    <glyph glyph-name="l" unicode="l" horiz-adv-x="243" 
d="M82 0v730h80v-730h-80z" />
    <glyph glyph-name="m" unicode="m" horiz-adv-x="829" 
d="M599 517q76 0 117 -44.5t41 -124.5v-348h-80v329q0 110 -91 110q-75 0 -128 -61q2 -20 2 -30v-348h-80v329q0 110 -92 110q-75 0 -126 -61v-378h-80v507h73v-55q58 65 147 65q96 0 135 -70q68 70 162 70z" />
    <glyph glyph-name="n" unicode="n" horiz-adv-x="551" 
d="M312 517q80 0 124 -45t44 -124v-348h-80v329q0 110 -102 110q-82 0 -136 -63v-376h-80v507h73v-56q62 66 157 66z" />
    <glyph glyph-name="o" unicode="o" horiz-adv-x="540" 
d="M270 -12q-107 0 -166.5 70.5t-59.5 178.5v33q0 108 59.5 178.5t166.5 70.5t167 -71t60 -178v-33q0 -107 -60 -178t-167 -71zM270 65q71 0 108.5 48.5t37.5 125.5v29q0 77 -37.5 125.5t-108.5 48.5t-108 -48.5t-37 -125.5v-29q0 -77 37 -125.5t108 -48.5z" />
    <glyph glyph-name="p" unicode="p" horiz-adv-x="552" 
d="M299 515q99 0 154 -69.5t55 -175.5v-33q0 -106 -55 -175.5t-154 -69.5q-83 0 -137 56v-228h-80v687h73v-56q53 64 144 64zM427 239v29q0 76 -34.5 122.5t-102.5 46.5q-83 0 -128 -68v-231q45 -68 128 -68q68 0 102.5 46.5t34.5 122.5z" />
    <glyph glyph-name="q" unicode="q" horiz-adv-x="552" 
d="M397 507h73v-687h-80v228q-54 -56 -137 -56q-99 0 -154 69.5t-55 175.5v33q0 106 55 175.5t154 69.5q91 0 144 -64v56zM262 70q83 0 128 68v231q-45 68 -128 68q-68 0 -102.5 -46.5t-34.5 -122.5v-29q0 -76 34.5 -122.5t102.5 -46.5z" />
    <glyph glyph-name="r" unicode="r" horiz-adv-x="338" 
d="M155 430q26 36 70 58t94 23v-82q-46 -2 -89.5 -23t-67.5 -59v-347h-80v507h73v-77z" />
    <glyph glyph-name="s" unicode="s" horiz-adv-x="431" 
d="M212 -11q-109 0 -168 46v79q78 -50 170 -50q51 0 76 20t25 53q0 30 -18.5 46t-64.5 33l-38 13q-72 26 -107 56t-35 88q0 67 49.5 105.5t129.5 38.5q84 0 133 -29v-79q-62 34 -134 34q-47 0 -73 -18t-26 -49q0 -27 19.5 -41.5t69.5 -33.5l36 -12q70 -26 104.5 -57
t34.5 -91q0 -72 -50 -112t-133 -40z" />
    <glyph glyph-name="t" unicode="t" horiz-adv-x="340" 
d="M306 435h-120v-295q0 -39 16 -54.5t51 -15.5q31 0 53 9v-73q-26 -13 -69 -13q-131 0 -131 123v319h-78v72h78v126l80 27v-153h120v-72z" />
    <glyph glyph-name="u" unicode="u" horiz-adv-x="547" 
d="M385 507h80v-507h-74v55q-61 -65 -154 -65q-79 0 -122 45t-43 124v348h80v-329q0 -56 24 -83t75 -27q37 0 73 17t61 46v376z" />
    <glyph glyph-name="v" unicode="v" horiz-adv-x="506" 
d="M397 507h86l-176 -507h-108l-176 507h86l144 -433z" />
    <glyph glyph-name="w" unicode="w" horiz-adv-x="782" 
d="M664 507h83l-131 -507h-106l-118 396l-118 -396h-107l-132 507h85l105 -426l127 426h81l127 -427z" />
    <glyph glyph-name="x" unicode="x" horiz-adv-x="521" 
d="M491 0h-94l-136 205l-137 -205h-94l177 260l-168 247h94l128 -192l127 192h94l-168 -247z" />
    <glyph glyph-name="y" unicode="y" horiz-adv-x="497" 
d="M388 507h85l-182 -509q-36 -100 -77.5 -144.5t-113.5 -44.5q-30 0 -56 8v76q18 -6 46 -6q42 0 71 25.5t49 83.5l-187 511h86l141 -396z" />
    <glyph glyph-name="z" unicode="z" horiz-adv-x="485" 
d="M49 0v70l287 365h-274v72h374v-70l-288 -365h288v-72h-387z" />
    <glyph glyph-name="braceleft" unicode="{" horiz-adv-x="382" 
d="M211 432q0 -58 -19.5 -92t-70.5 -44v-2q51 -10 70.5 -44t19.5 -92v-142q0 -58 18 -75.5t63 -17.5h50v-63h-75q-71 0 -103 32.5t-32 116.5v141q0 61 -19.5 85t-71.5 24v72q52 0 71.5 24t19.5 85v141q0 84 32 116.5t103 32.5h75v-63h-50q-45 0 -63 -17.5t-18 -75.5v-142z
" />
    <glyph glyph-name="bar" unicode="|" horiz-adv-x="355" 
d="M140 -110v900h75v-900h-75z" />
    <glyph glyph-name="braceright" unicode="}" horiz-adv-x="382" 
d="M250 440q0 -61 19.5 -85t70.5 -24v-72q-51 0 -70.5 -24t-19.5 -85v-141q0 -84 -32 -116.5t-103 -32.5h-75v63h50q45 0 63 17.5t18 75.5v142q0 58 19.5 92t70.5 44v2q-51 10 -70.5 44t-19.5 92v142q0 58 -18 75.5t-63 17.5h-50v63h75q71 0 103 -32.5t32 -116.5v-141z" />
    <glyph glyph-name="asciitilde" unicode="~" 
d="M46 267q3 63 34.5 103t91.5 40q42 0 113 -40t102 -40q62 0 69 81h58q-3 -63 -34.5 -103t-91.5 -40q-42 0 -113 40t-102 40q-62 0 -69 -81h-58z" />
    <glyph glyph-name="uni00A0" unicode="&#xa0;" horiz-adv-x="221" 
 />
    <glyph glyph-name="exclamdown" unicode="&#xa1;" horiz-adv-x="302" 
d="M151 517q25 0 41.5 -16.5t16.5 -40.5t-16.5 -40.5t-41.5 -16.5q-24 0 -41 16.5t-17 40.5t17 40.5t41 16.5zM193 316v-507h-83v507h83z" />
    <glyph glyph-name="cent" unicode="&#xa2;" 
d="M451 409q-49 27 -110 30v-371q61 3 110 30v-79q-40 -24 -110 -29v-100h-53v102q-92 12 -143 80t-51 165v33q0 97 51 165t143 80v91h53v-89q70 -5 110 -29v-79zM175 239q0 -66 28.5 -110.5t84.5 -56.5v363q-56 -12 -84.5 -56.5t-28.5 -110.5v-29z" />
    <glyph glyph-name="sterling" unicode="&#xa3;" 
d="M182 75h322v-75h-428v54q96 81 96 184q0 31 -8 61h-86v65h62q-39 92 -39 146q0 89 59.5 145t162.5 56q107 0 166 -52v-81q-73 58 -162 58q-73 0 -109 -35.5t-36 -92.5q0 -18 4.5 -38.5t9 -33t14.5 -37.5l14 -35h186v-65h-167q6 -27 6 -57q0 -100 -67 -167z" />
    <glyph glyph-name="currency" unicode="&#xa4;" 
d="M501 315q0 -78 -47 -136l68 -68l-39 -39l-68 68q-59 -46 -135 -46q-77 0 -136 46l-68 -68l-39 39l68 67q-47 62 -47 137q0 77 47 135l-68 68l39 39l68 -68q58 47 136 47q76 0 136 -47l67 68l39 -39l-67 -67q46 -60 46 -136zM280 157q64 0 109 46.5t45 111.5t-45 111
t-109 46t-109.5 -46t-45.5 -111t45.5 -111.5t109.5 -46.5z" />
    <glyph glyph-name="yen" unicode="&#xa5;" 
d="M530 700l-184 -310h135v-57h-161v-87h161v-58h-161v-188h-80v188h-160v58h160v87h-160v57h134l-184 310h88l161 -277l161 277h90z" />
    <glyph glyph-name="brokenbar" unicode="&#xa6;" horiz-adv-x="355" 
d="M140 390v400h75v-400h-75zM140 -110v400h75v-400h-75z" />
    <glyph glyph-name="section" unicode="&#xa7;" horiz-adv-x="577" 
d="M400 194q47 -36 47 -97q0 -67 -50 -105.5t-130 -38.5q-73 0 -122 29v75q54 -32 124 -32q46 0 73 18t27 50q0 27 -20 42t-70 34l-40 14q-72 26 -109 58.5t-37 94.5q0 91 84 131q-47 36 -47 97q0 67 50 105.5t130 38.5q75 0 122 -28v-76q-53 33 -124 33q-47 0 -73.5 -18.5
t-26.5 -50.5q0 -27 20 -42t70 -34l40 -14q72 -25 109 -57.5t37 -94.5q0 -92 -84 -132zM263 255l41 -15h1q1 -1 2 -1q48 5 73.5 28t25.5 55q0 31 -21.5 49.5t-70.5 35.5l-41 15h-1q-50 -4 -75.5 -27t-25.5 -55q0 -31 21.5 -49.5t70.5 -35.5z" />
    <glyph glyph-name="dieresis" unicode="&#xa8;" horiz-adv-x="399" 
d="M105 611q-22 0 -38 15t-16 37t16 37.5t38 15.5t38 -15.5t16 -37.5t-16 -37t-38 -15zM294 611q-23 0 -38.5 15t-15.5 37t15.5 37.5t38.5 15.5q22 0 37.5 -15.5t15.5 -37.5t-15.5 -37t-37.5 -15z" />
    <glyph glyph-name="copyright" unicode="&#xa9;" horiz-adv-x="834" 
d="M417 -12q-154 0 -258 104t-104 258t104 258t258 104t258 -104t104 -258t-104 -258t-258 -104zM417 33q134 0 223.5 91t89.5 226t-89.5 226t-223.5 91t-223.5 -91t-89.5 -226t89.5 -226t223.5 -91zM437 131q-101 0 -159.5 61.5t-58.5 157.5t58.5 157.5t159.5 61.5
q64 0 104 -25v-60q-45 28 -105 28q-72 0 -113.5 -45t-41.5 -117t41 -116.5t114 -44.5q64 0 105 27v-61q-43 -24 -104 -24z" />
    <glyph glyph-name="ordfeminine" unicode="&#xaa;" horiz-adv-x="398" 
d="M284 730h64v-370h-64v37q-38 -43 -101 -43q-73 0 -114 50.5t-41 128.5v24q0 78 41 128.5t114 50.5q63 0 101 -43v37zM191 421q58 0 88 46v157q-30 45 -88 45q-46 0 -69.5 -31t-23.5 -83v-19q0 -52 23.5 -83.5t69.5 -31.5z" />
    <glyph glyph-name="guillemotleft" unicode="&#xab;" horiz-adv-x="537" 
d="M215 65l-159 193v9l159 192h78l-162 -197l162 -197h-78zM403 65l-159 193v9l159 192h79l-162 -197l162 -197h-79z" />
    <glyph glyph-name="logicalnot" unicode="&#xac;" 
d="M484 379v-236h-68v172h-340v64h408z" />
    <glyph glyph-name="uni00AD" unicode="&#xad;" horiz-adv-x="379" 
d="M46 274v77h287v-77h-287z" />
    <glyph glyph-name="registered" unicode="&#xae;" horiz-adv-x="566" 
d="M283 270q-93 0 -156.5 63.5t-63.5 157.5t63.5 156.5t156.5 62.5t156.5 -62.5t63.5 -156.5t-63.5 -157.5t-156.5 -63.5zM283 304q79 0 130.5 53.5t51.5 133.5t-51.5 133t-130.5 53q-80 0 -131 -53t-51 -133t51 -133.5t131 -53.5zM198 372v244h96q35 0 57.5 -21.5
t22.5 -53.5q0 -52 -49 -69l63 -100h-45l-58 96h-48v-96h-39zM237 501h48q50 0 50 39q0 41 -50 41h-48v-80z" />
    <glyph glyph-name="macron" unicode="&#xaf;" horiz-adv-x="364" 
d="M51 624v65h262v-65h-262z" />
    <glyph glyph-name="degree" unicode="&#xb0;" horiz-adv-x="359" 
d="M179 491q-53 0 -90.5 36.5t-37.5 88.5t37.5 89t90.5 37q54 0 91 -36.5t37 -89.5t-37 -89t-91 -36zM179 540q33 0 54 21.5t21 54.5t-21 54.5t-54 21.5q-32 0 -53 -21.5t-21 -54.5t21 -54.5t53 -21.5z" />
    <glyph glyph-name="plusminus" unicode="&#xb1;" 
d="M314 379h170v-64h-170v-172h-68v172h-170v64h170v172h68v-172zM76 16v64h408v-64h-408z" />
    <glyph glyph-name="uni00B2" unicode="&#xb2;" horiz-adv-x="361" 
d="M110 443h207v-60h-279v26q0 44 22 79t76 77l34 27q46 36 63.5 56t17.5 46q0 25 -20.5 39.5t-58.5 14.5q-65 0 -117 -41v66q46 38 122 38q66 0 102 -33t36 -82q0 -39 -22.5 -70.5t-80.5 -77.5l-31 -24q-62 -50 -71 -81z" />
    <glyph glyph-name="uni00B3" unicode="&#xb3;" horiz-adv-x="361" 
d="M193 638q56 -3 91 -35.5t35 -88.5q0 -61 -43 -100t-114 -39q-73 0 -122 29v67q52 -33 121 -33q45 0 69.5 21.5t24.5 53.5q0 30 -22 48.5t-63 18.5q-28 0 -46 -8l-28 41l125 130h-174v60h251v-58z" />
    <glyph glyph-name="acute" unicode="&#xb4;" horiz-adv-x="280" 
d="M51 598l87 132h91l-98 -132h-80z" />
    <glyph glyph-name="uni00B5" unicode="&#xb5;" horiz-adv-x="561" 
d="M514 68q10 0 22 2v-71q-20 -6 -42 -6q-71 0 -87 65q-63 -68 -150 -68q-64 0 -95 37v-207h-80v687h80v-336q0 -103 97 -103q83 0 136 64v375h80v-379q0 -33 8.5 -46.5t30.5 -13.5z" />
    <glyph glyph-name="paragraph" unicode="&#xb6;" horiz-adv-x="633" 
d="M540 700v-840h-68v778h-107v-778h-67v415h-40q-100 0 -162.5 58t-62.5 155q0 96 62.5 154t162.5 58h282z" />
    <glyph glyph-name="periodcentered" unicode="&#xb7;" horiz-adv-x="218" 
d="M109 279q-24 0 -41 16.5t-17 40.5t17 40.5t41 16.5q25 0 41.5 -16.5t16.5 -40.5t-16.5 -40.5t-41.5 -16.5z" />
    <glyph glyph-name="cedilla" unicode="&#xb8;" horiz-adv-x="325" 
d="M168 -59q46 -1 76 -22.5t30 -61.5q0 -44 -31.5 -67.5t-80.5 -23.5q-70 0 -111 33l23 45q39 -27 86 -27q56 0 56 40q0 37 -63 37q-18 0 -30 -3l-24 28l46 96l51 -15z" />
    <glyph glyph-name="uni00B9" unicode="&#xb9;" horiz-adv-x="361" 
d="M231 436h102v-53h-274v53h108v292l-102 -28v60l135 44h31v-368z" />
    <glyph glyph-name="ordmasculine" unicode="&#xba;" horiz-adv-x="394" 
d="M196 351q-79 0 -123.5 51.5t-44.5 130.5v24q0 79 44.5 130.5t123.5 51.5q80 0 125 -52t45 -130v-24q0 -78 -45 -130t-125 -52zM196 417q50 0 75 32.5t25 86.5v19q0 53 -25 85.5t-75 32.5q-48 0 -73 -32.5t-25 -85.5v-19q0 -54 25 -86.5t73 -32.5z" />
    <glyph glyph-name="guillemotright" unicode="&#xbb;" horiz-adv-x="537" 
d="M56 65l162 197l-162 197h78l159 -192v-9l-159 -193h-78zM244 65l162 197l-162 197h79l159 -192v-9l-159 -193h-79z" />
    <glyph glyph-name="onequarter" unicode="&#xbc;" horiz-adv-x="907" 
d="M59 283v53h108v292l-102 -28v60l135 44h31v-368h102v-53h-274zM686 700h74l-486 -700h-75zM829 145h61v-60h-61v-85h-65v85h-196v57l164 278h97v-275zM636 145h128v217z" />
    <glyph glyph-name="onehalf" unicode="&#xbd;" horiz-adv-x="959" 
d="M59 283v53h108v292l-102 -28v60l135 44h31v-368h102v-53h-274zM686 700h74l-486 -700h-75zM708 60h207v-60h-279v26q0 44 22 79t76 77l34 27q46 36 63.5 56t17.5 46q0 25 -20.5 39.5t-58.5 14.5q-65 0 -117 -41v66q46 38 122 38q66 0 102 -33t36 -82q0 -39 -22.5 -70.5
t-80.5 -77.5l-31 -24q-62 -50 -71 -81z" />
    <glyph glyph-name="threequarters" unicode="&#xbe;" horiz-adv-x="881" 
d="M319 414q0 -61 -43 -100t-114 -39q-73 0 -122 29v67q52 -33 121 -33q45 0 69.5 21.5t24.5 53.5q0 30 -22 48.5t-63 18.5q-28 0 -46 -8l-28 41l125 130h-174v60h251v-58l-105 -107q56 -3 91 -35.5t35 -88.5zM660 700h74l-486 -700h-75zM803 145h61v-60h-61v-85h-65v85
h-196v57l164 278h97v-275zM610 145h128v217z" />
    <glyph glyph-name="questiondown" unicode="&#xbf;" horiz-adv-x="399" 
d="M277 517q24 0 41 -16.5t17 -40.5t-17 -40.5t-41 -16.5q-25 0 -41.5 16.5t-16.5 40.5t16.5 40.5t41.5 16.5zM317 316q0 -57 -16.5 -99t-60.5 -86l-35 -34q-41 -39 -61 -69.5t-20 -63.5q0 -45 35 -66t92 -21q86 0 148 44v-82q-23 -18 -65 -29.5t-85 -11.5q-91 0 -151 39.5
t-60 120.5q0 54 25 93t85 98l39 40q46 45 48 127h82z" />
    <glyph glyph-name="Agrave" unicode="&#xc0;" horiz-adv-x="644" 
d="M373 761h-80l-98 132h91zM541 0l-73 206h-294l-73 -206h-86l251 700h112l251 -700h-88zM202 286h238l-119 339z" />
    <glyph glyph-name="Aacute" unicode="&#xc1;" horiz-adv-x="644" 
d="M448 893l-98 -132h-80l87 132h91zM541 0l-73 206h-294l-73 -206h-86l251 700h112l251 -700h-88zM202 286h238l-119 339z" />
    <glyph glyph-name="Acircumflex" unicode="&#xc2;" horiz-adv-x="644" 
d="M322 850l-71 -89h-74l91 132h108l90 -132h-73zM541 0l-73 206h-294l-73 -206h-86l251 700h112l251 -700h-88zM202 286h238l-119 339z" />
    <glyph glyph-name="Atilde" unicode="&#xc3;" horiz-adv-x="644" 
d="M257 811q-26 0 -30 -53h-54q3 113 83 113q27 0 66 -24l23 -14q26 -16 41 -16q28 0 30 54h53q-3 -113 -82 -113q-28 0 -66 23l-23 14q-26 16 -41 16zM541 0l-73 206h-294l-73 -206h-86l251 700h112l251 -700h-88zM202 286h238l-119 339z" />
    <glyph glyph-name="Adieresis" unicode="&#xc4;" horiz-adv-x="644" 
d="M216 771q-22 0 -38 15t-16 37t16 37.5t38 15.5t38 -15.5t16 -37.5t-16 -37t-38 -15zM426 771q-22 0 -37.5 15t-15.5 37t15.5 37.5t37.5 15.5q23 0 38.5 -15.5t15.5 -37.5t-15.5 -37t-38.5 -15zM541 0l-73 206h-294l-73 -206h-86l251 700h112l251 -700h-88zM202 286h238
l-119 339z" />
    <glyph glyph-name="Aring" unicode="&#xc5;" horiz-adv-x="644" 
d="M541 0l-73 206h-294l-73 -206h-86l247 689q-52 34 -52 92q0 45 32.5 76.5t79.5 31.5q48 0 80 -31.5t32 -76.5q0 -61 -52 -92l247 -689h-88zM322 841q-26 0 -43 -17.5t-17 -42.5q0 -26 16.5 -43.5t43.5 -17.5t44 17.5t17 43.5q0 25 -17 42.5t-44 17.5zM202 286h238
l-119 339z" />
    <glyph glyph-name="AE" unicode="&#xc6;" horiz-adv-x="921" 
d="M505 80h357v-80h-440v206h-228l-110 -206h-94l378 700h492v-80h-355v-217h323v-80h-323v-243zM237 286h185v346z" />
    <glyph glyph-name="Ccedilla" unicode="&#xc7;" horiz-adv-x="597" 
d="M370 631q-116 0 -173.5 -71t-57.5 -188v-44q0 -117 57.5 -188t173.5 -71q95 0 173 45v-84q-65 -41 -172 -41h-8l-23 -48q46 -1 76 -22t30 -62q0 -44 -31 -67.5t-81 -23.5q-71 0 -110 33l22 45q39 -27 87 -27q56 0 56 40q0 37 -63 37q-19 0 -31 -3l-23 28l36 75
q-125 19 -189 109.5t-64 222.5v48q0 148 80.5 242.5t236.5 94.5q106 0 171 -41v-84q-78 45 -173 45z" />
    <glyph glyph-name="Egrave" unicode="&#xc8;" horiz-adv-x="592" 
d="M283 761l-98 132h91l87 -132h-80zM176 80h357v-80h-440v700h438v-80h-355v-217h323v-80h-323v-243z" />
    <glyph glyph-name="Eacute" unicode="&#xc9;" horiz-adv-x="592" 
d="M260 761l87 132h91l-98 -132h-80zM176 80h357v-80h-440v700h438v-80h-355v-217h323v-80h-323v-243z" />
    <glyph glyph-name="Ecircumflex" unicode="&#xca;" horiz-adv-x="592" 
d="M312 850l-71 -89h-74l91 132h108l90 -132h-73zM176 80h357v-80h-440v700h438v-80h-355v-217h323v-80h-323v-243z" />
    <glyph glyph-name="Edieresis" unicode="&#xcb;" horiz-adv-x="592" 
d="M206 771q-22 0 -38 15t-16 37t16 37.5t38 15.5t38 -15.5t16 -37.5t-16 -37t-38 -15zM416 771q-22 0 -37.5 15t-15.5 37t15.5 37.5t37.5 15.5q23 0 38.5 -15.5t15.5 -37.5t-15.5 -37t-38.5 -15zM176 80h357v-80h-440v700h438v-80h-355v-217h323v-80h-323v-243z" />
    <glyph glyph-name="Igrave" unicode="&#xcc;" horiz-adv-x="377" 
d="M240 761h-80l-98 132h91zM319 631h-89v-562h89v-69h-260v69h88v562h-88v69h260v-69z" />
    <glyph glyph-name="Iacute" unicode="&#xcd;" horiz-adv-x="377" 
d="M315 893l-98 -132h-80l87 132h91zM319 631h-89v-562h89v-69h-260v69h88v562h-88v69h260v-69z" />
    <glyph glyph-name="Icircumflex" unicode="&#xce;" horiz-adv-x="377" 
d="M189 850l-71 -89h-74l91 132h108l90 -132h-73zM319 700v-69h-89v-562h89v-69h-260v69h88v562h-88v69h260z" />
    <glyph glyph-name="Idieresis" unicode="&#xcf;" horiz-adv-x="377" 
d="M137 823q0 -22 -16 -37t-38 -15t-38 15t-16 37t16 37.5t38 15.5t38 -15.5t16 -37.5zM293 876q23 0 38.5 -15.5t15.5 -37.5t-15.5 -37t-38.5 -15q-22 0 -37.5 15t-15.5 37t15.5 37.5t37.5 15.5zM319 700v-69h-89v-562h89v-69h-260v69h88v562h-88v69h260z" />
    <glyph glyph-name="Eth" unicode="&#xd0;" horiz-adv-x="686" 
d="M336 700q143 0 219 -91.5t76 -240.5v-36q0 -149 -76 -240.5t-219 -91.5h-223v313h-75v74h75v313h223zM547 333v34q0 114 -52.5 183.5t-158.5 69.5h-140v-233h165v-74h-165v-234h140q106 0 158.5 69.5t52.5 184.5z" />
    <glyph glyph-name="Ntilde" unicode="&#xd1;" horiz-adv-x="694" 
d="M288 811q-26 0 -30 -53h-54q3 113 83 113q27 0 66 -24l23 -14q26 -16 41 -16q28 0 30 54h53q-3 -113 -82 -113q-28 0 -66 23l-23 14q-26 16 -41 16zM521 700h80v-700h-93l-335 579v-579h-80v700h95l333 -577v577z" />
    <glyph glyph-name="Ograve" unicode="&#xd2;" horiz-adv-x="702" 
d="M322 761l-98 132h91l87 -132h-80zM351 711q143 0 219 -95t76 -248v-36q0 -153 -76 -248t-219 -95q-144 0 -220 94.5t-76 248.5v36q0 154 76 248.5t220 94.5zM563 367q0 119 -53 191.5t-159 72.5q-107 0 -159.5 -72.5t-52.5 -191.5v-34q0 -119 52.5 -191.5t159.5 -72.5
q106 0 159 72.5t53 191.5v34z" />
    <glyph glyph-name="Oacute" unicode="&#xd3;" horiz-adv-x="702" 
d="M299 761l87 132h91l-98 -132h-80zM351 711q143 0 219 -95t76 -248v-36q0 -153 -76 -248t-219 -95q-144 0 -220 94.5t-76 248.5v36q0 154 76 248.5t220 94.5zM563 367q0 119 -53 191.5t-159 72.5q-107 0 -159.5 -72.5t-52.5 -191.5v-34q0 -119 52.5 -191.5t159.5 -72.5
q106 0 159 72.5t53 191.5v34z" />
    <glyph glyph-name="Ocircumflex" unicode="&#xd4;" horiz-adv-x="702" 
d="M351 850l-71 -89h-74l91 132h108l90 -132h-73zM351 711q143 0 219 -95t76 -248v-36q0 -153 -76 -248t-219 -95q-144 0 -220 94.5t-76 248.5v36q0 154 76 248.5t220 94.5zM563 333v34q0 119 -53 191.5t-159 72.5q-107 0 -159.5 -72.5t-52.5 -191.5v-34q0 -119 52.5 -191.5
t159.5 -72.5q106 0 159 72.5t53 191.5z" />
    <glyph glyph-name="Otilde" unicode="&#xd5;" horiz-adv-x="702" 
d="M202 758q3 113 83 113q27 0 66 -24l23 -14q26 -16 41 -16q28 0 30 54h53q-3 -113 -82 -113q-28 0 -66 23l-23 14q-26 16 -41 16q-26 0 -30 -53h-54zM351 711q143 0 219 -95t76 -248v-36q0 -153 -76 -248t-219 -95q-144 0 -220 94.5t-76 248.5v36q0 154 76 248.5t220 94.5
zM563 367q0 119 -53 191.5t-159 72.5q-107 0 -159.5 -72.5t-52.5 -191.5v-34q0 -119 52.5 -191.5t159.5 -72.5q106 0 159 72.5t53 191.5v34z" />
    <glyph glyph-name="Odieresis" unicode="&#xd6;" horiz-adv-x="702" 
d="M245 771q-22 0 -38 15t-16 37t16 37.5t38 15.5t38 -15.5t16 -37.5t-16 -37t-38 -15zM455 771q-22 0 -37.5 15t-15.5 37t15.5 37.5t37.5 15.5q23 0 38.5 -15.5t15.5 -37.5t-15.5 -37t-38.5 -15zM351 711q143 0 219 -95t76 -248v-36q0 -153 -76 -248t-219 -95
q-144 0 -220 94.5t-76 248.5v36q0 154 76 248.5t220 94.5zM563 367q0 119 -53 191.5t-159 72.5q-107 0 -159.5 -72.5t-52.5 -191.5v-34q0 -119 52.5 -191.5t159.5 -72.5q106 0 159 72.5t53 191.5v34z" />
    <glyph glyph-name="multiply" unicode="&#xd7;" 
d="M478 500l-153 -153l153 -153l-45 -45l-153 153l-153 -153l-45 45l153 153l-153 153l45 45l153 -153l153 153z" />
    <glyph glyph-name="Oslash" unicode="&#xd8;" horiz-adv-x="702" 
d="M574 612q72 -92 72 -244v-36q0 -153 -76 -248t-219 -95q-104 0 -176 53l-41 -59l-53 38l47 67q-73 91 -73 244v36q0 154 76 248.5t220 94.5q107 0 176 -54l41 59l52 -38zM139 333q0 -105 40 -172l301 429q-52 41 -129 41q-107 0 -159.5 -72.5t-52.5 -191.5v-34zM563 333
v34q0 105 -40 172l-300 -429q50 -41 128 -41q106 0 159 72.5t53 191.5z" />
    <glyph glyph-name="Ugrave" unicode="&#xd9;" horiz-adv-x="673" 
d="M308 761l-98 132h91l87 -132h-80zM337 -12q-123 0 -187 70t-64 183v459h84v-458q0 -79 41 -127t126 -48q84 0 125 48t41 127v458h84v-459q0 -113 -64 -183t-186 -70z" />
    <glyph glyph-name="Uacute" unicode="&#xda;" horiz-adv-x="673" 
d="M285 761l87 132h91l-98 -132h-80zM337 -12q-123 0 -187 70t-64 183v459h84v-458q0 -79 41 -127t126 -48q84 0 125 48t41 127v458h84v-459q0 -113 -64 -183t-186 -70z" />
    <glyph glyph-name="Ucircumflex" unicode="&#xdb;" horiz-adv-x="673" 
d="M337 850l-71 -89h-74l91 132h108l90 -132h-73zM503 700h84v-459q0 -113 -64 -183t-186 -70q-123 0 -187 70t-64 183v459h84v-458q0 -79 41 -127t126 -48q84 0 125 48t41 127v458z" />
    <glyph glyph-name="Udieresis" unicode="&#xdc;" horiz-adv-x="673" 
d="M231 771q-22 0 -38 15t-16 37t16 37.5t38 15.5t38 -15.5t16 -37.5t-16 -37t-38 -15zM441 771q-22 0 -37.5 15t-15.5 37t15.5 37.5t37.5 15.5q23 0 38.5 -15.5t15.5 -37.5t-15.5 -37t-38.5 -15zM337 -12q-123 0 -187 70t-64 183v459h84v-458q0 -79 41 -127t126 -48
q84 0 125 48t41 127v458h84v-459q0 -113 -64 -183t-186 -70z" />
    <glyph glyph-name="Yacute" unicode="&#xdd;" horiz-adv-x="583" 
d="M417 893l-98 -132h-80l87 132h91zM570 700l-237 -386v-314h-83v314l-237 386h94l186 -304l185 304h92z" />
    <glyph glyph-name="Thorn" unicode="&#xde;" horiz-adv-x="605" 
d="M347 571q100 0 162.5 -58t62.5 -154t-62.5 -154t-162.5 -58h-171v-147h-83v700h83v-129h171zM345 227q69 0 106.5 37t37.5 95t-37.5 95t-106.5 37h-169v-264h169z" />
    <glyph glyph-name="germandbls" unicode="&#xdf;" horiz-adv-x="572" 
d="M371 -9q-80 0 -128 34v78q57 -38 126 -38q45 0 69.5 20.5t24.5 55.5q0 30 -16.5 50t-54.5 43l-31 20q-38 23 -54.5 35.5t-31 35t-14.5 50.5q0 32 19.5 61t43 48t43 47.5t19.5 59.5q0 33 -28 54.5t-75 21.5q-56 0 -88.5 -36.5t-32.5 -100.5v-530h-80v539q0 94 57.5 147.5
t147.5 53.5q87 0 134 -43t47 -100q0 -41 -19.5 -74.5t-42.5 -52t-42.5 -40.5t-19.5 -42t15.5 -35.5t55.5 -39.5l29 -18q99 -61 99 -147q0 -75 -48.5 -116t-123.5 -41z" />
    <glyph glyph-name="agrave" unicode="&#xe0;" horiz-adv-x="551" 
d="M329 598h-80l-98 132h91zM396 507h73v-507h-73v55q-52 -63 -143 -63q-99 0 -154 69.5t-55 175.5v33q0 106 55 175.5t154 69.5q91 0 143 -63v55zM262 70q82 0 127 67v233q-45 67 -127 67q-68 0 -102.5 -46.5t-34.5 -122.5v-29q0 -76 34.5 -122.5t102.5 -46.5z" />
    <glyph glyph-name="aacute" unicode="&#xe1;" horiz-adv-x="551" 
d="M404 730l-98 -132h-80l87 132h91zM396 507h73v-507h-73v55q-52 -63 -143 -63q-99 0 -154 69.5t-55 175.5v33q0 106 55 175.5t154 69.5q91 0 143 -63v55zM262 70q82 0 127 67v233q-45 67 -127 67q-68 0 -102.5 -46.5t-34.5 -122.5v-29q0 -76 34.5 -122.5t102.5 -46.5z" />
    <glyph glyph-name="acircumflex" unicode="&#xe2;" horiz-adv-x="551" 
d="M278 687l-71 -89h-74l91 132h108l90 -132h-73zM396 507h73v-507h-73v55q-52 -63 -143 -63q-99 0 -154 69.5t-55 175.5v33q0 106 55 175.5t154 69.5q91 0 143 -63v55zM262 70q82 0 127 67v233q-45 67 -127 67q-68 0 -102.5 -46.5t-34.5 -122.5v-29q0 -76 34.5 -122.5
t102.5 -46.5z" />
    <glyph glyph-name="atilde" unicode="&#xe3;" horiz-adv-x="551" 
d="M213 648q-26 0 -30 -53h-54q3 113 83 113q27 0 66 -24l23 -14q26 -16 41 -16q28 0 30 54h53q-3 -113 -82 -113q-28 0 -66 23l-23 14q-26 16 -41 16zM396 507h73v-507h-73v55q-52 -63 -143 -63q-99 0 -154 69.5t-55 175.5v33q0 106 55 175.5t154 69.5q91 0 143 -63v55z
M262 70q82 0 127 67v233q-45 67 -127 67q-68 0 -102.5 -46.5t-34.5 -122.5v-29q0 -76 34.5 -122.5t102.5 -46.5z" />
    <glyph glyph-name="adieresis" unicode="&#xe4;" horiz-adv-x="551" 
d="M183 611q-22 0 -38 15t-16 37t16 37.5t38 15.5t38 -15.5t16 -37.5t-16 -37t-38 -15zM372 611q-23 0 -38.5 15t-15.5 37t15.5 37.5t38.5 15.5q22 0 37.5 -15.5t15.5 -37.5t-15.5 -37t-37.5 -15zM396 507h73v-507h-73v55q-52 -63 -143 -63q-99 0 -154 69.5t-55 175.5v33
q0 106 55 175.5t154 69.5q91 0 143 -63v55zM262 70q82 0 127 67v233q-45 67 -127 67q-68 0 -102.5 -46.5t-34.5 -122.5v-29q0 -76 34.5 -122.5t102.5 -46.5z" />
    <glyph glyph-name="aring" unicode="&#xe5;" horiz-adv-x="551" 
d="M278 578q-45 0 -75.5 30.5t-30.5 72.5t30.5 72.5t75.5 30.5t75.5 -30.5t30.5 -72.5t-30.5 -72.5t-75.5 -30.5zM278 737q-24 0 -40 -16t-16 -40t16 -40t40 -16t40 16t16 40t-16 40t-40 16zM396 507h73v-507h-73v55q-52 -63 -143 -63q-99 0 -154 69.5t-55 175.5v33
q0 106 55 175.5t154 69.5q91 0 143 -63v55zM262 70q82 0 127 67v233q-45 67 -127 67q-68 0 -102.5 -46.5t-34.5 -122.5v-29q0 -76 34.5 -122.5t102.5 -46.5z" />
    <glyph glyph-name="ae" unicode="&#xe6;" horiz-adv-x="792" 
d="M749 291v-53h-330q0 -79 41.5 -124.5t124.5 -45.5q79 0 137 39v-80q-51 -37 -140 -37q-120 0 -187 76q-73 -75 -183 -75q-75 0 -120.5 38.5t-45.5 104.5q0 91 78.5 131t215.5 45v29q0 55 -27 78t-82 23q-88 0 -154 -53v84q63 47 161 47q114 0 158 -70q57 71 156 71
q96 0 146.5 -61.5t50.5 -166.5zM421 306h249q-3 138 -120 138q-56 0 -88.5 -36.5t-40.5 -101.5zM222 67q84 0 137 61q-19 47 -19 109v3q-101 -5 -157 -27.5t-56 -72.5q0 -36 25.5 -54.5t69.5 -18.5z" />
    <glyph glyph-name="ccedilla" unicode="&#xe7;" horiz-adv-x="445" 
d="M279 439q-77 0 -115.5 -47t-38.5 -124v-29q0 -77 38.5 -124t115.5 -47q66 0 122 30v-79q-47 -29 -125 -29h-1l-23 -49q46 -1 76 -22.5t30 -61.5q0 -44 -31.5 -67.5t-80.5 -23.5q-70 0 -111 33l23 45q39 -27 86 -27q56 0 56 40q0 37 -63 37q-18 0 -30 -3l-24 28l37 77
q-84 17 -130 83t-46 158v33q0 107 61 177t171 70q78 0 125 -29v-79q-56 30 -122 30z" />
    <glyph glyph-name="egrave" unicode="&#xe8;" horiz-adv-x="506" 
d="M317 598h-80l-98 132h91zM463 291v-53h-340q0 -79 42.5 -124.5t128.5 -45.5q81 0 141 39v-80q-53 -37 -143 -37q-118 0 -183 67t-65 180v33q0 110 58.5 179.5t158.5 69.5q99 0 150.5 -61t51.5 -167zM259 444q-57 0 -91.5 -37t-42.5 -101h258q-3 138 -124 138z" />
    <glyph glyph-name="eacute" unicode="&#xe9;" horiz-adv-x="506" 
d="M392 730l-98 -132h-80l87 132h91zM463 291v-53h-340q0 -79 42.5 -124.5t128.5 -45.5q81 0 141 39v-80q-53 -37 -143 -37q-118 0 -183 67t-65 180v33q0 110 58.5 179.5t158.5 69.5q99 0 150.5 -61t51.5 -167zM259 444q-57 0 -91.5 -37t-42.5 -101h258q-3 138 -124 138z
" />
    <glyph glyph-name="ecircumflex" unicode="&#xea;" horiz-adv-x="506" 
d="M266 687l-71 -89h-74l91 132h108l90 -132h-73zM463 291v-53h-340q0 -79 42.5 -124.5t128.5 -45.5q81 0 141 39v-80q-53 -37 -143 -37q-118 0 -183 67t-65 180v33q0 110 58.5 179.5t158.5 69.5q99 0 150.5 -61t51.5 -167zM259 444q-57 0 -91.5 -37t-42.5 -101h258
q-3 138 -124 138z" />
    <glyph glyph-name="edieresis" unicode="&#xeb;" horiz-adv-x="506" 
d="M171 611q-22 0 -38 15t-16 37t16 37.5t38 15.5t38 -15.5t16 -37.5t-16 -37t-38 -15zM360 611q-23 0 -38.5 15t-15.5 37t15.5 37.5t38.5 15.5q22 0 37.5 -15.5t15.5 -37.5t-15.5 -37t-37.5 -15zM463 291v-53h-340q0 -79 42.5 -124.5t128.5 -45.5q81 0 141 39v-80
q-53 -37 -143 -37q-118 0 -183 67t-65 180v33q0 110 58.5 179.5t158.5 69.5q99 0 150.5 -61t51.5 -167zM259 444q-57 0 -91.5 -37t-42.5 -101h258q-3 138 -124 138z" />
    <glyph glyph-name="igrave" unicode="&#xec;" horiz-adv-x="243" 
d="M93 598l-98 132h91l87 -132h-80zM82 0v507h80v-507h-80z" />
    <glyph glyph-name="iacute" unicode="&#xed;" horiz-adv-x="243" 
d="M70 598l87 132h91l-98 -132h-80zM82 0v507h80v-507h-80z" />
    <glyph glyph-name="icircumflex" unicode="&#xee;" horiz-adv-x="243" 
d="M176 730l90 -132h-73l-71 89l-71 -89h-74l91 132h108zM82 0v507h80v-507h-80z" />
    <glyph glyph-name="idieresis" unicode="&#xef;" horiz-adv-x="243" 
d="M27 611q-22 0 -38 15t-16 37t16 37.5t38 15.5t38 -15.5t16 -37.5t-16 -37t-38 -15zM216 611q-23 0 -38.5 15t-15.5 37t15.5 37.5t38.5 15.5q22 0 37.5 -15.5t15.5 -37.5t-15.5 -37t-37.5 -15zM82 0v507h80v-507h-80z" />
    <glyph glyph-name="eth" unicode="&#xf0;" horiz-adv-x="530" 
d="M383 614q104 -143 104 -347v-32q0 -114 -59.5 -180t-161.5 -66q-103 0 -162.5 66t-59.5 179v31q0 103 59.5 165.5t156.5 62.5q70 0 120 -36q-26 71 -71 130l-128 -48l-17 53l107 40q-49 52 -112 98h110q45 -36 77 -70l94 35l19 -52zM406 237v24q0 54 -7 97
q-45 59 -133 59q-67 0 -104 -41t-37 -115v-24q0 -82 36.5 -126.5t103.5 -44.5t104 44.5t37 126.5z" />
    <glyph glyph-name="ntilde" unicode="&#xf1;" horiz-adv-x="551" 
d="M214 648q-26 0 -30 -53h-54q3 113 83 113q27 0 66 -24l23 -14q26 -16 41 -16q28 0 30 54h53q-3 -113 -82 -113q-28 0 -66 23l-23 14q-26 16 -41 16zM312 517q80 0 124 -45t44 -124v-348h-80v329q0 110 -102 110q-82 0 -136 -63v-376h-80v507h73v-56q62 66 157 66z" />
    <glyph glyph-name="ograve" unicode="&#xf2;" horiz-adv-x="540" 
d="M241 598l-98 132h91l87 -132h-80zM270 -12q-107 0 -166.5 70.5t-59.5 178.5v33q0 108 59.5 178.5t166.5 70.5t167 -71t60 -178v-33q0 -107 -60 -178t-167 -71zM270 65q71 0 108.5 48.5t37.5 125.5v29q0 77 -37.5 125.5t-108.5 48.5t-108 -48.5t-37 -125.5v-29
q0 -77 37 -125.5t108 -48.5z" />
    <glyph glyph-name="oacute" unicode="&#xf3;" horiz-adv-x="540" 
d="M218 598l87 132h91l-98 -132h-80zM270 -12q-107 0 -166.5 70.5t-59.5 178.5v33q0 108 59.5 178.5t166.5 70.5t167 -71t60 -178v-33q0 -107 -60 -178t-167 -71zM270 65q71 0 108.5 48.5t37.5 125.5v29q0 77 -37.5 125.5t-108.5 48.5t-108 -48.5t-37 -125.5v-29
q0 -77 37 -125.5t108 -48.5z" />
    <glyph glyph-name="ocircumflex" unicode="&#xf4;" horiz-adv-x="540" 
d="M270 687l-71 -89h-74l91 132h108l90 -132h-73zM270 519q107 0 167 -71t60 -178v-33q0 -107 -60 -178t-167 -71t-166.5 70.5t-59.5 178.5v33q0 108 59.5 178.5t166.5 70.5zM416 239v29q0 77 -37.5 125.5t-108.5 48.5t-108 -48.5t-37 -125.5v-29q0 -77 37 -125.5t108 -48.5
t108.5 48.5t37.5 125.5z" />
    <glyph glyph-name="otilde" unicode="&#xf5;" horiz-adv-x="540" 
d="M121 595q3 113 83 113q27 0 66 -24l23 -14q26 -16 41 -16q28 0 30 54h53q-3 -113 -82 -113q-28 0 -66 23l-23 14q-26 16 -41 16q-26 0 -30 -53h-54zM270 -12q-107 0 -166.5 70.5t-59.5 178.5v33q0 108 59.5 178.5t166.5 70.5t167 -71t60 -178v-33q0 -107 -60 -178
t-167 -71zM270 65q71 0 108.5 48.5t37.5 125.5v29q0 77 -37.5 125.5t-108.5 48.5t-108 -48.5t-37 -125.5v-29q0 -77 37 -125.5t108 -48.5z" />
    <glyph glyph-name="odieresis" unicode="&#xf6;" horiz-adv-x="540" 
d="M175 611q-22 0 -38 15t-16 37t16 37.5t38 15.5t38 -15.5t16 -37.5t-16 -37t-38 -15zM364 611q-23 0 -38.5 15t-15.5 37t15.5 37.5t38.5 15.5q22 0 37.5 -15.5t15.5 -37.5t-15.5 -37t-37.5 -15zM270 -12q-107 0 -166.5 70.5t-59.5 178.5v33q0 108 59.5 178.5t166.5 70.5
t167 -71t60 -178v-33q0 -107 -60 -178t-167 -71zM270 65q71 0 108.5 48.5t37.5 125.5v29q0 77 -37.5 125.5t-108.5 48.5t-108 -48.5t-37 -125.5v-29q0 -77 37 -125.5t108 -48.5z" />
    <glyph glyph-name="divide" unicode="&#xf7;" 
d="M280 462q-23 0 -39.5 16t-16.5 38t16.5 38t39.5 16t39 -16t16 -38t-16 -38t-39 -16zM76 315v64h408v-64h-408zM280 124q-23 0 -39.5 16t-16.5 38t16.5 38t39.5 16t39 -16t16 -38t-16 -38t-39 -16z" />
    <glyph glyph-name="oslash" unicode="&#xf8;" horiz-adv-x="540" 
d="M440 444q57 -68 57 -174v-33q0 -107 -60 -178t-167 -71q-74 0 -126 35l-29 -40l-48 33l33 47q-56 68 -56 174v33q0 108 59.5 178.5t166.5 70.5q72 0 126 -35l28 40l49 -33zM125 239q0 -63 24 -106l202 287q-35 22 -81 22q-71 0 -108 -48.5t-37 -125.5v-29zM416 239v29
q0 64 -25 107l-202 -287q32 -23 81 -23q71 0 108.5 48.5t37.5 125.5z" />
    <glyph glyph-name="ugrave" unicode="&#xf9;" horiz-adv-x="547" 
d="M322 598h-80l-98 132h91zM385 507h80v-507h-74v55q-61 -65 -154 -65q-79 0 -122 45t-43 124v348h80v-329q0 -56 24 -83t75 -27q37 0 73 17t61 46v376z" />
    <glyph glyph-name="uacute" unicode="&#xfa;" horiz-adv-x="547" 
d="M397 730l-98 -132h-80l87 132h91zM385 507h80v-507h-74v55q-61 -65 -154 -65q-79 0 -122 45t-43 124v348h80v-329q0 -56 24 -83t75 -27q37 0 73 17t61 46v376z" />
    <glyph glyph-name="ucircumflex" unicode="&#xfb;" horiz-adv-x="547" 
d="M271 687l-71 -89h-74l91 132h108l90 -132h-73zM385 507h80v-507h-74v55q-61 -65 -154 -65q-79 0 -122 45t-43 124v348h80v-329q0 -56 24 -83t75 -27q37 0 73 17t61 46v376z" />
    <glyph glyph-name="udieresis" unicode="&#xfc;" horiz-adv-x="547" 
d="M176 611q-22 0 -38 15t-16 37t16 37.5t38 15.5t38 -15.5t16 -37.5t-16 -37t-38 -15zM365 611q-23 0 -38.5 15t-15.5 37t15.5 37.5t38.5 15.5q22 0 37.5 -15.5t15.5 -37.5t-15.5 -37t-37.5 -15zM385 507h80v-507h-74v55q-61 -65 -154 -65q-79 0 -122 45t-43 124v348h80
v-329q0 -56 24 -83t75 -27q37 0 73 17t61 46v376z" />
    <glyph glyph-name="yacute" unicode="&#xfd;" horiz-adv-x="497" 
d="M374 730l-98 -132h-80l87 132h91zM388 507h85l-182 -509q-36 -100 -77.5 -144.5t-113.5 -44.5q-30 0 -56 8v76q18 -6 46 -6q42 0 71 25.5t49 83.5l-187 511h86l141 -396z" />
    <glyph glyph-name="thorn" unicode="&#xfe;" horiz-adv-x="552" 
d="M299 515q99 0 154 -69.5t55 -175.5v-33q0 -106 -55 -175.5t-154 -69.5q-83 0 -137 56v-228h-80v910h80v-271q54 56 137 56zM427 239v29q0 76 -34.5 122.5t-102.5 46.5q-83 0 -128 -68v-231q45 -68 128 -68q68 0 102.5 46.5t34.5 122.5z" />
    <glyph glyph-name="ydieresis" unicode="&#xff;" horiz-adv-x="497" 
d="M153 611q-22 0 -38 15t-16 37t16 37.5t38 15.5t38 -15.5t16 -37.5t-16 -37t-38 -15zM342 611q-23 0 -38.5 15t-15.5 37t15.5 37.5t38.5 15.5q22 0 37.5 -15.5t15.5 -37.5t-15.5 -37t-37.5 -15zM388 507h85l-182 -509q-36 -100 -77.5 -144.5t-113.5 -44.5q-30 0 -56 8v76
q18 -6 46 -6q42 0 71 25.5t49 83.5l-187 511h86l141 -396z" />
    <glyph glyph-name="Amacron" unicode="&#x100;" horiz-adv-x="644" 
d="M453 852v-65h-262v65h262zM541 0l-73 206h-294l-73 -206h-86l251 700h112l251 -700h-88zM202 286h238l-119 339z" />
    <glyph glyph-name="amacron" unicode="&#x101;" horiz-adv-x="551" 
d="M409 689v-65h-262v65h262zM396 507h73v-507h-73v55q-52 -63 -143 -63q-99 0 -154 69.5t-55 175.5v33q0 106 55 175.5t154 69.5q91 0 143 -63v55zM262 70q82 0 127 67v233q-45 67 -127 67q-68 0 -102.5 -46.5t-34.5 -122.5v-29q0 -76 34.5 -122.5t102.5 -46.5z" />
    <glyph glyph-name="Abreve" unicode="&#x102;" horiz-adv-x="644" 
d="M322 762q-64 0 -99.5 34.5t-39.5 88.5h61q3 -26 22.5 -44.5t55.5 -18.5q35 0 54.5 18.5t22.5 44.5h61q-4 -54 -39 -88.5t-99 -34.5zM541 0l-73 206h-294l-73 -206h-86l251 700h112l251 -700h-88zM202 286h238l-119 339z" />
    <glyph glyph-name="abreve" unicode="&#x103;" horiz-adv-x="551" 
d="M278 599q-64 0 -99.5 34.5t-39.5 88.5h61q3 -26 22.5 -44.5t55.5 -18.5q35 0 54.5 18.5t22.5 44.5h61q-4 -54 -39 -88.5t-99 -34.5zM396 507h73v-507h-73v55q-52 -63 -143 -63q-99 0 -154 69.5t-55 175.5v33q0 106 55 175.5t154 69.5q91 0 143 -63v55zM262 70
q82 0 127 67v233q-45 67 -127 67q-68 0 -102.5 -46.5t-34.5 -122.5v-29q0 -76 34.5 -122.5t102.5 -46.5z" />
    <glyph glyph-name="Aogonek" unicode="&#x104;" horiz-adv-x="644" 
d="M551 -96q0 -40 47 -40q19 0 31 4v-59q-15 -7 -45 -7q-45 0 -73 24t-28 65q0 61 60 109h-2l-73 206h-294l-73 -206h-86l251 700h112l251 -700q-78 -43 -78 -96zM202 286h238l-119 339z" />
    <glyph glyph-name="aogonek" unicode="&#x105;" horiz-adv-x="551" 
d="M469 0q-78 -43 -78 -96q0 -40 47 -40q19 0 31 4v-59q-15 -7 -45 -7q-45 0 -73 24t-28 65q0 68 73 119v45q-52 -63 -143 -63q-99 0 -154 69.5t-55 175.5v33q0 106 55 175.5t154 69.5q91 0 143 -63v55h73v-507zM262 70q82 0 127 67v233q-45 67 -127 67q-68 0 -102.5 -46.5
t-34.5 -122.5v-29q0 -76 34.5 -122.5t102.5 -46.5z" />
    <glyph glyph-name="Cacute" unicode="&#x106;" horiz-adv-x="597" 
d="M318 761l87 132h91l-98 -132h-80zM139 328q0 -117 57.5 -188t173.5 -71q95 0 173 45v-84q-65 -41 -172 -41q-155 0 -235.5 94.5t-80.5 242.5v48q0 148 80.5 242.5t236.5 94.5q106 0 171 -41v-84q-78 45 -173 45q-116 0 -173.5 -71t-57.5 -188v-44z" />
    <glyph glyph-name="cacute" unicode="&#x107;" horiz-adv-x="445" 
d="M218 598l87 132h91l-98 -132h-80zM276 -10q-110 0 -171 70t-61 177v33q0 107 61 177t171 70q78 0 125 -29v-79q-56 30 -122 30q-77 0 -115.5 -47t-38.5 -124v-29q0 -77 38.5 -124t115.5 -47q66 0 122 30v-79q-47 -29 -125 -29z" />
    <glyph glyph-name="Cdotaccent" unicode="&#x10a;" horiz-adv-x="597" 
d="M370 772q-23 0 -39.5 16t-16.5 38t16.5 38t39.5 16t39 -16t16 -38t-16 -38t-39 -16zM139 328q0 -117 57.5 -188t173.5 -71q95 0 173 45v-84q-65 -41 -172 -41q-155 0 -235.5 94.5t-80.5 242.5v48q0 148 80.5 242.5t236.5 94.5q106 0 171 -41v-84q-78 45 -173 45
q-116 0 -173.5 -71t-57.5 -188v-44z" />
    <glyph glyph-name="cdotaccent" unicode="&#x10b;" horiz-adv-x="445" 
d="M270 609q-23 0 -39.5 16t-16.5 38t16.5 38t39.5 16t39 -16t16 -38t-16 -38t-39 -16zM276 -10q-110 0 -171 70t-61 177v33q0 107 61 177t171 70q78 0 125 -29v-79q-56 30 -122 30q-77 0 -115.5 -47t-38.5 -124v-29q0 -77 38.5 -124t115.5 -47q66 0 122 30v-79
q-47 -29 -125 -29z" />
    <glyph glyph-name="Ccaron" unicode="&#x10c;" horiz-adv-x="597" 
d="M318 761l-91 132h74l71 -89l71 89h73l-90 -132h-108zM370 631q-116 0 -173.5 -71t-57.5 -188v-44q0 -117 57.5 -188t173.5 -71q95 0 173 45v-84q-65 -41 -172 -41q-155 0 -235.5 94.5t-80.5 242.5v48q0 148 80.5 242.5t236.5 94.5q106 0 171 -41v-84q-78 45 -173 45z" />
    <glyph glyph-name="ccaron" unicode="&#x10d;" horiz-adv-x="445" 
d="M218 598l-91 132h74l71 -89l71 89h73l-90 -132h-108zM44 270q0 107 61 177t171 70q78 0 125 -29v-79q-56 30 -122 30q-77 0 -115.5 -47t-38.5 -124v-29q0 -77 38.5 -124t115.5 -47q66 0 122 30v-79q-47 -29 -125 -29q-110 0 -171 70t-61 177v33z" />
    <glyph glyph-name="Dcaron" unicode="&#x10e;" horiz-adv-x="666" 
d="M271 761l-91 132h74l71 -89l71 89h73l-90 -132h-108zM316 700q143 0 219 -91.5t76 -240.5v-36q0 -149 -76 -240.5t-219 -91.5h-223v700h223zM527 333v34q0 114 -52.5 183.5t-158.5 69.5h-140v-541h140q106 0 158.5 69.5t52.5 184.5z" />
    <glyph glyph-name="dcaron" unicode="&#x10f;" horiz-adv-x="623" 
d="M390 459v271h80v-730h-73v56q-53 -64 -144 -64q-99 0 -154 69.5t-55 175.5v33q0 106 55 175.5t154 69.5q83 0 137 -56zM568 730h79l-55 -176h-69zM262 70q83 0 128 68v231q-45 68 -128 68q-68 0 -102.5 -46.5t-34.5 -122.5v-29q0 -76 34.5 -122.5t102.5 -46.5z" />
    <glyph glyph-name="Dcroat" unicode="&#x110;" horiz-adv-x="686" 
d="M336 700q143 0 219 -91.5t76 -240.5v-36q0 -149 -76 -240.5t-219 -91.5h-223v313h-75v74h75v313h223zM547 333v34q0 114 -52.5 183.5t-158.5 69.5h-140v-233h165v-74h-165v-234h140q106 0 158.5 69.5t52.5 184.5z" />
    <glyph glyph-name="dcroat" unicode="&#x111;" horiz-adv-x="552" 
d="M532 643v-62h-62v-581h-73v56q-53 -64 -144 -64q-99 0 -154 69.5t-55 175.5v33q0 106 55 175.5t154 69.5q83 0 137 -56v122h-126v62h126v87h80v-87h62zM262 70q83 0 128 68v231q-45 68 -128 68q-68 0 -102.5 -46.5t-34.5 -122.5v-29q0 -76 34.5 -122.5t102.5 -46.5z" />
    <glyph glyph-name="Emacron" unicode="&#x112;" horiz-adv-x="592" 
d="M181 787v65h262v-65h-262zM176 80h357v-80h-440v700h438v-80h-355v-217h323v-80h-323v-243z" />
    <glyph glyph-name="emacron" unicode="&#x113;" horiz-adv-x="506" 
d="M397 689v-65h-262v65h262zM463 291v-53h-340q0 -79 42.5 -124.5t128.5 -45.5q81 0 141 39v-80q-53 -37 -143 -37q-118 0 -183 67t-65 180v33q0 110 58.5 179.5t158.5 69.5q99 0 150.5 -61t51.5 -167zM259 444q-57 0 -91.5 -37t-42.5 -101h258q-3 138 -124 138z" />
    <glyph glyph-name="Edotaccent" unicode="&#x116;" horiz-adv-x="592" 
d="M312 772q-23 0 -39.5 16t-16.5 38t16.5 38t39.5 16t39 -16t16 -38t-16 -38t-39 -16zM176 80h357v-80h-440v700h438v-80h-355v-217h323v-80h-323v-243z" />
    <glyph glyph-name="edotaccent" unicode="&#x117;" horiz-adv-x="506" 
d="M266 609q-23 0 -39.5 16t-16.5 38t16.5 38t39.5 16t39 -16t16 -38t-16 -38t-39 -16zM463 291v-53h-340q0 -79 42.5 -124.5t128.5 -45.5q81 0 141 39v-80q-53 -37 -143 -37q-118 0 -183 67t-65 180v33q0 110 58.5 179.5t158.5 69.5q99 0 150.5 -61t51.5 -167zM259 444
q-57 0 -91.5 -37t-42.5 -101h258q-3 138 -124 138z" />
    <glyph glyph-name="Eogonek" unicode="&#x118;" horiz-adv-x="592" 
d="M533 0q-78 -43 -78 -96q0 -40 47 -40q19 0 31 4v-59q-14 -7 -45 -7q-45 0 -73 24t-28 65q0 61 60 109h-354v700h438v-80h-355v-217h323v-80h-323v-243h357v-80z" />
    <glyph glyph-name="eogonek" unicode="&#x119;" horiz-adv-x="506" 
d="M463 291v-53h-340q0 -79 42.5 -124.5t128.5 -45.5q81 0 141 39v-80q-78 -55 -78 -119q0 -22 13 -33t34 -11q19 0 31 4v-59q-15 -7 -45 -7q-46 0 -74 24.5t-28 67.5q0 50 40 98q-24 -2 -36 -2q-118 0 -183 67t-65 180v33q0 110 58.5 179.5t158.5 69.5q99 0 150.5 -61
t51.5 -167zM259 444q-57 0 -91.5 -37t-42.5 -101h258q-3 138 -124 138z" />
    <glyph glyph-name="Ecaron" unicode="&#x11a;" horiz-adv-x="592" 
d="M260 761l-91 132h74l71 -89l71 89h73l-90 -132h-108zM176 80h357v-80h-440v700h438v-80h-355v-217h323v-80h-323v-243z" />
    <glyph glyph-name="ecaron" unicode="&#x11b;" horiz-adv-x="506" 
d="M214 598l-91 132h74l71 -89l71 89h73l-90 -132h-108zM463 291v-53h-340q0 -79 42.5 -124.5t128.5 -45.5q81 0 141 39v-80q-53 -37 -143 -37q-118 0 -183 67t-65 180v33q0 110 58.5 179.5t158.5 69.5q99 0 150.5 -61t51.5 -167zM259 444q-57 0 -91.5 -37t-42.5 -101h258
q-3 138 -124 138z" />
    <glyph glyph-name="Gbreve" unicode="&#x11e;" horiz-adv-x="677" 
d="M373 762q-64 0 -99.5 34.5t-39.5 88.5h61q3 -26 22.5 -44.5t55.5 -18.5q35 0 54.5 18.5t22.5 44.5h61q-4 -54 -39 -88.5t-99 -34.5zM352 372h254v-305q-43 -37 -106.5 -57.5t-127.5 -20.5q-154 0 -235.5 94.5t-81.5 242.5v48q0 147 84 242t240 95q63 0 115 -16.5
t82 -38.5v-84q-92 59 -199 59q-115 0 -176.5 -72t-61.5 -187v-44q0 -116 59 -187.5t172 -71.5q88 0 153 38v185h-171v80z" />
    <glyph glyph-name="gbreve" unicode="&#x11f;" horiz-adv-x="547" 
d="M273 599q-64 0 -99.5 34.5t-39.5 88.5h61q3 -26 22.5 -44.5t55.5 -18.5q35 0 54.5 18.5t22.5 44.5h61q-4 -54 -39 -88.5t-99 -34.5zM394 507h75v-487q0 -93 -52 -151t-166 -58q-103 0 -161 36v80q66 -39 157 -39q74 0 108 34t34 103v33q-52 -54 -137 -54q-98 0 -153 68
t-55 172v30q0 105 55 173t153 68q89 0 142 -60v52zM261 81q83 0 128 64v228q-45 64 -128 64q-67 0 -101.5 -45t-34.5 -120v-25q0 -75 34.5 -120.5t101.5 -45.5z" />
    <glyph glyph-name="Gdotaccent" unicode="&#x120;" horiz-adv-x="677" 
d="M373 772q-23 0 -39.5 16t-16.5 38t16.5 38t39.5 16t39 -16t16 -38t-16 -38t-39 -16zM352 372h254v-305q-43 -37 -106.5 -57.5t-127.5 -20.5q-154 0 -235.5 94.5t-81.5 242.5v48q0 147 84 242t240 95q63 0 115 -16.5t82 -38.5v-84q-92 59 -199 59q-115 0 -176.5 -72
t-61.5 -187v-44q0 -116 59 -187.5t172 -71.5q88 0 153 38v185h-171v80z" />
    <glyph glyph-name="gdotaccent" unicode="&#x121;" horiz-adv-x="547" 
d="M273 609q-23 0 -39.5 16t-16.5 38t16.5 38t39.5 16t39 -16t16 -38t-16 -38t-39 -16zM394 507h75v-487q0 -93 -52 -151t-166 -58q-103 0 -161 36v80q66 -39 157 -39q74 0 108 34t34 103v33q-52 -54 -137 -54q-98 0 -153 68t-55 172v30q0 105 55 173t153 68q89 0 142 -60
v52zM261 81q83 0 128 64v228q-45 64 -128 64q-67 0 -101.5 -45t-34.5 -120v-25q0 -75 34.5 -120.5t101.5 -45.5z" />
    <glyph glyph-name="Gcommaaccent" unicode="&#x122;" horiz-adv-x="677" 
d="M352 372h254v-305q-43 -37 -106.5 -57.5t-127.5 -20.5q-154 0 -235.5 94.5t-81.5 242.5v48q0 147 84 242t240 95q63 0 115 -16.5t82 -38.5v-84q-92 59 -199 59q-115 0 -176.5 -72t-61.5 -187v-44q0 -116 59 -187.5t172 -71.5q88 0 153 38v185h-171v80zM272 -213l53 145
h83l-56 -145h-80z" />
    <glyph glyph-name="gcommaaccent" unicode="&#x123;" horiz-adv-x="547" 
d="M370 743l-52 -145h-84l57 145h79zM394 507h75v-487q0 -93 -52 -151t-166 -58q-103 0 -161 36v80q66 -39 157 -39q74 0 108 34t34 103v33q-52 -54 -137 -54q-98 0 -153 68t-55 172v30q0 105 55 173t153 68q89 0 142 -60v52zM261 81q83 0 128 64v228q-45 64 -128 64
q-67 0 -101.5 -45t-34.5 -120v-25q0 -75 34.5 -120.5t101.5 -45.5z" />
    <glyph glyph-name="Hbar" unicode="&#x126;" horiz-adv-x="678" 
d="M639 595v-68h-54v-527h-83v323h-326v-323h-83v527h-54v68h54v105h83v-105h326v105h83v-105h54zM502 403v124h-326v-124h326z" />
    <glyph glyph-name="hbar" unicode="&#x127;" horiz-adv-x="551" 
d="M312 517q80 0 124 -45t44 -124v-348h-80v329q0 110 -102 110q-82 0 -136 -63v-376h-80v581h-64v62h64v87h80v-87h124v-62h-124v-123q61 59 150 59z" />
    <glyph glyph-name="Imacron" unicode="&#x12a;" horiz-adv-x="377" 
d="M58 852h262v-65h-262v65zM319 700v-69h-89v-562h89v-69h-260v69h88v562h-88v69h260z" />
    <glyph glyph-name="imacron" unicode="&#x12b;" horiz-adv-x="243" 
d="M-9 624v65h262v-65h-262zM82 0v507h80v-507h-80z" />
    <glyph glyph-name="Iogonek" unicode="&#x12e;" horiz-adv-x="377" 
d="M319 631h-89v-562h89v-69h-67q-78 -43 -78 -96q0 -40 47 -40q19 0 31 4v-59q-15 -7 -45 -7q-45 0 -73 24t-28 65q0 61 60 109h-107v69h88v562h-88v69h260v-69z" />
    <glyph glyph-name="iogonek" unicode="&#x12f;" horiz-adv-x="243" 
d="M122 609q-23 0 -39 15.5t-16 38.5t16 38.5t39 15.5t39 -16t16 -38t-16 -38t-39 -16zM82 5v502h80v-507q-79 -42 -79 -96q0 -40 48 -40q19 0 31 4v-59q-15 -7 -46 -7q-44 0 -72.5 24t-28.5 65q0 64 67 114z" />
    <glyph glyph-name="Idotaccent" unicode="&#x130;" horiz-adv-x="377" 
d="M189 772q-23 0 -39.5 16t-16.5 38t16.5 38t39.5 16t39 -16t16 -38t-16 -38t-39 -16zM319 631h-89v-562h89v-69h-260v69h88v562h-88v69h260v-69z" />
    <glyph glyph-name="dotlessi" unicode="&#x131;" horiz-adv-x="243" 
d="M82 0v507h80v-507h-80z" />
    <glyph glyph-name="Kcommaaccent" unicode="&#x136;" horiz-adv-x="623" 
d="M267 363l360 -363h-112l-339 342v-342h-83v700h83v-322l318 322h109zM220 -213l53 145h83l-56 -145h-80z" />
    <glyph glyph-name="kcommaaccent" unicode="&#x137;" horiz-adv-x="492" 
d="M250 274l241 -274h-105l-224 255v-255h-80v730h80v-446l209 223h101zM157 -213l53 145h83l-56 -145h-80z" />
    <glyph glyph-name="Lacute" unicode="&#x139;" horiz-adv-x="539" 
d="M94 761l87 132h91l-98 -132h-80zM93 0v700h83v-620h331v-80h-414z" />
    <glyph glyph-name="lacute" unicode="&#x13a;" horiz-adv-x="243" 
d="M75 781l87 132h91l-98 -132h-80zM82 0v730h80v-730h-80z" />
    <glyph glyph-name="Lcommaaccent" unicode="&#x13b;" horiz-adv-x="539" 
d="M93 0v700h83v-620h331v-80h-414zM192 -213l53 145h83l-56 -145h-80z" />
    <glyph glyph-name="lcommaaccent" unicode="&#x13c;" horiz-adv-x="243" 
d="M82 0v730h80v-730h-80zM30 -213l53 145h83l-56 -145h-80z" />
    <glyph glyph-name="Lcaron" unicode="&#x13d;" horiz-adv-x="539" 
d="M93 0v700h83v-620h331v-80h-414zM238 524l45 176h79l-55 -176h-69z" />
    <glyph glyph-name="lcaron" unicode="&#x13e;" horiz-adv-x="308" 
d="M82 0v730h80v-730h-80zM208 554l45 176h79l-55 -176h-69z" />
    <glyph glyph-name="Ldot" unicode="&#x13f;" horiz-adv-x="539" 
d="M93 0v700h83v-620h331v-80h-414zM325 313q-24 0 -41 16.5t-17 40.5t17 40.5t41 16.5q25 0 41.5 -16.5t16.5 -40.5t-16.5 -40.5t-41.5 -16.5z" />
    <glyph glyph-name="ldot" unicode="&#x140;" horiz-adv-x="388" 
d="M82 0v730h80v-730h-80zM315 302q-24 0 -41 16.5t-17 40.5t17 40.5t41 16.5q25 0 41.5 -16.5t16.5 -40.5t-16.5 -40.5t-41.5 -16.5z" />
    <glyph glyph-name="Lslash" unicode="&#x141;" horiz-adv-x="539" 
d="M176 80h331v-80h-414v256l-74 -38v81l74 38v363h83v-319l145 75v-81l-145 -75v-220z" />
    <glyph glyph-name="lslash" unicode="&#x142;" horiz-adv-x="296" 
d="M266 504v-79l-78 -46v-379h-80v333l-78 -46v79l78 46v318h80v-272z" />
    <glyph glyph-name="Nacute" unicode="&#x143;" horiz-adv-x="694" 
d="M479 893l-98 -132h-80l87 132h91zM521 700h80v-700h-93l-335 579v-579h-80v700h95l333 -577v577z" />
    <glyph glyph-name="nacute" unicode="&#x144;" horiz-adv-x="551" 
d="M405 730l-98 -132h-80l87 132h91zM312 517q80 0 124 -45t44 -124v-348h-80v329q0 110 -102 110q-82 0 -136 -63v-376h-80v507h73v-56q62 66 157 66z" />
    <glyph glyph-name="Ncommaaccent" unicode="&#x145;" horiz-adv-x="694" 
d="M521 700h80v-700h-93l-335 579v-579h-80v700h95l333 -577v577zM255 -213l53 145h83l-56 -145h-80z" />
    <glyph glyph-name="ncommaaccent" unicode="&#x146;" horiz-adv-x="551" 
d="M312 517q80 0 124 -45t44 -124v-348h-80v329q0 110 -102 110q-82 0 -136 -63v-376h-80v507h73v-56q62 66 157 66zM187 -213l53 145h83l-56 -145h-80z" />
    <glyph glyph-name="Ncaron" unicode="&#x147;" horiz-adv-x="694" 
d="M301 761l-91 132h74l71 -89l71 89h73l-90 -132h-108zM521 700h80v-700h-93l-335 579v-579h-80v700h95l333 -577v577z" />
    <glyph glyph-name="ncaron" unicode="&#x148;" horiz-adv-x="551" 
d="M227 598l-91 132h74l71 -89l71 89h73l-90 -132h-108zM312 517q80 0 124 -45t44 -124v-348h-80v329q0 110 -102 110q-82 0 -136 -63v-376h-80v507h73v-56q62 66 157 66z" />
    <glyph glyph-name="Eng" unicode="&#x14a;" horiz-adv-x="694" 
d="M458 -192q-43 0 -67 11v73q21 -8 52 -8q42 0 60 23t18 71v22l-348 579v-579h-80v700h95l333 -557v557h80v-733q0 -80 -37.5 -119.5t-105.5 -39.5z" />
    <glyph glyph-name="eng" unicode="&#x14b;" horiz-adv-x="551" 
d="M312 517q80 0 124 -45t44 -124v-381q0 -80 -38 -119.5t-106 -39.5q-42 0 -67 11v73q22 -8 53 -8q41 0 59.5 23t18.5 71v351q0 110 -102 110q-82 0 -136 -63v-376h-80v507h73v-56q62 66 157 66z" />
    <glyph glyph-name="Omacron" unicode="&#x14c;" horiz-adv-x="702" 
d="M220 787v65h262v-65h-262zM351 711q143 0 219 -95t76 -248v-36q0 -153 -76 -248t-219 -95q-144 0 -220 94.5t-76 248.5v36q0 154 76 248.5t220 94.5zM563 367q0 119 -53 191.5t-159 72.5q-107 0 -159.5 -72.5t-52.5 -191.5v-34q0 -119 52.5 -191.5t159.5 -72.5
q106 0 159 72.5t53 191.5v34z" />
    <glyph glyph-name="omacron" unicode="&#x14d;" horiz-adv-x="540" 
d="M139 624v65h262v-65h-262zM270 -12q-107 0 -166.5 70.5t-59.5 178.5v33q0 108 59.5 178.5t166.5 70.5t167 -71t60 -178v-33q0 -107 -60 -178t-167 -71zM270 65q71 0 108.5 48.5t37.5 125.5v29q0 77 -37.5 125.5t-108.5 48.5t-108 -48.5t-37 -125.5v-29q0 -77 37 -125.5
t108 -48.5z" />
    <glyph glyph-name="Ohungarumlaut" unicode="&#x150;" horiz-adv-x="702" 
d="M240 761l87 132h82l-97 -132h-72zM378 761l86 132h83l-98 -132h-71zM351 711q143 0 219 -95t76 -248v-36q0 -153 -76 -248t-219 -95q-144 0 -220 94.5t-76 248.5v36q0 154 76 248.5t220 94.5zM563 367q0 119 -53 191.5t-159 72.5q-107 0 -159.5 -72.5t-52.5 -191.5v-34
q0 -119 52.5 -191.5t159.5 -72.5q106 0 159 72.5t53 191.5v34z" />
    <glyph glyph-name="ohungarumlaut" unicode="&#x151;" horiz-adv-x="540" 
d="M159 598l87 132h82l-97 -132h-72zM297 598l86 132h83l-98 -132h-71zM270 -12q-107 0 -166.5 70.5t-59.5 178.5v33q0 108 59.5 178.5t166.5 70.5t167 -71t60 -178v-33q0 -107 -60 -178t-167 -71zM270 65q71 0 108.5 48.5t37.5 125.5v29q0 77 -37.5 125.5t-108.5 48.5
t-108 -48.5t-37 -125.5v-29q0 -77 37 -125.5t108 -48.5z" />
    <glyph glyph-name="OE" unicode="&#x152;" horiz-adv-x="1026" 
d="M610 80h358v-80h-441v44q-72 -55 -176 -55q-144 0 -220 94.5t-76 248.5v36q0 154 76 248.5t220 94.5q104 0 176 -55v44h439v-80h-356v-217h323v-80h-323v-243zM351 69q114 0 176 68v426q-62 68 -176 68q-107 0 -159.5 -72.5t-52.5 -191.5v-34q0 -119 52.5 -191.5
t159.5 -72.5z" />
    <glyph glyph-name="oe" unicode="&#x153;" horiz-adv-x="859" 
d="M816 291v-53h-330q0 -79 41 -124.5t124 -45.5q80 0 137 39v-80q-51 -37 -139 -37q-140 0 -202 100q-59 -102 -182 -102q-104 0 -162.5 71t-58.5 178v33q0 107 58.5 178t162.5 71q121 0 180 -99q57 99 173 99q96 0 147 -61.5t51 -166.5zM617 444q-56 0 -88.5 -36.5
t-40.5 -101.5h249q-6 138 -120 138zM405 239v29q0 78 -35.5 126t-104.5 48t-104.5 -48t-35.5 -126v-29q0 -78 35.5 -126t104.5 -48t104.5 48t35.5 126z" />
    <glyph glyph-name="Racute" unicode="&#x154;" horiz-adv-x="647" 
d="M444 893l-98 -132h-80l87 132h91zM527 0l-237 290h-114v-290h-83v700h260q98 0 160 -56t62 -149q0 -83 -51 -137.5t-134 -65.5l242 -292h-105zM176 620v-250h175q68 0 104.5 35.5t36.5 89.5t-36.5 89.5t-104.5 35.5h-175z" />
    <glyph glyph-name="racute" unicode="&#x155;" horiz-adv-x="338" 
d="M332 730l-98 -132h-80l87 132h91zM155 430q26 36 70 58t94 23v-82q-46 -2 -89.5 -23t-67.5 -59v-347h-80v507h73v-77z" />
    <glyph glyph-name="Rcommaaccent" unicode="&#x156;" horiz-adv-x="647" 
d="M390 292l242 -292h-105l-237 290h-114v-290h-83v700h260q98 0 160 -56t62 -149q0 -83 -51 -137.5t-134 -65.5zM176 620v-250h175q68 0 104.5 35.5t36.5 89.5t-36.5 89.5t-104.5 35.5h-175zM226 -213l53 145h83l-56 -145h-80z" />
    <glyph glyph-name="rcommaaccent" unicode="&#x157;" horiz-adv-x="338" 
d="M155 430q26 36 70 58t94 23v-82q-46 -2 -89.5 -23t-67.5 -59v-347h-80v507h73v-77zM25 -213l53 145h83l-56 -145h-80z" />
    <glyph glyph-name="Rcaron" unicode="&#x158;" horiz-adv-x="647" 
d="M266 761l-91 132h74l71 -89l71 89h73l-90 -132h-108zM527 0l-237 290h-114v-290h-83v700h260q98 0 160 -56t62 -149q0 -83 -51 -137.5t-134 -65.5l242 -292h-105zM176 620v-250h175q68 0 104.5 35.5t36.5 89.5t-36.5 89.5t-104.5 35.5h-175z" />
    <glyph glyph-name="rcaron" unicode="&#x159;" horiz-adv-x="338" 
d="M154 598l-91 132h74l71 -89l71 89h73l-90 -132h-108zM155 430q26 36 70 58t94 23v-82q-46 -2 -89.5 -23t-67.5 -59v-347h-80v507h73v-77z" />
    <glyph glyph-name="Sacute" unicode="&#x15a;" 
d="M250 761l87 132h91l-98 -132h-80zM273 -12q-73 0 -135.5 18.5t-96.5 44.5v85q97 -69 232 -69q78 0 119.5 32t41.5 85q0 49 -31.5 76t-103.5 52l-49 17q-49 18 -78.5 31.5t-59.5 36t-43.5 53.5t-13.5 73q0 88 68 138t169 50q115 0 182 -41v-84q-76 46 -182 46
q-72 0 -113 -27.5t-41 -78.5q0 -45 33 -70t110 -52l47 -17q44 -16 73 -30t58 -37.5t43.5 -56.5t14.5 -77q0 -96 -69 -147t-175 -51z" />
    <glyph glyph-name="sacute" unicode="&#x15b;" horiz-adv-x="431" 
d="M178 598l87 132h91l-98 -132h-80zM212 -11q-109 0 -168 46v79q78 -50 170 -50q51 0 76 20t25 53q0 30 -18.5 46t-64.5 33l-38 13q-72 26 -107 56t-35 88q0 67 49.5 105.5t129.5 38.5q84 0 133 -29v-79q-62 34 -134 34q-47 0 -73 -18t-26 -49q0 -27 19.5 -41.5t69.5 -33.5
l36 -12q70 -26 104.5 -57t34.5 -91q0 -72 -50 -112t-133 -40z" />
    <glyph glyph-name="Scedilla" unicode="&#x15e;" 
d="M517 186q0 -91 -62 -141.5t-161 -55.5l-22 -48q46 -1 76 -22t30 -62q0 -44 -31.5 -67.5t-80.5 -23.5q-71 0 -110 33l22 45q39 -27 87 -27q56 0 56 40q0 37 -63 37q-19 0 -31 -3l-23 28l34 70q-62 4 -114.5 22t-82.5 40v85q97 -69 232 -69q78 0 119.5 32t41.5 85
q0 49 -31.5 76t-103.5 52l-49 17q-49 18 -78.5 31.5t-59.5 36t-43.5 53.5t-13.5 73q0 88 68 138t169 50q115 0 182 -41v-84q-76 46 -182 46q-72 0 -113 -27.5t-41 -78.5q0 -45 33 -70t110 -52l47 -17q44 -16 73 -30t58 -37.5t43.5 -56.5t14.5 -77z" />
    <glyph glyph-name="scedilla" unicode="&#x15f;" horiz-adv-x="431" 
d="M395 141q0 -66 -42.5 -105.5t-114.5 -45.5l-23 -49q46 -1 76 -22.5t30 -61.5q0 -44 -31.5 -67.5t-80.5 -23.5q-71 0 -111 33l23 45q39 -27 86 -27q56 0 56 40q0 37 -63 37q-18 0 -30 -3l-24 28l34 71q-90 7 -136 45v79q78 -50 170 -50q51 0 76 20t25 53q0 30 -18.5 46
t-64.5 33l-38 13q-72 26 -107 56t-35 88q0 67 49.5 105.5t129.5 38.5q84 0 133 -29v-79q-62 34 -134 34q-47 0 -73 -18t-26 -49q0 -27 19.5 -41.5t69.5 -33.5l36 -12q70 -26 104.5 -57t34.5 -91z" />
    <glyph glyph-name="Scaron" unicode="&#x160;" 
d="M250 761l-91 132h74l71 -89l71 89h73l-90 -132h-108zM328 387q44 -16 73 -30t58 -37.5t43.5 -56.5t14.5 -77q0 -96 -69 -147t-175 -51q-73 0 -135.5 18.5t-96.5 44.5v85q97 -69 232 -69q78 0 119.5 32t41.5 85q0 49 -31.5 76t-103.5 52l-49 17q-49 18 -78.5 31.5
t-59.5 36t-43.5 53.5t-13.5 73q0 88 68 138t169 50q115 0 182 -41v-84q-76 46 -182 46q-72 0 -113 -27.5t-41 -78.5q0 -45 33 -70t110 -52z" />
    <glyph glyph-name="scaron" unicode="&#x161;" horiz-adv-x="431" 
d="M178 598l-91 132h74l71 -89l71 89h73l-90 -132h-108zM256 289q70 -26 104.5 -57t34.5 -91q0 -72 -50 -112t-133 -40q-109 0 -168 46v79q78 -50 170 -50q51 0 76 20t25 53q0 30 -18.5 46t-64.5 33l-38 13q-72 26 -107 56t-35 88q0 67 49.5 105.5t129.5 38.5q84 0 133 -29
v-79q-62 34 -134 34q-47 0 -73 -18t-26 -49q0 -27 19.5 -41.5t69.5 -33.5z" />
    <glyph glyph-name="uni0162" unicode="&#x162;" horiz-adv-x="584" 
d="M333 -1h-12l-28 -58q46 -1 76 -22t30 -62q0 -44 -31.5 -67.5t-80.5 -23.5q-71 0 -110 33l22 45q39 -27 87 -27q56 0 56 40q0 37 -63 37q-19 0 -31 -3l-23 28l38 80h-13v621h-220v80h524v-80h-221v-621z" />
    <glyph glyph-name="uni0163" unicode="&#x163;" horiz-adv-x="340" 
d="M201 -59q46 -1 76 -22t30 -62q0 -44 -31 -67.5t-81 -23.5q-71 0 -110 33l22 45q39 -27 87 -27q56 0 56 40q0 37 -63 37q-19 0 -31 -3l-23 28l40 84q-67 26 -67 113v319h-78v72h78v126l80 27v-153h120v-72h-120v-295q0 -39 16 -54.5t51 -15.5q31 0 53 9v-73
q-26 -13 -69 -13h-11z" />
    <glyph glyph-name="Tcaron" unicode="&#x164;" horiz-adv-x="584" 
d="M240 761l-91 132h74l71 -89l71 89h73l-90 -132h-108zM30 700h524v-80h-221v-621h-83v621h-220v80z" />
    <glyph glyph-name="tcaron" unicode="&#x165;" horiz-adv-x="340" 
d="M283 743h79l-55 -176h-69zM186 660v-153h120v-72h-120v-295q0 -39 16 -54.5t51 -15.5q31 0 53 9v-73q-26 -13 -69 -13q-131 0 -131 123v319h-78v72h78v126z" />
    <glyph glyph-name="Tbar" unicode="&#x166;" horiz-adv-x="584" 
d="M554 620h-221v-231h121v-75h-121v-315h-83v315h-120v75h120v231h-220v80h524v-80z" />
    <glyph glyph-name="tbar" unicode="&#x167;" horiz-adv-x="340" 
d="M306 435h-120v-139h120v-64h-120v-92q0 -39 16 -54.5t51 -15.5q31 0 53 9v-73q-26 -13 -69 -13q-131 0 -131 123v116h-78v64h78v139h-78v72h78v126l80 27v-153h120v-72z" />
    <glyph glyph-name="Umacron" unicode="&#x16a;" horiz-adv-x="673" 
d="M206 787v65h262v-65h-262zM337 -12q-123 0 -187 70t-64 183v459h84v-458q0 -79 41 -127t126 -48q84 0 125 48t41 127v458h84v-459q0 -113 -64 -183t-186 -70z" />
    <glyph glyph-name="umacron" unicode="&#x16b;" horiz-adv-x="547" 
d="M402 689v-65h-262v65h262zM385 507h80v-507h-74v55q-61 -65 -154 -65q-79 0 -122 45t-43 124v348h80v-329q0 -56 24 -83t75 -27q37 0 73 17t61 46v376z" />
    <glyph glyph-name="Uring" unicode="&#x16e;" horiz-adv-x="673" 
d="M337 673q-47 0 -79.5 31.5t-32.5 76.5t32.5 76.5t79.5 31.5q48 0 80 -31.5t32 -76.5t-32 -76.5t-80 -31.5zM337 720q27 0 44 17.5t17 43.5q0 25 -17 42.5t-44 17.5q-26 0 -43 -17.5t-17 -42.5q0 -26 16.5 -43.5t43.5 -17.5zM337 -12q-123 0 -187 70t-64 183v459h84v-458
q0 -79 41 -127t126 -48q84 0 125 48t41 127v458h84v-459q0 -113 -64 -183t-186 -70z" />
    <glyph glyph-name="uring" unicode="&#x16f;" horiz-adv-x="547" 
d="M271 578q-45 0 -75.5 30.5t-30.5 72.5t30.5 72.5t75.5 30.5t75.5 -30.5t30.5 -72.5t-30.5 -72.5t-75.5 -30.5zM271 737q-24 0 -40 -16t-16 -40t16 -40t40 -16t40 16t16 40t-16 40t-40 16zM385 507h80v-507h-74v55q-61 -65 -154 -65q-79 0 -122 45t-43 124v348h80v-329
q0 -56 24 -83t75 -27q37 0 73 17t61 46v376z" />
    <glyph glyph-name="Uhungarumlaut" unicode="&#x170;" horiz-adv-x="673" 
d="M226 761l87 132h82l-97 -132h-72zM364 761l86 132h83l-98 -132h-71zM337 -12q-123 0 -187 70t-64 183v459h84v-458q0 -79 41 -127t126 -48q84 0 125 48t41 127v458h84v-459q0 -113 -64 -183t-186 -70z" />
    <glyph glyph-name="uhungarumlaut" unicode="&#x171;" horiz-adv-x="547" 
d="M329 730l-97 -132h-72l87 132h82zM369 598h-71l86 132h83zM385 131v376h80v-507h-74v55q-61 -65 -154 -65q-79 0 -122 45t-43 124v348h80v-329q0 -56 24 -83t75 -27q37 0 73 17t61 46z" />
    <glyph glyph-name="Uogonek" unicode="&#x172;" horiz-adv-x="673" 
d="M503 700h84v-459q0 -153 -107 -218q-73 -54 -73 -115q0 -22 13 -33t34 -11q19 0 31 4v-59q-14 -7 -45 -7q-46 0 -74 24.5t-28 67.5q0 51 39 96q-26 -2 -40 -2q-123 0 -187 70t-64 183v459h84v-458q0 -79 41 -127t126 -48q84 0 125 48t41 127v458z" />
    <glyph glyph-name="uogonek" unicode="&#x173;" horiz-adv-x="547" 
d="M465 0q-79 -42 -79 -96q0 -40 48 -40q19 0 31 4v-59q-15 -7 -45 -7q-45 0 -73.5 24t-28.5 65q0 67 73 118v46q-61 -65 -154 -65q-79 0 -122 45t-43 124v348h80v-329q0 -56 24 -83t75 -27q37 0 73 17t61 46v376h80v-507z" />
    <glyph glyph-name="Wcircumflex" unicode="&#x174;" horiz-adv-x="955" 
d="M478 850l-71 -89h-74l91 132h108l90 -132h-73zM837 700h85l-177 -700h-113l-155 592l-155 -592h-113l-176 700h87l150 -622l162 622h92l162 -622z" />
    <glyph glyph-name="wcircumflex" unicode="&#x175;" horiz-adv-x="782" 
d="M391 687l-71 -89h-74l91 132h108l90 -132h-73zM664 507h83l-131 -507h-106l-118 396l-118 -396h-107l-132 507h85l105 -426l127 426h81l127 -427z" />
    <glyph glyph-name="Ycircumflex" unicode="&#x176;" horiz-adv-x="583" 
d="M291 850l-71 -89h-74l91 132h108l90 -132h-73zM570 700l-237 -386v-314h-83v314l-237 386h94l186 -304l185 304h92z" />
    <glyph glyph-name="ycircumflex" unicode="&#x177;" horiz-adv-x="497" 
d="M248 687l-71 -89h-74l91 132h108l90 -132h-73zM388 507h85l-182 -509q-36 -100 -77.5 -144.5t-113.5 -44.5q-30 0 -56 8v76q18 -6 46 -6q42 0 71 25.5t49 83.5l-187 511h86l141 -396z" />
    <glyph glyph-name="Ydieresis" unicode="&#x178;" horiz-adv-x="583" 
d="M185 771q-22 0 -38 15t-16 37t16 37.5t38 15.5t38 -15.5t16 -37.5t-16 -37t-38 -15zM395 771q-22 0 -37.5 15t-15.5 37t15.5 37.5t37.5 15.5q23 0 38.5 -15.5t15.5 -37.5t-15.5 -37t-38.5 -15zM570 700l-237 -386v-314h-83v314l-237 386h94l186 -304l185 304h92z" />
    <glyph glyph-name="Zacute" unicode="&#x179;" horiz-adv-x="605" 
d="M266 761l87 132h91l-98 -132h-80zM48 0v76l407 544h-380v80h481v-76l-406 -544h407v-80h-509z" />
    <glyph glyph-name="zacute" unicode="&#x17a;" horiz-adv-x="485" 
d="M208 598l87 132h91l-98 -132h-80zM49 0v70l287 365h-274v72h374v-70l-288 -365h288v-72h-387z" />
    <glyph glyph-name="Zdotaccent" unicode="&#x17b;" horiz-adv-x="605" 
d="M318 772q-23 0 -39.5 16t-16.5 38t16.5 38t39.5 16t39 -16t16 -38t-16 -38t-39 -16zM48 0v76l407 544h-380v80h481v-76l-406 -544h407v-80h-509z" />
    <glyph glyph-name="zdotaccent" unicode="&#x17c;" horiz-adv-x="485" 
d="M260 609q-23 0 -39.5 16t-16.5 38t16.5 38t39.5 16t39 -16t16 -38t-16 -38t-39 -16zM49 0v70l287 365h-274v72h374v-70l-288 -365h288v-72h-387z" />
    <glyph glyph-name="Zcaron" unicode="&#x17d;" horiz-adv-x="605" 
d="M266 761l-91 132h74l71 -89l71 89h73l-90 -132h-108zM150 80h407v-80h-509v76l407 544h-380v80h481v-76z" />
    <glyph glyph-name="zcaron" unicode="&#x17e;" horiz-adv-x="485" 
d="M208 598l-91 132h74l71 -89l71 89h73l-90 -132h-108zM436 507v-70l-288 -365h288v-72h-387v70l287 365h-274v72h374z" />
    <glyph glyph-name="florin" unicode="&#x192;" 
d="M395 634q-42 0 -60 -21.5t-18 -68.5v-64h120v-65h-120v-267q0 -80 -37.5 -119.5t-105.5 -39.5q-43 0 -67 11v73q21 -8 52 -8q42 0 60 23t18 71v256h-111v65h111v78q0 75 38 113.5t105 38.5q42 0 66 -11v-74q-21 9 -51 9z" />
    <glyph glyph-name="AEacute" unicode="&#x1fc;" horiz-adv-x="921" 
d="M742 893l-98 -132h-80l87 132h91zM505 80h357v-80h-440v206h-228l-110 -206h-94l378 700h492v-80h-355v-217h323v-80h-323v-243zM237 286h185v346z" />
    <glyph glyph-name="aeacute" unicode="&#x1fd;" horiz-adv-x="792" 
d="M538 730l-98 -132h-80l87 132h91zM749 291v-53h-330q0 -79 41.5 -124.5t124.5 -45.5q79 0 137 39v-80q-51 -37 -140 -37q-120 0 -187 76q-73 -75 -183 -75q-75 0 -120.5 38.5t-45.5 104.5q0 91 78.5 131t215.5 45v29q0 55 -27 78t-82 23q-88 0 -154 -53v84q63 47 161 47
q114 0 158 -70q57 71 156 71q96 0 146.5 -61.5t50.5 -166.5zM421 306h249q-3 138 -120 138q-56 0 -88.5 -36.5t-40.5 -101.5zM222 67q84 0 137 61q-19 47 -19 109v3q-101 -5 -157 -27.5t-56 -72.5q0 -36 25.5 -54.5t69.5 -18.5z" />
    <glyph glyph-name="Scommaaccent" unicode="&#x218;" 
d="M273 -12q-73 0 -135.5 18.5t-96.5 44.5v85q97 -69 232 -69q78 0 119.5 32t41.5 85q0 49 -31.5 76t-103.5 52l-49 17q-49 18 -78.5 31.5t-59.5 36t-43.5 53.5t-13.5 73q0 88 68 138t169 50q115 0 182 -41v-84q-76 46 -182 46q-72 0 -113 -27.5t-41 -78.5q0 -45 33 -70
t110 -52l47 -17q44 -16 73 -30t58 -37.5t43.5 -56.5t14.5 -77q0 -96 -69 -147t-175 -51zM181 -213l53 145h83l-56 -145h-80z" />
    <glyph glyph-name="scommaaccent" unicode="&#x219;" horiz-adv-x="431" 
d="M212 -11q-109 0 -168 46v79q78 -50 170 -50q51 0 76 20t25 53q0 30 -18.5 46t-64.5 33l-38 13q-72 26 -107 56t-35 88q0 67 49.5 105.5t129.5 38.5q84 0 133 -29v-79q-62 34 -134 34q-47 0 -73 -18t-26 -49q0 -27 19.5 -41.5t69.5 -33.5l36 -12q70 -26 104.5 -57
t34.5 -91q0 -72 -50 -112t-133 -40zM124 -213l53 145h83l-56 -145h-80z" />
    <glyph glyph-name="uni021A" unicode="&#x21a;" horiz-adv-x="584" 
d="M333 -1h-83v621h-220v80h524v-80h-221v-621zM200 -213l53 145h83l-56 -145h-80z" />
    <glyph glyph-name="uni021B" unicode="&#x21b;" horiz-adv-x="340" 
d="M306 435h-120v-295q0 -39 16 -54.5t51 -15.5q31 0 53 9v-73q-26 -13 -69 -13q-131 0 -131 123v319h-78v72h78v126l80 27v-153h120v-72zM110 -213l53 145h83l-56 -145h-80z" />
    <glyph glyph-name="uni0237" unicode="&#x237;" horiz-adv-x="243" 
d="M82 507h80v-540q0 -80 -38 -119.5t-105 -39.5q-43 0 -67 11v73q21 -8 52 -8q41 0 59.5 23t18.5 71v529z" />
    <glyph glyph-name="circumflex" unicode="&#x2c6;" horiz-adv-x="392" 
d="M340 598h-73l-71 89l-71 -89h-74l91 132h108z" />
    <glyph glyph-name="caron" unicode="&#x2c7;" horiz-adv-x="392" 
d="M267 730h73l-90 -132h-108l-91 132h74l71 -89z" />
    <glyph glyph-name="breve" unicode="&#x2d8;" horiz-adv-x="379" 
d="M190 599q-64 0 -99.5 34.5t-39.5 88.5h61q3 -26 22.5 -44.5t55.5 -18.5q35 0 54.5 18.5t22.5 44.5h61q-4 -54 -39 -88.5t-99 -34.5z" />
    <glyph glyph-name="dotaccent" unicode="&#x2d9;" horiz-adv-x="213" 
d="M107 609q-23 0 -39.5 16t-16.5 38t16.5 38t39.5 16t39 -16t16 -38t-16 -38t-39 -16z" />
    <glyph glyph-name="ring" unicode="&#x2da;" horiz-adv-x="314" 
d="M157 578q-45 0 -75.5 30.5t-30.5 72.5t30.5 72.5t75.5 30.5t75.5 -30.5t30.5 -72.5t-30.5 -72.5t-75.5 -30.5zM157 625q24 0 40 16t16 40t-16 40t-40 16t-40 -16t-16 -40t16 -40t40 -16z" />
    <glyph glyph-name="ogonek" unicode="&#x2db;" horiz-adv-x="249" 
d="M153 -198q-45 0 -73.5 24t-28.5 65q0 81 107 139l40 -30q-79 -42 -79 -96q0 -40 48 -40q19 0 31 4v-59q-15 -7 -45 -7z" />
    <glyph glyph-name="tilde" unicode="&#x2dc;" horiz-adv-x="399" 
d="M51 595q3 113 83 113q27 0 66 -24l23 -14q26 -16 41 -16q28 0 30 54h53q-3 -113 -82 -113q-28 0 -66 23l-23 14q-26 16 -41 16q-26 0 -30 -53h-54z" />
    <glyph glyph-name="hungarumlaut" unicode="&#x2dd;" horiz-adv-x="409" 
d="M51 598l87 132h82l-97 -132h-72zM189 598l86 132h83l-98 -132h-71z" />
    <glyph glyph-name="gravecomb" unicode="&#x300;" horiz-adv-x="0" 
d="M-131 598l-98 132h91l87 -132h-80z" />
    <glyph glyph-name="acutecomb" unicode="&#x301;" horiz-adv-x="0" 
d="M-229 598l87 132h91l-98 -132h-80z" />
    <glyph glyph-name="uni0302" unicode="&#x302;" horiz-adv-x="0" 
d="M-52 598h-73l-71 89l-71 -89h-74l91 132h108z" />
    <glyph glyph-name="tildecomb" unicode="&#x303;" horiz-adv-x="0" 
d="M-348 595q3 113 83 113q27 0 66 -24l23 -14q26 -16 41 -16q28 0 30 54h53q-3 -113 -82 -113q-28 0 -66 23l-23 14q-26 16 -41 16q-26 0 -30 -53h-54z" />
    <glyph glyph-name="uni0304" unicode="&#x304;" horiz-adv-x="0" 
d="M-313 624v65h262v-65h-262z" />
    <glyph glyph-name="uni0306" unicode="&#x306;" horiz-adv-x="0" 
d="M-189 599q-64 0 -99.5 34.5t-39.5 88.5h61q3 -26 22.5 -44.5t55.5 -18.5q35 0 54.5 18.5t22.5 44.5h61q-4 -54 -39 -88.5t-99 -34.5z" />
    <glyph glyph-name="uni0307" unicode="&#x307;" horiz-adv-x="0" 
d="M-106 609q-23 0 -39.5 16t-16.5 38t16.5 38t39.5 16t39 -16t16 -38t-16 -38t-39 -16z" />
    <glyph glyph-name="uni0308" unicode="&#x308;" horiz-adv-x="0" 
d="M-294 611q-22 0 -38 15t-16 37t16 37.5t38 15.5t38 -15.5t16 -37.5t-16 -37t-38 -15zM-105 611q-23 0 -38.5 15t-15.5 37t15.5 37.5t38.5 15.5q22 0 37.5 -15.5t15.5 -37.5t-15.5 -37t-37.5 -15z" />
    <glyph glyph-name="uni030A" unicode="&#x30a;" horiz-adv-x="0" 
d="M-157 578q-45 0 -75.5 30.5t-30.5 72.5t30.5 72.5t75.5 30.5t75.5 -30.5t30.5 -72.5t-30.5 -72.5t-75.5 -30.5zM-157 625q24 0 40 16t16 40t-16 40t-40 16t-40 -16t-16 -40t16 -40t40 -16z" />
    <glyph glyph-name="uni030B" unicode="&#x30b;" horiz-adv-x="0" 
d="M-358 598l87 132h82l-97 -132h-72zM-220 598l86 132h83l-98 -132h-71z" />
    <glyph glyph-name="uni030C" unicode="&#x30c;" horiz-adv-x="0" 
d="M-125 730h73l-90 -132h-108l-91 132h74l71 -89z" />
    <glyph glyph-name="uni0312" unicode="&#x312;" horiz-adv-x="0" 
d="M-187 598l57 145h79l-52 -145h-84z" />
    <glyph glyph-name="uni0326" unicode="&#x326;" horiz-adv-x="0" 
d="M-187 -213l53 145h83l-56 -145h-80z" />
    <glyph glyph-name="uni0327" unicode="&#x327;" horiz-adv-x="0" 
d="M-157 -59q46 -1 76 -22.5t30 -61.5q0 -44 -31.5 -67.5t-80.5 -23.5q-71 0 -111 33l23 45q39 -27 86 -27q56 0 56 40q0 37 -63 37q-18 0 -30 -3l-24 28l46 96l51 -15z" />
    <glyph glyph-name="uni0328" unicode="&#x328;" horiz-adv-x="0" 
d="M-96 -198q-45 0 -73.5 24t-28.5 65q0 81 107 139l40 -30q-79 -42 -79 -96q0 -40 48 -40q19 0 31 4v-59q-15 -7 -45 -7z" />
    <glyph glyph-name="uni0335" unicode="&#x335;" horiz-adv-x="0" 
d="M-320 327v64h268v-64h-268z" />
    <glyph glyph-name="uni0336" unicode="&#x336;" horiz-adv-x="0" 
d="M-651 325v68h600v-68h-600z" />
    <glyph glyph-name="uni0337" unicode="&#x337;" horiz-adv-x="0" 
d="M-288 227v79l236 138v-79z" />
    <glyph glyph-name="uni0338" unicode="&#x338;" horiz-adv-x="0" 
d="M-408 -17l-49 33l358 508l48 -33z" />
    <glyph glyph-name="uni037E" unicode="&#x37e;" horiz-adv-x="258" 
d="M129 381q-24 0 -41 16.5t-17 40.5t17 40.5t41 16.5q25 0 41.5 -16.5t16.5 -40.5t-16.5 -40.5t-41.5 -16.5zM28 -116l61 202h81l-66 -202h-76z" />
    <glyph glyph-name="tonos" unicode="&#x384;" horiz-adv-x="236" 
d="M51 598l52 152h81l-65 -152h-68z" />
    <glyph glyph-name="dieresistonos" unicode="&#x385;" horiz-adv-x="441" 
d="M167 598l44 150h71l-56 -150h-59zM99 617q-20 0 -34 14t-14 35q0 20 14 34t34 14t34 -14t14 -34q0 -21 -14 -35t-34 -14zM342 617q-20 0 -34 14t-14 35q0 20 14 34t34 14t34 -14t14 -34q0 -21 -14 -35t-34 -14z" />
    <glyph glyph-name="Alphatonos" unicode="&#x386;" horiz-adv-x="644" 
d="M541 0l-73 206h-294l-73 -206h-86l251 700h112l251 -700h-88zM150 700l-55 -197h-66l41 197h80zM202 286h238l-119 339z" />
    <glyph glyph-name="anoteleia" unicode="&#x387;" horiz-adv-x="218" 
d="M109 279q-24 0 -41 16.5t-17 40.5t17 40.5t41 16.5q25 0 41.5 -16.5t16.5 -40.5t-16.5 -40.5t-41.5 -16.5z" />
    <glyph glyph-name="Epsilontonos" unicode="&#x388;" horiz-adv-x="693" 
d="M0 503l41 197h80l-55 -197h-66zM277 80h357v-80h-440v700h438v-80h-355v-217h323v-80h-323v-243z" />
    <glyph glyph-name="Etatonos" unicode="&#x389;" horiz-adv-x="779" 
d="M0 503l41 197h80l-55 -197h-66zM603 700h83v-700h-83v323h-326v-323h-83v700h83v-297h326v297z" />
    <glyph glyph-name="Iotatonos" unicode="&#x38a;" horiz-adv-x="488" 
d="M0 503l41 197h80l-55 -197h-66zM440 631h-89v-562h89v-69h-260v69h88v562h-88v69h260v-69z" />
    <glyph glyph-name="Omicrontonos" unicode="&#x38c;" horiz-adv-x="768" 
d="M418 711q143 0 219 -95t76 -248v-36q0 -153 -76 -248t-219 -95q-144 0 -220 94.5t-76 248.5v36q0 154 76 248.5t220 94.5zM0 503l41 197h80l-55 -197h-66zM630 367q0 119 -53 191.5t-159 72.5q-107 0 -159.5 -72.5t-52.5 -191.5v-34q0 -119 52.5 -191.5t159.5 -72.5
q106 0 159 72.5t53 191.5v34z" />
    <glyph glyph-name="Upsilontonos" unicode="&#x38e;" horiz-adv-x="723" 
d="M0 503l41 197h80l-55 -197h-66zM711 700l-237 -386v-314h-83v314l-237 386h94l186 -304l185 304h92z" />
    <glyph glyph-name="Omegatonos" unicode="&#x38f;" horiz-adv-x="765" 
d="M588 80h117v-80h-240v71q80 39 117.5 105.5t37.5 167.5v34q0 121 -54.5 187t-152.5 66q-99 0 -153.5 -66t-54.5 -187v-34q0 -196 155 -273v-71h-240v80h117q-115 86 -115 266v35q0 153 78 241.5t213 88.5q134 0 212.5 -88.5t78.5 -241.5v-35q0 -179 -116 -266zM41 700h80
l-55 -197h-66z" />
    <glyph glyph-name="iotadieresistonos" unicode="&#x390;" horiz-adv-x="262" 
d="M65 598l44 150h71l-56 -150h-59zM-3 617q-20 0 -34 14t-14 35q0 20 14 34t34 14t34 -14t14 -34q0 -21 -14 -35t-34 -14zM240 617q-20 0 -34 14t-14 35q0 20 14 34t34 14t34 -14t14 -34q0 -21 -14 -35t-34 -14zM183 -7q-109 0 -109 121v393h80v-374q0 -37 10.5 -50.5
t37.5 -13.5q18 0 34 4v-72q-26 -8 -53 -8z" />
    <glyph glyph-name="Alpha" unicode="&#x391;" horiz-adv-x="644" 
d="M541 0l-73 206h-294l-73 -206h-86l251 700h112l251 -700h-88zM202 286h238l-119 339z" />
    <glyph glyph-name="Beta" unicode="&#x392;" horiz-adv-x="640" 
d="M478 367q51 -22 80.5 -65.5t29.5 -102.5q0 -90 -60 -144.5t-154 -54.5h-281v700h272q90 0 146 -50.5t56 -135.5q0 -102 -89 -147zM363 620h-187v-218h187q59 0 90.5 30.5t31.5 78.5t-31.5 78.5t-90.5 30.5zM372 80q64 0 98.5 34t34.5 87t-34.5 87t-98.5 34h-196v-242h196
z" />
    <glyph glyph-name="Gamma" unicode="&#x393;" horiz-adv-x="537" 
d="M93 0v700h414v-80h-331v-620h-83z" />
    <glyph glyph-name="uni0394" unicode="&#x394;" horiz-adv-x="644" 
d="M378 700l251 -700h-614l251 700h112zM321 623l-192 -543h384z" />
    <glyph glyph-name="Epsilon" unicode="&#x395;" horiz-adv-x="592" 
d="M176 80h357v-80h-440v700h438v-80h-355v-217h323v-80h-323v-243z" />
    <glyph glyph-name="Zeta" unicode="&#x396;" horiz-adv-x="605" 
d="M48 0v76l407 544h-380v80h481v-76l-406 -544h407v-80h-509z" />
    <glyph glyph-name="Eta" unicode="&#x397;" horiz-adv-x="678" 
d="M502 700h83v-700h-83v323h-326v-323h-83v700h83v-297h326v297z" />
    <glyph glyph-name="Theta" unicode="&#x398;" horiz-adv-x="702" 
d="M351 711q143 0 219 -95t76 -248v-36q0 -153 -76 -248t-219 -95q-144 0 -220 94.5t-76 248.5v36q0 154 76 248.5t220 94.5zM563 367q0 119 -53 191.5t-159 72.5q-107 0 -159.5 -72.5t-52.5 -191.5v-34q0 -119 52.5 -191.5t159.5 -72.5q106 0 159 72.5t53 191.5v34z
M217 315v77h268v-77h-268z" />
    <glyph glyph-name="Iota" unicode="&#x399;" horiz-adv-x="377" 
d="M319 631h-89v-562h89v-69h-260v69h88v562h-88v69h260v-69z" />
    <glyph glyph-name="Kappa" unicode="&#x39a;" horiz-adv-x="623" 
d="M627 0h-112l-339 342v-342h-83v700h83v-322l318 322h109l-336 -337z" />
    <glyph glyph-name="Lambda" unicode="&#x39b;" horiz-adv-x="629" 
d="M613 0h-89l-211 622l-211 -622h-86l242 700h112z" />
    <glyph glyph-name="Mu" unicode="&#x39c;" horiz-adv-x="811" 
d="M607 700h111v-700h-82v598l-204 -447h-56l-203 444v-595h-80v700h112l201 -447z" />
    <glyph glyph-name="Nu" unicode="&#x39d;" horiz-adv-x="694" 
d="M521 700h80v-700h-93l-335 579v-579h-80v700h95l333 -577v577z" />
    <glyph glyph-name="Xi" unicode="&#x39e;" horiz-adv-x="564" 
d="M60 620v80h444v-80h-444zM94 323v80h376v-80h-376zM58 0v80h448v-80h-448z" />
    <glyph glyph-name="Omicron" unicode="&#x39f;" horiz-adv-x="702" 
d="M351 711q143 0 219 -95t76 -248v-36q0 -153 -76 -248t-219 -95q-144 0 -220 94.5t-76 248.5v36q0 154 76 248.5t220 94.5zM563 367q0 119 -53 191.5t-159 72.5q-107 0 -159.5 -72.5t-52.5 -191.5v-34q0 -119 52.5 -191.5t159.5 -72.5q106 0 159 72.5t53 191.5v34z" />
    <glyph glyph-name="Pi" unicode="&#x3a0;" horiz-adv-x="668" 
d="M93 0v700h482v-700h-83v620h-316v-620h-83z" />
    <glyph glyph-name="Rho" unicode="&#x3a1;" horiz-adv-x="605" 
d="M347 700q100 0 162.5 -58t62.5 -154q0 -97 -62.5 -155t-162.5 -58h-171v-275h-83v700h254zM345 355q69 0 106.5 37.5t37.5 95.5t-37.5 95t-106.5 37h-169v-265h169z" />
    <glyph glyph-name="Sigma" unicode="&#x3a3;" horiz-adv-x="572" 
d="M49 0v76l212 288l-204 261v75h467v-80h-364l199 -257l-210 -283h389v-80h-489z" />
    <glyph glyph-name="Tau" unicode="&#x3a4;" horiz-adv-x="584" 
d="M333 -1h-83v621h-220v80h524v-80h-221v-621z" />
    <glyph glyph-name="Upsilon" unicode="&#x3a5;" horiz-adv-x="583" 
d="M570 700l-237 -386v-314h-83v314l-237 386h94l186 -304l185 304h92z" />
    <glyph glyph-name="Phi" unicode="&#x3a6;" horiz-adv-x="748" 
d="M415 652q131 -11 209 -89.5t78 -200.5v-16q0 -122 -78 -201t-209 -90v-81h-82v81q-132 11 -210 89.5t-78 201.5v16q0 122 78 200.5t210 89.5v74h82v-74zM622 347v14q0 92 -55.5 149t-153.5 67v-447q98 10 153.5 67t55.5 150zM125 347q0 -93 55.5 -150t153.5 -67v447
q-98 -10 -153.5 -67t-55.5 -149v-14z" />
    <glyph glyph-name="Chi" unicode="&#x3a7;" horiz-adv-x="643" 
d="M613 0h-96l-196 297l-196 -297h-94l236 358l-226 342h95l186 -282l185 282h96l-227 -342z" />
    <glyph glyph-name="Psi" unicode="&#x3a8;" horiz-adv-x="747" 
d="M615 700h82v-195q0 -152 -68 -227t-214 -84v-194h-83v194q-146 9 -213.5 84t-67.5 227v195h82v-188q0 -123 46 -179t154 -64v431h81v-431q109 7 155 63.5t46 179.5v188z" />
    <glyph glyph-name="uni03A9" unicode="&#x3a9;" horiz-adv-x="703" 
d="M527 80h117v-80h-240v71q80 39 117.5 105.5t37.5 167.5v34q0 121 -54.5 187t-152.5 66q-99 0 -153.5 -66t-54.5 -187v-34q0 -196 155 -273v-71h-240v80h117q-115 86 -115 266v35q0 153 78 241.5t213 88.5q134 0 212.5 -88.5t78.5 -241.5v-35q0 -179 -116 -266z" />
    <glyph glyph-name="Iotadieresis" unicode="&#x3aa;" horiz-adv-x="377" 
d="M137 823q0 -22 -16 -37t-38 -15t-38 15t-16 37t16 37.5t38 15.5t38 -15.5t16 -37.5zM293 876q23 0 38.5 -15.5t15.5 -37.5t-15.5 -37t-38.5 -15q-22 0 -37.5 15t-15.5 37t15.5 37.5t37.5 15.5zM319 700v-69h-89v-562h89v-69h-260v69h88v562h-88v69h260z" />
    <glyph glyph-name="Upsilondieresis" unicode="&#x3ab;" horiz-adv-x="583" 
d="M185 771q-22 0 -38 15t-16 37t16 37.5t38 15.5t38 -15.5t16 -37.5t-16 -37t-38 -15zM395 771q-22 0 -37.5 15t-15.5 37t15.5 37.5t37.5 15.5q23 0 38.5 -15.5t15.5 -37.5t-15.5 -37t-38.5 -15zM570 700l-237 -386v-314h-83v314l-237 386h94l186 -304l185 304h92z" />
    <glyph glyph-name="alphatonos" unicode="&#x3ac;" horiz-adv-x="555" 
d="M372 750l-65 -152h-68l52 152h81zM509 68q10 0 22 2v-71q-19 -6 -42 -6q-73 0 -88 69q-51 -70 -150 -70q-93 0 -150 67.5t-57 177.5v33q0 110 57 177.5t150 67.5q92 0 145 -63v55h73v-382q0 -32 9 -44.5t31 -12.5zM262 70q83 0 127 66v235q-44 66 -127 66
q-64 0 -100.5 -44.5t-36.5 -124.5v-29q0 -80 36.5 -124.5t100.5 -44.5z" />
    <glyph glyph-name="epsilontonos" unicode="&#x3ad;" horiz-adv-x="463" 
d="M342 750l-65 -152h-68l52 152h81zM257 64q98 0 166 41v-79q-23 -15 -71 -25.5t-98 -10.5q-96 0 -151.5 41t-55.5 111q0 87 85 121q-70 34 -70 111q0 67 53 105.5t146 38.5q97 0 148 -31v-76q-63 33 -147 33q-59 0 -91.5 -19.5t-32.5 -55.5q0 -35 29 -54.5t80 -19.5h78
v-73h-79q-121 0 -121 -76q0 -39 34.5 -60.5t97.5 -21.5z" />
    <glyph glyph-name="etatonos" unicode="&#x3ae;" horiz-adv-x="561" 
d="M383 750l-65 -152h-68l52 152h81zM325 517q77 0 121 -45t44 -124v-528h-80v509q0 110 -99 110q-84 0 -139 -63v-376h-80v395q0 46 -31 46q-12 0 -29 -5v67q25 9 51 9q66 0 78 -65q64 70 164 70z" />
    <glyph glyph-name="iotatonos" unicode="&#x3af;" horiz-adv-x="262" 
d="M81 598l52 152h81l-65 -152h-68zM183 -7q-109 0 -109 121v393h80v-374q0 -37 10.5 -50.5t37.5 -13.5q18 0 34 4v-72q-26 -8 -53 -8z" />
    <glyph glyph-name="upsilondieresistonos" unicode="&#x3b0;" horiz-adv-x="538" 
d="M217 598l44 150h71l-56 -150h-59zM149 617q-20 0 -34 14t-14 35q0 20 14 34t34 14t34 -14t14 -34q0 -21 -14 -35t-34 -14zM392 617q-20 0 -34 14t-14 35q0 20 14 34t34 14t34 -14t14 -34q0 -21 -14 -35t-34 -14zM269 -10q-92 0 -144.5 54.5t-52.5 151.5v311h80v-302
q0 -138 117 -138t117 138v302h80v-311q0 -97 -52.5 -151.5t-144.5 -54.5z" />
    <glyph glyph-name="alpha" unicode="&#x3b1;" horiz-adv-x="555" 
d="M509 68q10 0 22 2v-71q-19 -6 -42 -6q-73 0 -88 69q-51 -70 -150 -70q-93 0 -150 67.5t-57 177.5v33q0 110 57 177.5t150 67.5q92 0 145 -63v55h73v-382q0 -32 9 -44.5t31 -12.5zM262 70q83 0 127 66v235q-44 66 -127 66q-64 0 -100.5 -44.5t-36.5 -124.5v-29
q0 -80 36.5 -124.5t100.5 -44.5z" />
    <glyph glyph-name="beta" unicode="&#x3b2;" horiz-adv-x="552" 
d="M378 399q63 -23 98.5 -74t35.5 -122q0 -93 -58.5 -152t-152.5 -59q-86 0 -139 50v-222h-80v702q0 100 53.5 159t144.5 59q85 0 137 -51t52 -134q0 -114 -91 -156zM292 69q64 0 101.5 38t37.5 101q0 70 -46.5 109.5t-128.5 39.5h-20v71h22q64 0 99 31t35 89
q0 55 -30.5 87.5t-81.5 32.5q-56 0 -87 -40t-31 -112v-390q46 -57 130 -57z" />
    <glyph glyph-name="gamma" unicode="&#x3b3;" horiz-adv-x="507" 
d="M400 507h84l-190 -507v-180h-80v180l-191 507h86l145 -403z" />
    <glyph glyph-name="delta" unicode="&#x3b4;" horiz-adv-x="525" 
d="M307 494q83 -57 129.5 -119.5t46.5 -155.5q0 -105 -59.5 -167.5t-158.5 -62.5t-160 63t-61 163q0 160 159 260q-40 31 -60.5 60t-20.5 69q0 59 48.5 95.5t126.5 36.5q77 0 124 -28v-77q-51 32 -121 32q-45 0 -72 -16.5t-27 -43.5q0 -25 23.5 -47t82.5 -62zM264 66
q63 0 101 42t38 114q0 65 -34 112.5t-104 97.5q-141 -85 -141 -212q0 -70 38 -112t102 -42z" />
    <glyph glyph-name="epsilon" unicode="&#x3b5;" horiz-adv-x="463" 
d="M257 64q98 0 166 41v-79q-23 -15 -71 -25.5t-98 -10.5q-96 0 -151.5 41t-55.5 111q0 87 85 121q-70 34 -70 111q0 67 53 105.5t146 38.5q97 0 148 -31v-76q-63 33 -147 33q-59 0 -91.5 -19.5t-32.5 -55.5q0 -35 29 -54.5t80 -19.5h78v-73h-79q-121 0 -121 -76
q0 -39 34.5 -60.5t97.5 -21.5z" />
    <glyph glyph-name="zeta" unicode="&#x3b6;" horiz-adv-x="441" 
d="M267 75q81 -27 118 -57t37 -88q0 -30 -14 -75h-69q11 31 11 56q0 20 -9 35t-30 27.5t-37.5 19t-50.5 18.5q-86 29 -133 73.5t-47 132.5q0 103 67.5 218t191.5 225h-219v70h331v-62q-137 -112 -213.5 -229t-76.5 -215q0 -61 32.5 -91.5t110.5 -57.5z" />
    <glyph glyph-name="eta" unicode="&#x3b7;" horiz-adv-x="561" 
d="M325 517q77 0 121 -45t44 -124v-528h-80v509q0 110 -99 110q-84 0 -139 -63v-376h-80v395q0 46 -31 46q-12 0 -29 -5v67q25 9 51 9q66 0 78 -65q64 70 164 70z" />
    <glyph glyph-name="theta" unicode="&#x3b8;" horiz-adv-x="553" 
d="M276 742q108 0 167.5 -92.5t59.5 -260.5v-48q0 -169 -59 -261t-168 -92q-108 0 -167 92t-59 261v48q0 168 59.5 260.5t166.5 92.5zM276 664q-68 0 -105 -66t-40 -192h291q-3 126 -40 192t-106 66zM276 66q70 0 107 68.5t39 199.5h-291q1 -130 38.5 -199t106.5 -69z" />
    <glyph glyph-name="iota" unicode="&#x3b9;" horiz-adv-x="262" 
d="M183 -7q-109 0 -109 121v393h80v-374q0 -37 10.5 -50.5t37.5 -13.5q18 0 34 4v-72q-26 -8 -53 -8z" />
    <glyph glyph-name="kappa" unicode="&#x3ba;" horiz-adv-x="491" 
d="M490 0h-104l-224 255v-255h-80v507h80v-223l210 223h101l-224 -234z" />
    <glyph glyph-name="lambda" unicode="&#x3bb;" horiz-adv-x="506" 
d="M484 0h-86l-131 408l-157 -408h-85l202 507l-26 77q-26 78 -89 78q-26 0 -57 -12v72q36 15 72 15q54 0 90 -30t58 -95z" />
    <glyph glyph-name="uni03BC" unicode="&#x3bc;" horiz-adv-x="561" 
d="M514 68q10 0 22 2v-71q-20 -6 -42 -6q-71 0 -87 65q-63 -68 -150 -68q-64 0 -95 37v-207h-80v687h80v-336q0 -103 97 -103q83 0 136 64v375h80v-379q0 -33 8.5 -46.5t30.5 -13.5z" />
    <glyph glyph-name="nu" unicode="&#x3bd;" horiz-adv-x="506" 
d="M397 507h86l-176 -507h-108l-176 507h86l144 -433z" />
    <glyph glyph-name="xi" unicode="&#x3be;" horiz-adv-x="441" 
d="M268 75q88 -30 121.5 -59t33.5 -84q0 -30 -14 -77h-69q11 33 11 57q0 20 -8.5 35t-29 27t-37 18.5t-49.5 17.5q-40 13 -67 25.5t-57 34.5t-45 54.5t-15 75.5q0 63 33.5 112.5t91.5 72.5q-45 18 -69.5 53t-24.5 81q0 89 80 142h-91v69h351v-70h-78q-81 0 -133 -38.5
t-52 -97.5q0 -50 41 -78.5t114 -28.5h65v-70h-70q-82 0 -130 -38t-48 -102q0 -54 33.5 -80t111.5 -52z" />
    <glyph glyph-name="omicron" unicode="&#x3bf;" horiz-adv-x="540" 
d="M270 -12q-107 0 -166.5 70.5t-59.5 178.5v33q0 108 59.5 178.5t166.5 70.5t167 -71t60 -178v-33q0 -107 -60 -178t-167 -71zM270 65q71 0 108.5 48.5t37.5 125.5v29q0 77 -37.5 125.5t-108.5 48.5t-108 -48.5t-37 -125.5v-29q0 -77 37 -125.5t108 -48.5z" />
    <glyph glyph-name="pi" unicode="&#x3c0;" horiz-adv-x="593" 
d="M559 435h-83v-310q0 -32 10.5 -44.5t35.5 -12.5q19 0 37 6v-72q-24 -9 -57 -9q-106 0 -106 116v326h-208v-436h-80v436h-82v72h533v-72z" />
    <glyph glyph-name="rho" unicode="&#x3c1;" horiz-adv-x="537" 
d="M277 519q98 0 157.5 -68t59.5 -181v-33q0 -110 -57.5 -177.5t-150.5 -67.5q-89 0 -144 61v-233h-81v451q0 112 59 180t157 68zM413 239v29q0 81 -36.5 127.5t-99.5 46.5t-99 -46t-36 -128v-122q50 -76 133 -76q64 0 101 45.5t37 123.5z" />
    <glyph glyph-name="uni03C2" unicode="&#x3c2;" horiz-adv-x="441" 
d="M323 -145q10 28 10 58q0 32 -23.5 51t-91.5 46q-30 12 -53 24t-47 32t-39 44.5t-25 60t-10 79.5v28q0 110 62 174.5t168 64.5q78 0 122 -26v-80q-53 28 -119 28q-74 0 -113 -42t-39 -121v-24q0 -53 19.5 -88.5t48 -54.5t79.5 -39q71 -28 102.5 -56t31.5 -83
q0 -31 -15 -76h-68z" />
    <glyph glyph-name="sigma" unicode="&#x3c3;" horiz-adv-x="559" 
d="M547 507v-73h-131q30 -30 49.5 -81.5t19.5 -104.5v-25q0 -107 -59.5 -171t-158.5 -64q-101 0 -162 66.5t-61 176.5v25q0 115 69.5 183t187.5 68h246zM406 250q0 54 -22.5 103t-61.5 81h-15q-87 0 -134.5 -47t-47.5 -133v-21q0 -78 38 -123t104 -45t102.5 43.5t36.5 120.5
v21z" />
    <glyph glyph-name="tau" unicode="&#x3c4;" horiz-adv-x="448" 
d="M420 436h-161v-304q0 -35 15.5 -49.5t49.5 -14.5q32 0 52 9v-71q-28 -13 -68 -13q-129 0 -129 130v313h-151v71h392v-71z" />
    <glyph glyph-name="upsilon" unicode="&#x3c5;" horiz-adv-x="538" 
d="M269 -10q-92 0 -144.5 54.5t-52.5 151.5v311h80v-302q0 -138 117 -138t117 138v302h80v-311q0 -97 -52.5 -151.5t-144.5 -54.5z" />
    <glyph glyph-name="phi" unicode="&#x3c6;" horiz-adv-x="681" 
d="M380 517q118 -10 188.5 -77.5t70.5 -171.5v-29q0 -104 -70.5 -171.5t-188.5 -77.5v-170h-78v170q-119 10 -189.5 77.5t-70.5 171.5v29q0 104 70.5 171.5t189.5 77.5v155h78v-155zM559 241v25q0 75 -48 121.5t-133 54.5v-377q85 8 133 54.5t48 121.5zM123 241
q0 -74 47.5 -120.5t132.5 -55.5v377q-85 -9 -132.5 -55.5t-47.5 -120.5v-25z" />
    <glyph glyph-name="chi" unicode="&#x3c7;" horiz-adv-x="508" 
d="M494 -180h-91l-150 286l-149 -286h-91l195 354l-185 333h91l142 -266l138 266h91l-183 -334z" />
    <glyph glyph-name="psi" unicode="&#x3c8;" horiz-adv-x="689" 
d="M542 507h79v-264q0 -110 -62.5 -176.5t-174.5 -76.5v-170h-80v170q-112 11 -174 77t-62 176v264h79v-256q0 -165 158 -183v573h79v-573q158 18 158 183v256z" />
    <glyph glyph-name="omega" unicode="&#x3c9;" horiz-adv-x="711" 
d="M602 507q24 -44 38.5 -110.5t14.5 -131.5v-31q0 -117 -43.5 -181.5t-120.5 -64.5q-99 0 -136 102q-37 -102 -135 -102q-78 0 -121 64.5t-43 181.5v31q0 66 14.5 132t37.5 110h85q-56 -101 -56 -244v-27q0 -170 88 -170q91 0 91 177v144h79v-144q0 -177 90 -177
q89 0 89 170v27q0 143 -57 244h85z" />
    <glyph glyph-name="iotadieresis" unicode="&#x3ca;" horiz-adv-x="262" 
d="M22 611q-22 0 -38 15t-16 37t16 37.5t38 15.5t38 -15.5t16 -37.5t-16 -37t-38 -15zM211 611q-23 0 -38.5 15t-15.5 37t15.5 37.5t38.5 15.5q22 0 37.5 -15.5t15.5 -37.5t-15.5 -37t-37.5 -15zM183 -7q-109 0 -109 121v393h80v-374q0 -37 10.5 -50.5t37.5 -13.5q18 0 34 4
v-72q-26 -8 -53 -8z" />
    <glyph glyph-name="upsilondieresis" unicode="&#x3cb;" horiz-adv-x="538" 
d="M174 611q-22 0 -38 15t-16 37t16 37.5t38 15.5t38 -15.5t16 -37.5t-16 -37t-38 -15zM363 611q-23 0 -38.5 15t-15.5 37t15.5 37.5t38.5 15.5q22 0 37.5 -15.5t15.5 -37.5t-15.5 -37t-37.5 -15zM269 -10q-92 0 -144.5 54.5t-52.5 151.5v311h80v-302q0 -138 117 -138
t117 138v302h80v-311q0 -97 -52.5 -151.5t-144.5 -54.5z" />
    <glyph glyph-name="omicrontonos" unicode="&#x3cc;" horiz-adv-x="540" 
d="M235 598l52 152h81l-65 -152h-68zM270 -12q-107 0 -166.5 70.5t-59.5 178.5v33q0 108 59.5 178.5t166.5 70.5t167 -71t60 -178v-33q0 -107 -60 -178t-167 -71zM270 65q71 0 108.5 48.5t37.5 125.5v29q0 77 -37.5 125.5t-108.5 48.5t-108 -48.5t-37 -125.5v-29
q0 -77 37 -125.5t108 -48.5z" />
    <glyph glyph-name="upsilontonos" unicode="&#x3cd;" horiz-adv-x="538" 
d="M233 598l52 152h81l-65 -152h-68zM269 -10q-92 0 -144.5 54.5t-52.5 151.5v311h80v-302q0 -138 117 -138t117 138v302h80v-311q0 -97 -52.5 -151.5t-144.5 -54.5z" />
    <glyph glyph-name="omegatonos" unicode="&#x3ce;" horiz-adv-x="711" 
d="M453 750l-65 -152h-68l52 152h81zM602 507q24 -44 38.5 -110.5t14.5 -131.5v-31q0 -117 -43.5 -181.5t-120.5 -64.5q-99 0 -136 102q-37 -102 -135 -102q-78 0 -121 64.5t-43 181.5v31q0 66 14.5 132t37.5 110h85q-56 -101 -56 -244v-27q0 -170 88 -170q91 0 91 177v144
h79v-144q0 -177 90 -177q89 0 89 170v27q0 143 -57 244h85z" />
    <glyph glyph-name="uni0401" unicode="&#x401;" horiz-adv-x="592" 
d="M206 771q-22 0 -38 15t-16 37t16 37.5t38 15.5t38 -15.5t16 -37.5t-16 -37t-38 -15zM416 771q-22 0 -37.5 15t-15.5 37t15.5 37.5t37.5 15.5q23 0 38.5 -15.5t15.5 -37.5t-15.5 -37t-38.5 -15zM176 80h357v-80h-440v700h438v-80h-355v-217h323v-80h-323v-243z" />
    <glyph glyph-name="uni0402" unicode="&#x402;" horiz-adv-x="724" 
d="M451 431q107 0 169 -52t62 -156v-31q0 -98 -52 -150t-137 -52q-63 0 -104 17v80q40 -18 98 -18q52 0 82 32.5t30 96.5v18q0 71 -39 103t-117 32q-77 0 -140 -26v-326h-83v621h-190v80h494v-80h-221v-214q70 25 148 25z" />
    <glyph glyph-name="uni0403" unicode="&#x403;" horiz-adv-x="537" 
d="M263 761l87 132h91l-98 -132h-80zM93 0v700h414v-80h-331v-620h-83z" />
    <glyph glyph-name="uni0404" unicode="&#x404;" horiz-adv-x="597" 
d="M370 631q-110 0 -168 -63t-64 -168h311v-80h-312q2 -114 60 -182.5t173 -68.5q95 0 173 45v-84q-65 -41 -172 -41q-155 0 -235.5 94.5t-80.5 242.5v48q0 148 80.5 242.5t236.5 94.5q106 0 171 -41v-84q-78 45 -173 45z" />
    <glyph glyph-name="uni0405" unicode="&#x405;" 
d="M273 -12q-73 0 -135.5 18.5t-96.5 44.5v85q97 -69 232 -69q78 0 119.5 32t41.5 85q0 49 -31.5 76t-103.5 52l-49 17q-49 18 -78.5 31.5t-59.5 36t-43.5 53.5t-13.5 73q0 88 68 138t169 50q115 0 182 -41v-84q-76 46 -182 46q-72 0 -113 -27.5t-41 -78.5q0 -45 33 -70
t110 -52l47 -17q44 -16 73 -30t58 -37.5t43.5 -56.5t14.5 -77q0 -96 -69 -147t-175 -51z" />
    <glyph glyph-name="uni0406" unicode="&#x406;" horiz-adv-x="377" 
d="M319 631h-89v-562h89v-69h-260v69h88v562h-88v69h260v-69z" />
    <glyph glyph-name="uni0407" unicode="&#x407;" horiz-adv-x="377" 
d="M137 823q0 -22 -16 -37t-38 -15t-38 15t-16 37t16 37.5t38 15.5t38 -15.5t16 -37.5zM293 876q23 0 38.5 -15.5t15.5 -37.5t-15.5 -37t-38.5 -15q-22 0 -37.5 15t-15.5 37t15.5 37.5t37.5 15.5zM319 700v-69h-89v-562h89v-69h-260v69h88v562h-88v69h260z" />
    <glyph glyph-name="uni0408" unicode="&#x408;" horiz-adv-x="448" 
d="M361 700v-502q0 -98 -50.5 -152t-153.5 -54q-79 0 -137 25v86q59 -31 136 -31q68 0 95.5 35t27.5 103v490h82z" />
    <glyph glyph-name="uni0409" unicode="&#x409;" horiz-adv-x="996" 
d="M729 427q99 0 162 -58.5t63 -155.5t-62.5 -155t-162.5 -58h-250v620h-235l-4 -106q-4 -85 -7 -136t-8 -110t-11 -91.5t-15.5 -68.5t-21.5 -53.5t-29.5 -33t-39.5 -21t-51 -5.5q-23 0 -38 4v79q13 -3 26 -3q39 0 59 29.5t33 123t21 288.5l8 184h395v-273h168zM727 80
q70 0 107 37.5t37 95.5q0 59 -37 96.5t-107 37.5h-166v-267h166z" />
    <glyph glyph-name="uni040A" unicode="&#x40a;" horiz-adv-x="1016" 
d="M752 409q101 0 161.5 -53t60.5 -151q0 -95 -61 -150t-161 -55h-250v329h-326v-329h-83v700h83v-291h326v291h83v-291h167zM750 80q70 0 105.5 34.5t35.5 90.5q0 124 -141 124h-165v-249h165z" />
    <glyph glyph-name="uni040B" unicode="&#x40b;" horiz-adv-x="748" 
d="M455 430q226 0 226 -212v-218h-82v208q0 75 -34.5 108.5t-116.5 33.5q-78 0 -145 -25v-326h-83v621h-190v80h494v-80h-221v-215q71 25 152 25z" />
    <glyph glyph-name="uni040C" unicode="&#x40c;" horiz-adv-x="623" 
d="M454 897l-98 -132h-80l87 132h91zM627 0h-112l-339 342v-342h-83v700h83v-322l318 322h109l-336 -337z" />
    <glyph glyph-name="uni040E" unicode="&#x40e;" horiz-adv-x="595" 
d="M298 757q-70 0 -108.5 35.5t-43.5 90.5h70q9 -73 82 -73q40 0 59 21.5t22 51.5h70q-5 -55 -43.5 -90.5t-107.5 -35.5zM490 700h87l-217 -522q-43 -102 -84.5 -145.5t-112.5 -43.5q-37 0 -58 8v77q18 -6 48 -6q70 0 112 81l-247 551h88l201 -452z" />
    <glyph glyph-name="uni040F" unicode="&#x40f;" horiz-adv-x="668" 
d="M575 700v-700h-200v-140h-82v140h-200v700h83v-620h316v620h83z" />
    <glyph glyph-name="uni0410" unicode="&#x410;" horiz-adv-x="644" 
d="M541 0l-73 206h-294l-73 -206h-86l251 700h112l251 -700h-88zM202 286h238l-119 339z" />
    <glyph glyph-name="uni0411" unicode="&#x411;" horiz-adv-x="625" 
d="M343 427q100 0 163 -58.5t63 -155.5t-63 -155t-163 -58h-250v700h429v-80h-346v-193h167zM341 80q70 0 107.5 37.5t37.5 95.5t-37.5 96t-107.5 38h-165v-267h165z" />
    <glyph glyph-name="uni0412" unicode="&#x412;" horiz-adv-x="640" 
d="M478 367q51 -22 80.5 -65.5t29.5 -102.5q0 -90 -60 -144.5t-154 -54.5h-281v700h272q90 0 146 -50.5t56 -135.5q0 -102 -89 -147zM363 620h-187v-218h187q59 0 90.5 30.5t31.5 78.5t-31.5 78.5t-90.5 30.5zM372 80q64 0 98.5 34t34.5 87t-34.5 87t-98.5 34h-196v-242h196
z" />
    <glyph glyph-name="uni0413" unicode="&#x413;" horiz-adv-x="537" 
d="M93 0v700h414v-80h-331v-620h-83z" />
    <glyph glyph-name="uni0414" unicode="&#x414;" horiz-adv-x="690" 
d="M581 80h83v-220h-80v140h-478v-140h-80v220h50q74 55 90 451l7 169h408v-620zM172 80h326v540h-249l-4 -91q-15 -350 -73 -449z" />
    <glyph glyph-name="uni0415" unicode="&#x415;" horiz-adv-x="592" 
d="M176 80h357v-80h-440v700h438v-80h-355v-217h323v-80h-323v-243z" />
    <glyph glyph-name="uni0416" unicode="&#x416;" horiz-adv-x="885" 
d="M890 0h-107l-299 345v-345h-83v345l-298 -345h-108l316 364l-299 336h107l282 -323v323h83v-323l282 323h108l-300 -336z" />
    <glyph glyph-name="uni0417" unicode="&#x417;" horiz-adv-x="580" 
d="M400 365q119 -43 119 -166q0 -102 -69.5 -156t-175.5 -54q-73 0 -132 16t-92 41v86q90 -63 224 -63q78 0 120 36t42 95q0 52 -40.5 86t-120.5 34h-97v78h93q75 0 111.5 33t36.5 85q0 54 -41.5 84.5t-113.5 30.5q-109 0 -186 -47v84q69 42 189 42q103 0 169.5 -48.5
t66.5 -139.5q0 -112 -103 -157z" />
    <glyph glyph-name="uni0418" unicode="&#x418;" horiz-adv-x="700" 
d="M511 700h96v-700h-83v587l-335 -587h-96v700h83v-589z" />
    <glyph glyph-name="uni0419" unicode="&#x419;" horiz-adv-x="700" 
d="M350 757q-70 0 -108.5 35.5t-43.5 90.5h70q9 -73 82 -73q40 0 59 21.5t22 51.5h70q-5 -55 -43.5 -90.5t-107.5 -35.5zM511 700h96v-700h-83v587l-335 -587h-96v700h83v-589z" />
    <glyph glyph-name="uni041A" unicode="&#x41a;" horiz-adv-x="623" 
d="M627 0h-112l-339 342v-342h-83v700h83v-322l318 322h109l-336 -337z" />
    <glyph glyph-name="uni041B" unicode="&#x41b;" horiz-adv-x="655" 
d="M168 700h393v-700h-82v620h-235l-5 -108q-3 -68 -5.5 -110.5t-6 -93.5t-7 -81.5t-9.5 -66t-12.5 -55t-16.5 -41t-21.5 -32.5t-27 -20.5t-33.5 -13t-41 -3.5q-25 0 -40 4v79q13 -3 26 -3q41 0 61.5 29.5t33.5 122.5t21 288z" />
    <glyph glyph-name="uni041C" unicode="&#x41c;" horiz-adv-x="811" 
d="M607 700h111v-700h-82v598l-204 -447h-56l-203 444v-595h-80v700h112l201 -447z" />
    <glyph glyph-name="uni041D" unicode="&#x41d;" horiz-adv-x="678" 
d="M502 700h83v-700h-83v323h-326v-323h-83v700h83v-297h326v297z" />
    <glyph glyph-name="uni041E" unicode="&#x41e;" horiz-adv-x="702" 
d="M351 711q143 0 219 -95t76 -248v-36q0 -153 -76 -248t-219 -95q-144 0 -220 94.5t-76 248.5v36q0 154 76 248.5t220 94.5zM563 367q0 119 -53 191.5t-159 72.5q-107 0 -159.5 -72.5t-52.5 -191.5v-34q0 -119 52.5 -191.5t159.5 -72.5q106 0 159 72.5t53 191.5v34z" />
    <glyph glyph-name="uni041F" unicode="&#x41f;" horiz-adv-x="668" 
d="M93 0v700h482v-700h-83v620h-316v-620h-83z" />
    <glyph glyph-name="uni0420" unicode="&#x420;" horiz-adv-x="605" 
d="M347 700q100 0 162.5 -58t62.5 -154q0 -97 -62.5 -155t-162.5 -58h-171v-275h-83v700h254zM345 355q69 0 106.5 37.5t37.5 95.5t-37.5 95t-106.5 37h-169v-265h169z" />
    <glyph glyph-name="uni0421" unicode="&#x421;" horiz-adv-x="597" 
d="M139 328q0 -117 57.5 -188t173.5 -71q95 0 173 45v-84q-65 -41 -172 -41q-155 0 -235.5 94.5t-80.5 242.5v48q0 148 80.5 242.5t236.5 94.5q106 0 171 -41v-84q-78 45 -173 45q-116 0 -173.5 -71t-57.5 -188v-44z" />
    <glyph glyph-name="uni0422" unicode="&#x422;" horiz-adv-x="584" 
d="M333 -1h-83v621h-220v80h524v-80h-221v-621z" />
    <glyph glyph-name="uni0423" unicode="&#x423;" horiz-adv-x="595" 
d="M490 700h87l-217 -522q-43 -102 -84.5 -145.5t-112.5 -43.5q-37 0 -58 8v77q18 -6 48 -6q70 0 112 81l-247 551h88l201 -452z" />
    <glyph glyph-name="uni0424" unicode="&#x424;" horiz-adv-x="773" 
d="M427 644q134 -11 212 -90t78 -196v-17q0 -117 -78 -195.5t-212 -89.5v-71h-82v71q-134 11 -212 89.5t-78 195.5v17q0 117 78 196t212 90v71h82v-71zM139 342q0 -85 54.5 -143.5t153.5 -68.5v440q-99 -10 -153.5 -69t-54.5 -144v-15zM633 342v15q0 85 -54.5 143.5
t-152.5 69.5v-440q98 11 152.5 69t54.5 143z" />
    <glyph glyph-name="uni0425" unicode="&#x425;" horiz-adv-x="643" 
d="M613 0h-96l-196 297l-196 -297h-94l236 358l-226 342h95l186 -282l185 282h96l-227 -342z" />
    <glyph glyph-name="uni0426" unicode="&#x426;" horiz-adv-x="679" 
d="M569 80h82v-220h-80v140h-478v700h83v-620h310v620h83v-620z" />
    <glyph glyph-name="uni0427" unicode="&#x427;" horiz-adv-x="631" 
d="M455 700h83v-700h-83v308q-69 -27 -157 -27q-232 0 -232 211v208h83v-198q0 -74 36.5 -107.5t119.5 -33.5q81 0 150 27v312z" />
    <glyph glyph-name="uni0428" unicode="&#x428;" horiz-adv-x="933" 
d="M757 700h83v-700h-747v700h83v-620h249v620h83v-620h249v620z" />
    <glyph glyph-name="uni0429" unicode="&#x429;" horiz-adv-x="949" 
d="M840 80h81v-220h-80v140h-748v700h83v-620h249v620h83v-620h249v620h83v-620z" />
    <glyph glyph-name="uni042A" unicode="&#x42a;" horiz-adv-x="699" 
d="M432 427q99 0 162 -58.5t63 -155.5t-62.5 -155t-162.5 -58h-250v620h-152v80h235v-273h167zM430 80q70 0 107.5 37.5t37.5 95.5t-37.5 96t-107.5 38h-165v-267h165z" />
    <glyph glyph-name="uni042B" unicode="&#x42b;" horiz-adv-x="804" 
d="M320 427q100 0 163 -58.5t63 -155.5t-63 -155t-163 -58h-227v700h83v-273h144zM628 700h83v-700h-83v700zM318 80q70 0 107.5 37.5t37.5 95.5t-37.5 96t-107.5 38h-142v-267h142z" />
    <glyph glyph-name="uni042C" unicode="&#x42c;" horiz-adv-x="611" 
d="M343 427q100 0 163 -58.5t63 -155.5t-63 -155t-163 -58h-250v700h83v-273h167zM341 80q70 0 107.5 37.5t37.5 95.5t-37.5 96t-107.5 38h-165v-267h165z" />
    <glyph glyph-name="uni042D" unicode="&#x42d;" horiz-adv-x="597" 
d="M225 711q156 0 236.5 -94.5t80.5 -242.5v-48q0 -148 -80.5 -242.5t-235.5 -94.5q-108 0 -171 41v84q76 -45 173 -45q115 0 172.5 68.5t59.5 182.5h-312v80h311q-6 105 -64 168t-167 63q-97 0 -173 -45v84q63 41 170 41z" />
    <glyph glyph-name="uni042E" unicode="&#x42e;" horiz-adv-x="917" 
d="M576 711q139 0 212.5 -95t73.5 -248v-37q0 -153 -73.5 -248t-212.5 -95q-135 0 -208.5 91.5t-76.5 240.5h-115v-320h-83v700h83v-300h116q8 141 81 226t203 85zM778 367q0 119 -50 191.5t-152 72.5q-101 0 -151 -72.5t-50 -191.5v-35q0 -119 50 -191.5t151 -72.5
q102 0 152 72.5t50 191.5v35z" />
    <glyph glyph-name="uni042F" unicode="&#x42f;" horiz-adv-x="647" 
d="M554 700v-700h-83v290h-117l-237 -290h-101l241 292q-83 11 -133.5 65.5t-50.5 137.5q0 93 62 149t160 56h259zM297 370h174v250h-174q-68 0 -105 -35.5t-37 -89.5t37 -89.5t105 -35.5z" />
    <glyph glyph-name="uni0430" unicode="&#x430;" horiz-adv-x="551" 
d="M396 507h73v-507h-73v55q-52 -63 -143 -63q-99 0 -154 69.5t-55 175.5v33q0 106 55 175.5t154 69.5q91 0 143 -63v55zM262 70q82 0 127 67v233q-45 67 -127 67q-68 0 -102.5 -46.5t-34.5 -122.5v-29q0 -76 34.5 -122.5t102.5 -46.5z" />
    <glyph glyph-name="uni0431" unicode="&#x431;" horiz-adv-x="537" 
d="M283 493q99 0 155 -63t56 -164v-32q0 -107 -57.5 -175.5t-164.5 -68.5t-164 68t-57 177v32q0 137 11.5 217t49.5 132q60 78 206 93q105 10 137 21v-80q-24 -12 -121 -21q-63 -6 -99 -18.5t-59 -41.5q-31 -38 -39 -126q60 50 146 50zM413 237v24q0 71 -36 112.5t-104 41.5
q-88 0 -140 -58q-1 -29 -1 -96v-24q0 -78 34.5 -124t105.5 -46t106 46t35 124z" />
    <glyph glyph-name="uni0432" unicode="&#x432;" horiz-adv-x="526" 
d="M403 264q76 -37 76 -119q0 -67 -46 -106t-121 -39h-230v507h227q70 0 114 -36.5t44 -98.5q0 -73 -64 -108zM306 434h-147v-141h147q39 0 60 20t21 51t-21 50.5t-60 19.5zM311 73q42 0 65 21.5t23 55.5t-22.5 55.5t-65.5 21.5h-152v-154h152z" />
    <glyph glyph-name="uni0433" unicode="&#x433;" horiz-adv-x="429" 
d="M82 0v507h318v-72h-238v-435h-80z" />
    <glyph glyph-name="uni0434" unicode="&#x434;" horiz-adv-x="575" 
d="M477 72h73v-197h-77v125h-371v-125h-77v197h43q25 18 40 86t23 219l6 130h340v-435zM153 72h244v360h-187l-2 -55q-12 -234 -55 -305z" />
    <glyph glyph-name="uni0435" unicode="&#x435;" horiz-adv-x="506" 
d="M463 291v-53h-340q0 -79 42.5 -124.5t128.5 -45.5q81 0 141 39v-80q-53 -37 -143 -37q-118 0 -183 67t-65 180v33q0 110 58.5 179.5t158.5 69.5q99 0 150.5 -61t51.5 -167zM259 444q-57 0 -91.5 -37t-42.5 -101h258q-3 138 -124 138z" />
    <glyph glyph-name="uni0436" unicode="&#x436;" horiz-adv-x="689" 
d="M688 0h-102l-201 253v-253h-80v253l-201 -253h-103l220 269l-208 238h100l192 -227v227h80v-227l191 227h100l-208 -238z" />
    <glyph glyph-name="uni0437" unicode="&#x437;" horiz-adv-x="459" 
d="M333 263q79 -34 79 -116q0 -74 -53 -115.5t-138 -41.5q-118 0 -171 40v79q69 -44 169 -44q56 0 85.5 22.5t29.5 60.5q0 33 -28.5 54t-83.5 21h-76v73h75q52 0 77 20.5t25 53.5q0 35 -29 54t-82 19q-82 0 -144 -33v78q51 30 146 30q85 0 136 -37t51 -105q0 -78 -68 -113z
" />
    <glyph glyph-name="uni0438" unicode="&#x438;" horiz-adv-x="573" 
d="M401 507h90v-507h-80v404l-239 -404h-90v507h80v-406z" />
    <glyph glyph-name="uni0439" unicode="&#x439;" horiz-adv-x="573" 
d="M287 585q-70 0 -108.5 35.5t-43.5 90.5h70q9 -73 82 -73q40 0 59 21.5t22 51.5h70q-5 -55 -43.5 -90.5t-107.5 -35.5zM401 507h90v-507h-80v404l-239 -404h-90v507h80v-406z" />
    <glyph glyph-name="uni043A" unicode="&#x43a;" horiz-adv-x="491" 
d="M490 0h-104l-224 255v-255h-80v507h80v-223l210 223h101l-224 -234z" />
    <glyph glyph-name="uni043B" unicode="&#x43b;" horiz-adv-x="544" 
d="M133 507h330v-507h-80v432h-178l-3 -70q-9 -217 -36.5 -291.5t-111.5 -74.5q-20 0 -34 3v77q12 -2 20 -2q29 0 44 18t26.5 81.5t16.5 189.5z" />
    <glyph glyph-name="uni043C" unicode="&#x43c;" horiz-adv-x="660" 
d="M476 507h103v-507h-77v414l-149 -308h-49l-149 310v-416h-73v507h103l146 -303z" />
    <glyph glyph-name="uni043D" unicode="&#x43d;" horiz-adv-x="561" 
d="M399 507h80v-507h-80v231h-237v-231h-80v507h80v-205h237v205z" />
    <glyph glyph-name="uni043E" unicode="&#x43e;" horiz-adv-x="540" 
d="M270 -12q-107 0 -166.5 70.5t-59.5 178.5v33q0 108 59.5 178.5t166.5 70.5t167 -71t60 -178v-33q0 -107 -60 -178t-167 -71zM270 65q71 0 108.5 48.5t37.5 125.5v29q0 77 -37.5 125.5t-108.5 48.5t-108 -48.5t-37 -125.5v-29q0 -77 37 -125.5t108 -48.5z" />
    <glyph glyph-name="uni043F" unicode="&#x43f;" horiz-adv-x="551" 
d="M82 0v507h387v-507h-79v435h-228v-435h-80z" />
    <glyph glyph-name="uni0440" unicode="&#x440;" horiz-adv-x="552" 
d="M299 515q99 0 154 -69.5t55 -175.5v-33q0 -106 -55 -175.5t-154 -69.5q-83 0 -137 56v-228h-80v687h73v-56q53 64 144 64zM427 239v29q0 76 -34.5 122.5t-102.5 46.5q-83 0 -128 -68v-231q45 -68 128 -68q68 0 102.5 46.5t34.5 122.5z" />
    <glyph glyph-name="uni0441" unicode="&#x441;" horiz-adv-x="445" 
d="M276 -10q-110 0 -171 70t-61 177v33q0 107 61 177t171 70q78 0 125 -29v-79q-56 30 -122 30q-77 0 -115.5 -47t-38.5 -124v-29q0 -77 38.5 -124t115.5 -47q66 0 122 30v-79q-47 -29 -125 -29z" />
    <glyph glyph-name="uni0442" unicode="&#x442;" horiz-adv-x="445" 
d="M182 0v435h-153v72h387v-72h-154v-435h-80z" />
    <glyph glyph-name="uni0443" unicode="&#x443;" horiz-adv-x="497" 
d="M388 507h85l-182 -509q-36 -100 -77.5 -144.5t-113.5 -44.5q-30 0 -56 8v76q18 -6 46 -6q42 0 71 25.5t49 83.5l-187 511h86l141 -396z" />
    <glyph glyph-name="uni0444" unicode="&#x444;" horiz-adv-x="636" 
d="M356 517q112 -8 174 -77t62 -170v-33q0 -101 -62 -170t-174 -77v-180h-76v180q-112 8 -174 77t-62 170v33q0 101 62 170t174 77v213h76v-213zM125 239q0 -71 39.5 -118t116.5 -54v373q-77 -7 -116.5 -54t-39.5 -118v-29zM511 239v29q0 71 -39.5 118t-116.5 54v-373
q77 7 116.5 54t39.5 118z" />
    <glyph glyph-name="uni0445" unicode="&#x445;" horiz-adv-x="521" 
d="M491 0h-94l-136 205l-137 -205h-94l177 260l-168 247h94l128 -192l127 192h94l-168 -247z" />
    <glyph glyph-name="uni0446" unicode="&#x446;" horiz-adv-x="563" 
d="M469 72h72v-197h-78v125h-381v507h80v-435h227v435h80v-435z" />
    <glyph glyph-name="uni0447" unicode="&#x447;" horiz-adv-x="527" 
d="M367 507h79v-507h-79v204q-50 -25 -126 -25q-187 0 -187 166v162h78v-153q0 -51 26 -75.5t89 -24.5q68 0 120 26v227z" />
    <glyph glyph-name="uni0448" unicode="&#x448;" horiz-adv-x="761" 
d="M599 507h80v-507h-597v507h80v-435h178v435h80v-435h179v435z" />
    <glyph glyph-name="uni0449" unicode="&#x449;" horiz-adv-x="773" 
d="M679 72h72v-197h-78v125h-591v507h80v-435h178v435h80v-435h179v435h80v-435z" />
    <glyph glyph-name="uni044A" unicode="&#x44a;" horiz-adv-x="573" 
d="M368 331q78 0 127.5 -45.5t49.5 -120.5q0 -74 -49.5 -119.5t-127.5 -45.5h-203v435h-136v72h216v-176h123zM366 74q49 0 75 25.5t26 65.5t-26 66t-75 26h-121v-183h121z" />
    <glyph glyph-name="uni044B" unicode="&#x44b;" horiz-adv-x="668" 
d="M265 331q78 0 127.5 -45.5t49.5 -120.5q0 -74 -50 -119.5t-127 -45.5h-183v507h80v-176h103zM506 507h80v-507h-80v507zM263 75q49 0 75 25t26 65t-26 65.5t-75 25.5h-101v-181h101z" />
    <glyph glyph-name="uni044C" unicode="&#x44c;" horiz-adv-x="490" 
d="M285 331q78 0 127.5 -45.5t49.5 -120.5q0 -74 -50 -119.5t-127 -45.5h-203v507h80v-176h123zM283 74q49 0 75 25.5t26 65.5t-26 66t-75 26h-121v-183h121z" />
    <glyph glyph-name="uni044D" unicode="&#x44d;" horiz-adv-x="445" 
d="M169 517q110 0 171.5 -70t61.5 -177v-33q0 -107 -61.5 -177t-171.5 -70q-78 0 -125 29v79q56 -30 122 -30q73 0 112 42t43 113h-212v70h211q-6 67 -44.5 106.5t-109.5 39.5q-66 0 -122 -30v79q47 29 125 29z" />
    <glyph glyph-name="uni044E" unicode="&#x44e;" horiz-adv-x="724" 
d="M464 519q103 0 160 -70.5t57 -178.5v-33q0 -108 -57 -178.5t-160 -70.5q-98 0 -155 66t-61 169h-86v-223h-80v507h80v-212h87q6 98 62.5 161t152.5 63zM601 239v29q0 77 -35 125.5t-102 48.5q-66 0 -101 -48.5t-35 -125.5v-29q0 -77 35 -125.5t101 -48.5q67 0 102 48.5
t35 125.5z" />
    <glyph glyph-name="uni044F" unicode="&#x44f;" horiz-adv-x="521" 
d="M439 507v-507h-78v193h-94l-145 -193h-92l150 197q-59 12 -93.5 52.5t-34.5 100.5q0 71 48 114t125 43h214zM231 268h130v164h-130q-47 0 -73 -23t-26 -59t25.5 -59t73.5 -23z" />
    <glyph glyph-name="uni0451" unicode="&#x451;" horiz-adv-x="506" 
d="M171 611q-22 0 -38 15t-16 37t16 37.5t38 15.5t38 -15.5t16 -37.5t-16 -37t-38 -15zM360 611q-23 0 -38.5 15t-15.5 37t15.5 37.5t38.5 15.5q22 0 37.5 -15.5t15.5 -37.5t-15.5 -37t-37.5 -15zM463 291v-53h-340q0 -79 42.5 -124.5t128.5 -45.5q81 0 141 39v-80
q-53 -37 -143 -37q-118 0 -183 67t-65 180v33q0 110 58.5 179.5t158.5 69.5q99 0 150.5 -61t51.5 -167zM259 444q-57 0 -91.5 -37t-42.5 -101h258q-3 138 -124 138z" />
    <glyph glyph-name="uni0452" unicode="&#x452;" horiz-adv-x="551" 
d="M312 517q80 0 124 -45t44 -124v-381q0 -80 -38 -119.5t-106 -39.5q-42 0 -67 11v73q22 -8 53 -8q41 0 59.5 23t18.5 71v351q0 110 -102 110q-82 0 -136 -63v-376h-80v579h-64v64h64v87h80v-87h124v-64h-124v-121q61 59 150 59z" />
    <glyph glyph-name="uni0453" unicode="&#x453;" horiz-adv-x="429" 
d="M197 598l87 132h91l-98 -132h-80zM82 0v507h318v-72h-238v-435h-80z" />
    <glyph glyph-name="uni0454" unicode="&#x454;" horiz-adv-x="445" 
d="M279 439q-71 0 -109 -39.5t-44 -106.5h211v-70h-212q4 -71 42.5 -113t111.5 -42q66 0 122 30v-79q-47 -29 -125 -29q-110 0 -171 70t-61 177v33q0 107 61 177t171 70q78 0 125 -29v-79q-56 30 -122 30z" />
    <glyph glyph-name="uni0455" unicode="&#x455;" horiz-adv-x="431" 
d="M212 -11q-109 0 -168 46v79q78 -50 170 -50q51 0 76 20t25 53q0 30 -18.5 46t-64.5 33l-38 13q-72 26 -107 56t-35 88q0 67 49.5 105.5t129.5 38.5q84 0 133 -29v-79q-62 34 -134 34q-47 0 -73 -18t-26 -49q0 -27 19.5 -41.5t69.5 -33.5l36 -12q70 -26 104.5 -57
t34.5 -91q0 -72 -50 -112t-133 -40z" />
    <glyph glyph-name="uni0456" unicode="&#x456;" horiz-adv-x="243" 
d="M122 609q-23 0 -39.5 16t-16.5 38t16.5 38t39.5 16t39 -16t16 -38t-16 -38t-39 -16zM82 0v507h80v-507h-80z" />
    <glyph glyph-name="uni0457" unicode="&#x457;" horiz-adv-x="243" 
d="M27 611q-22 0 -38 15t-16 37t16 37.5t38 15.5t38 -15.5t16 -37.5t-16 -37t-38 -15zM216 611q-23 0 -38.5 15t-15.5 37t15.5 37.5t38.5 15.5q22 0 37.5 -15.5t15.5 -37.5t-15.5 -37t-37.5 -15zM82 0v507h80v-507h-80z" />
    <glyph glyph-name="uni0458" unicode="&#x458;" horiz-adv-x="243" 
d="M122 609q-23 0 -39.5 16t-16.5 38t16.5 38t39.5 16t39 -16t16 -38t-16 -38t-39 -16zM82 507h80v-540q0 -80 -38 -119.5t-105 -39.5q-43 0 -67 11v73q21 -8 52 -8q41 0 59.5 23t18.5 71v529z" />
    <glyph glyph-name="uni0459" unicode="&#x459;" horiz-adv-x="791" 
d="M586 331q78 0 127.5 -45.5t49.5 -120.5q0 -74 -50 -119.5t-127 -45.5h-203v432h-178l-3 -70q-9 -217 -36.5 -291t-111.5 -74q-20 0 -34 3v77q12 -2 20 -2q29 0 44 18t26 81t16 189l6 144h331v-176h123zM584 74q49 0 75 25.5t26 65.5t-26 66t-75 26h-121v-183h121z" />
    <glyph glyph-name="uni045A" unicode="&#x45a;" horiz-adv-x="807" 
d="M604 314q77 0 126 -41.5t49 -115.5q0 -73 -49 -115t-126 -42h-205v242h-237v-242h-80v507h80v-193h237v193h80v-193h125zM603 73q48 0 73 22t25 61q0 40 -25 62.5t-73 22.5h-124v-168h124z" />
    <glyph glyph-name="uni045B" unicode="&#x45b;" horiz-adv-x="551" 
d="M312 517q80 0 124 -45t44 -124v-348h-80v329q0 110 -102 110q-82 0 -136 -63v-376h-80v581h-64v62h64v87h80v-87h124v-62h-124v-123q61 59 150 59z" />
    <glyph glyph-name="uni045C" unicode="&#x45c;" horiz-adv-x="491" 
d="M386 730l-98 -132h-80l87 132h91zM490 0h-104l-224 255v-255h-80v507h80v-223l210 223h101l-224 -234z" />
    <glyph glyph-name="uni045E" unicode="&#x45e;" horiz-adv-x="497" 
d="M248 585q-70 0 -108.5 35.5t-43.5 90.5h70q9 -73 82 -73q40 0 59 21.5t22 51.5h70q-5 -55 -43.5 -90.5t-107.5 -35.5zM388 507h85l-182 -509q-36 -100 -77.5 -144.5t-113.5 -44.5q-30 0 -56 8v76q18 -6 46 -6q42 0 71 25.5t49 83.5l-187 511h86l141 -396z" />
    <glyph glyph-name="uni045F" unicode="&#x45f;" horiz-adv-x="551" 
d="M469 507v-507h-155v-125h-77v125h-155v507h80v-435h228v435h79z" />
    <glyph glyph-name="uni0462" unicode="&#x462;" horiz-adv-x="693" 
d="M425 420q100 0 163 -57t63 -153t-63 -153t-163 -57h-250v530h-147v68h147v102h83v-102h180v-68h-180v-110h167zM423 80q70 0 107.5 36.5t37.5 93.5t-37.5 93.5t-107.5 36.5h-165v-260h165z" />
    <glyph glyph-name="uni0463" unicode="&#x463;" horiz-adv-x="538" 
d="M333 331q78 0 127.5 -45.5t49.5 -120.5q0 -74 -49.5 -119.5t-127.5 -45.5h-203v482h-110v63h110v155h80v-155h127v-63h-127v-151h123zM331 74q49 0 75 25.5t26 65.5t-26 66t-75 26h-121v-183h121z" />
    <glyph glyph-name="uni0472" unicode="&#x472;" horiz-adv-x="702" 
d="M351 711q143 0 219 -95t76 -248v-36q0 -153 -76 -248t-219 -95q-144 0 -220 94.5t-76 248.5v36q0 154 76 248.5t220 94.5zM351 631q-98 0 -150.5 -61.5t-60.5 -166.5h422q-8 104 -60.5 166t-150.5 62zM351 69q104 0 157 69.5t55 184.5h-424q2 -115 54.5 -184.5
t157.5 -69.5z" />
    <glyph glyph-name="uni0473" unicode="&#x473;" horiz-adv-x="540" 
d="M270 519q107 0 167 -71t60 -178v-33q0 -107 -60 -178t-167 -71t-166.5 70.5t-59.5 178.5v33q0 108 59.5 178.5t166.5 70.5zM270 442q-66 0 -102 -41t-42 -110h289q-6 68 -42.5 109.5t-102.5 41.5zM270 65q68 0 105 44t41 116h-291q4 -72 40.5 -116t104.5 -44z" />
    <glyph glyph-name="uni0474" unicode="&#x474;" horiz-adv-x="691" 
d="M271 0l-253 700h88l218 -609l180 503q22 62 52.5 90t76.5 28q23 0 43 -5v-77q-11 3 -29 3q-23 0 -39.5 -16.5t-31.5 -58.5l-202 -558h-103z" />
    <glyph glyph-name="uni0475" unicode="&#x475;" horiz-adv-x="524" 
d="M198 0l-175 507h84l145 -431l115 342q17 53 42 76t64 23q24 0 37 -4v-72q-7 2 -21 2q-17 0 -29 -12t-22 -42l-134 -389h-106z" />
    <glyph glyph-name="uni0490" unicode="&#x490;" horiz-adv-x="549" 
d="M438 830h81v-210h-343v-620h-83v700h345v130z" />
    <glyph glyph-name="uni0491" unicode="&#x491;" horiz-adv-x="432" 
d="M326 627h77v-192h-241v-435h-80v507h244v120z" />
    <glyph glyph-name="uni04D8" unicode="&#x4d8;" horiz-adv-x="691" 
d="M296 709q160 0 245 -90t85 -245v-49q0 -148 -79.5 -241t-213.5 -93t-203 82t-69 224v63h480v11q0 118 -60 187t-187 69q-114 0 -194 -55v87q68 50 196 50zM334 71q89 0 141.5 55t63.5 154h-394q8 -209 189 -209z" />
    <glyph glyph-name="uni04D9" unicode="&#x4d9;" horiz-adv-x="506" 
d="M214 517q118 0 183.5 -67t65.5 -180v-33q0 -110 -58.5 -179.5t-158.5 -69.5q-99 0 -151 61.5t-52 166.5v53h340q0 79 -42.5 124.5t-128.5 45.5q-81 0 -141 -39v80q53 37 143 37zM247 63q58 0 92 36.5t42 101.5h-258q5 -138 124 -138z" />
    <glyph glyph-name="Wgrave" unicode="&#x1e80;" horiz-adv-x="955" 
d="M529 761h-80l-98 132h91zM837 700h85l-177 -700h-113l-155 592l-155 -592h-113l-176 700h87l150 -622l162 622h92l162 -622z" />
    <glyph glyph-name="wgrave" unicode="&#x1e81;" horiz-adv-x="782" 
d="M442 598h-80l-98 132h91zM664 507h83l-131 -507h-106l-118 396l-118 -396h-107l-132 507h85l105 -426l127 426h81l127 -427z" />
    <glyph glyph-name="Wacute" unicode="&#x1e82;" horiz-adv-x="955" 
d="M604 893l-98 -132h-80l87 132h91zM837 700h85l-177 -700h-113l-155 592l-155 -592h-113l-176 700h87l150 -622l162 622h92l162 -622z" />
    <glyph glyph-name="wacute" unicode="&#x1e83;" horiz-adv-x="782" 
d="M517 730l-98 -132h-80l87 132h91zM664 507h83l-131 -507h-106l-118 396l-118 -396h-107l-132 507h85l105 -426l127 426h81l127 -427z" />
    <glyph glyph-name="Wdieresis" unicode="&#x1e84;" horiz-adv-x="955" 
d="M372 771q-22 0 -38 15t-16 37t16 37.5t38 15.5t38 -15.5t16 -37.5t-16 -37t-38 -15zM582 771q-22 0 -37.5 15t-15.5 37t15.5 37.5t37.5 15.5q23 0 38.5 -15.5t15.5 -37.5t-15.5 -37t-38.5 -15zM837 700h85l-177 -700h-113l-155 592l-155 -592h-113l-176 700h87l150 -622
l162 622h92l162 -622z" />
    <glyph glyph-name="wdieresis" unicode="&#x1e85;" horiz-adv-x="782" 
d="M296 611q-22 0 -38 15t-16 37t16 37.5t38 15.5t38 -15.5t16 -37.5t-16 -37t-38 -15zM485 611q-23 0 -38.5 15t-15.5 37t15.5 37.5t38.5 15.5q22 0 37.5 -15.5t15.5 -37.5t-15.5 -37t-37.5 -15zM664 507h83l-131 -507h-106l-118 396l-118 -396h-107l-132 507h85l105 -426
l127 426h81l127 -427z" />
    <glyph glyph-name="uni1E9E" unicode="&#x1e9e;" horiz-adv-x="695" 
d="M418 406q118 -35 176 -82t58 -133q0 -93 -64 -147.5t-164 -54.5q-94 0 -160 33v83q66 -38 159 -38q68 0 107.5 32.5t39.5 87.5q0 56 -46 89t-134 57l-69 19v56l177 212h-323v-620h-82v700h514v-72z" />
    <glyph glyph-name="Ygrave" unicode="&#x1ef2;" horiz-adv-x="583" 
d="M342 761h-80l-98 132h91zM570 700l-237 -386v-314h-83v314l-237 386h94l186 -304l185 304h92z" />
    <glyph glyph-name="ygrave" unicode="&#x1ef3;" horiz-adv-x="497" 
d="M299 598h-80l-98 132h91zM388 507h85l-182 -509q-36 -100 -77.5 -144.5t-113.5 -44.5q-30 0 -56 8v76q18 -6 46 -6q42 0 71 25.5t49 83.5l-187 511h86l141 -396z" />
    <glyph glyph-name="endash" unicode="&#x2013;" horiz-adv-x="689" 
d="M61 276v73h567v-73h-567z" />
    <glyph glyph-name="emdash" unicode="&#x2014;" horiz-adv-x="959" 
d="M61 276v73h837v-73h-837z" />
    <glyph glyph-name="quoteleft" unicode="&#x2018;" horiz-adv-x="200" 
d="M171 700l-61 -202h-81l66 202h76z" />
    <glyph glyph-name="quoteright" unicode="&#x2019;" horiz-adv-x="200" 
d="M29 498l61 202h81l-66 -202h-76z" />
    <glyph glyph-name="quotesinglbase" unicode="&#x201a;" horiz-adv-x="218" 
d="M25 -104l61 202h81l-66 -202h-76z" />
    <glyph glyph-name="quotedblleft" unicode="&#x201c;" horiz-adv-x="367" 
d="M171 700l-61 -202h-81l66 202h76zM338 700l-61 -202h-81l66 202h76z" />
    <glyph glyph-name="quotedblright" unicode="&#x201d;" horiz-adv-x="367" 
d="M29 498l61 202h81l-66 -202h-76zM196 498l61 202h81l-66 -202h-76z" />
    <glyph glyph-name="quotedblbase" unicode="&#x201e;" horiz-adv-x="367" 
d="M29 -104l61 202h81l-66 -202h-76zM196 -104l61 202h81l-66 -202h-76z" />
    <glyph glyph-name="dagger" unicode="&#x2020;" horiz-adv-x="692" 
d="M599 465v-80h-211v-515h-83v515h-212v80h212v235h83v-235h211z" />
    <glyph glyph-name="daggerdbl" unicode="&#x2021;" horiz-adv-x="692" 
d="M599 421h-211v-220h211v-80h-211v-251h-83v251h-212v80h212v220h-212v80h212v199h83v-199h211v-80z" />
    <glyph glyph-name="bullet" unicode="&#x2022;" horiz-adv-x="472" 
d="M236 224q-52 0 -89 37t-37 89t37 89t89 37t89 -37t37 -89t-37 -89t-89 -37z" />
    <glyph glyph-name="ellipsis" unicode="&#x2026;" horiz-adv-x="644" 
d="M109 -8q-24 0 -41 16.5t-17 40.5t17 40.5t41 16.5q25 0 41.5 -16.5t16.5 -40.5t-16.5 -40.5t-41.5 -16.5zM322 -8q-24 0 -41 16.5t-17 40.5t17 40.5t41 16.5q25 0 41.5 -16.5t16.5 -40.5t-16.5 -40.5t-41.5 -16.5zM535 -8q-24 0 -41 16.5t-17 40.5t17 40.5t41 16.5
q25 0 41.5 -16.5t16.5 -40.5t-16.5 -40.5t-41.5 -16.5z" />
    <glyph glyph-name="perthousand" unicode="&#x2030;" horiz-adv-x="1202" 
d="M217 401q-66 0 -110.5 43.5t-44.5 111.5q0 69 44.5 112.5t110.5 43.5t110 -43.5t44 -112.5q0 -68 -44.5 -111.5t-109.5 -43.5zM138 1l487 700h74l-486 -700h-75zM216 459q40 0 65 28t25 69q0 42 -25 70t-65 28t-64.5 -28t-24.5 -70q0 -41 24.5 -69t64.5 -28zM618 -10
q-66 0 -110.5 43.5t-44.5 111.5q0 69 44.5 112.5t110.5 43.5t110 -43.5t44 -112.5q0 -68 -44.5 -111.5t-109.5 -43.5zM986 -13q-66 0 -110.5 43.5t-44.5 111.5q0 69 44.5 112.5t110.5 43.5t110 -43.5t44 -112.5q0 -68 -44.5 -111.5t-109.5 -43.5zM617 48q40 0 65 28t25 69
q0 42 -25 70t-65 28t-64.5 -28t-24.5 -70q0 -41 24.5 -69t64.5 -28zM985 45q40 0 65 28t25 69q0 42 -25 70t-65 28t-64.5 -28t-24.5 -70q0 -41 24.5 -69t64.5 -28z" />
    <glyph glyph-name="guilsinglleft" unicode="&#x2039;" horiz-adv-x="349" 
d="M215 65l-159 193v9l159 192h78l-162 -197l162 -197h-78z" />
    <glyph glyph-name="guilsinglright" unicode="&#x203a;" horiz-adv-x="349" 
d="M56 65l162 197l-162 197h78l159 -192v-9l-159 -193h-78z" />
    <glyph glyph-name="fraction" unicode="&#x2044;" horiz-adv-x="237" 
d="M-162 0l487 700h74l-486 -700h-75z" />
    <glyph glyph-name="Euro" unicode="&#x20ac;" 
d="M385 636q-77 0 -123.5 -47t-62.5 -127h212v-58h-219q-1 -10 -1 -32v-44v-11h220v-58h-215q13 -90 60 -142.5t129 -52.5q79 0 145 45v-79q-56 -41 -147 -41q-115 0 -184 74.5t-84 195.5h-78v58h74v9v48q0 20 1 30h-75v58h81q20 113 87.5 181t178.5 68q90 0 146 -41v-79
q-66 45 -145 45z" />
    <glyph glyph-name="uni20BA" unicode="&#x20ba;" 
d="M460 256h70q-21 -134 -109 -195t-220 -61h-56v288l-97 -32v60l97 33v96l-97 -32v60l97 33v194h79v-168l166 56v-61l-166 -55v-97l166 56v-61l-166 -55v-247q104 4 159 48t77 140z" />
    <glyph glyph-name="uni20BD" unicode="&#x20bd;" 
d="M314 303h-103v-82h162v-58h-162v-163h-79v163h-95v58h95v82h-95v62h95v335h182q95 0 152.5 -54t57.5 -144q0 -92 -57 -145.5t-153 -53.5zM211 631v-266h97q68 0 102.5 36t34.5 97q0 60 -34.5 96.5t-102.5 36.5h-97z" />
    <glyph glyph-name="uni2116" unicode="&#x2116;" horiz-adv-x="983" 
d="M805 708q71 0 111.5 -43t40.5 -110v-22q0 -67 -40.5 -110.5t-111.5 -43.5t-112 43.5t-41 110.5v22q0 67 41 110t112 43zM501 126v574h80v-700h-93l-315 576v-576h-80v700h95zM887 534v19q0 41 -21.5 65.5t-60.5 24.5t-60.5 -24.5t-21.5 -65.5v-19q0 -40 21.5 -64.5
t60.5 -24.5t60.5 24.5t21.5 64.5z" />
    <glyph glyph-name="trademark" unicode="&#x2122;" horiz-adv-x="857" 
d="M10 636v64h321v-64h-127v-311h-67v311h-127zM719 700h87v-374h-66v291l-114 -215h-47l-113 215v-291h-63v374h86l115 -218z" />
    <glyph glyph-name="oneeighth" unicode="&#x215b;" horiz-adv-x="949" 
d="M59 283v53h108v292l-102 -28v60l135 44h31v-368h102v-53h-274zM686 700h74l-486 -700h-75zM859 223q64 -34 64 -104q0 -57 -40.5 -92t-114.5 -35t-114.5 35t-40.5 92q0 70 64 104q-48 33 -48 87q0 50 38 84t101 34q64 0 101.5 -33.5t37.5 -84.5q0 -56 -48 -87zM768 370
q-35 0 -54.5 -17t-19.5 -43t19.5 -43.5t54.5 -17.5t55 17.5t20 43.5t-19.5 43t-55.5 17zM768 50q44 0 67.5 19.5t23.5 51.5t-23 51t-68 19q-44 0 -67 -19.5t-23 -50.5q0 -32 23 -51.5t67 -19.5z" />
    <glyph glyph-name="threeeighths" unicode="&#x215c;" horiz-adv-x="923" 
d="M319 414q0 -61 -43 -100t-114 -39q-73 0 -122 29v67q52 -33 121 -33q45 0 69.5 21.5t24.5 53.5q0 30 -22 48.5t-63 18.5q-28 0 -46 -8l-28 41l125 130h-174v60h251v-58l-105 -107q56 -3 91 -35.5t35 -88.5zM660 700h74l-486 -700h-75zM833 223q64 -34 64 -104
q0 -57 -40.5 -92t-114.5 -35t-114.5 35t-40.5 92q0 70 64 104q-48 33 -48 87q0 50 38 84t101 34q64 0 101.5 -33.5t37.5 -84.5q0 -56 -48 -87zM742 370q-35 0 -54.5 -17t-19.5 -43t19.5 -43.5t54.5 -17.5t55 17.5t20 43.5t-19.5 43t-55.5 17zM742 50q44 0 67.5 19.5
t23.5 51.5t-23 51t-68 19q-44 0 -67 -19.5t-23 -50.5q0 -32 23 -51.5t67 -19.5z" />
    <glyph glyph-name="fiveeighths" unicode="&#x215d;" horiz-adv-x="929" 
d="M323 417q0 -64 -43 -103t-115 -39t-121 29v67q51 -33 121 -33q46 0 70 21.5t24 54.5q0 31 -21.5 49.5t-63.5 18.5q-38 0 -66 -15l-52 18l27 218h222v-60h-168l-14 -109q27 10 58 10q63 0 102.5 -33.5t39.5 -93.5zM666 700h74l-486 -700h-75zM839 223q64 -34 64 -104
q0 -57 -40.5 -92t-114.5 -35t-114.5 35t-40.5 92q0 70 64 104q-48 33 -48 87q0 50 38 84t101 34q64 0 101.5 -33.5t37.5 -84.5q0 -56 -48 -87zM748 370q-35 0 -54.5 -17t-19.5 -43t19.5 -43.5t54.5 -17.5t55 17.5t20 43.5t-19.5 43t-55.5 17zM748 50q44 0 67.5 19.5
t23.5 51.5t-23 51t-68 19q-44 0 -67 -19.5t-23 -50.5q0 -32 23 -51.5t67 -19.5z" />
    <glyph glyph-name="seveneighths" unicode="&#x215e;" horiz-adv-x="869" 
d="M170 283h-73q8 83 51 182t102 178h-210v60h286v-59q-60 -75 -102 -170t-54 -191zM606 700h74l-486 -700h-75zM779 223q64 -34 64 -104q0 -57 -40.5 -92t-114.5 -35t-114.5 35t-40.5 92q0 70 64 104q-48 33 -48 87q0 50 38 84t101 34q64 0 101.5 -33.5t37.5 -84.5
q0 -56 -48 -87zM688 370q-35 0 -54.5 -17t-19.5 -43t19.5 -43.5t54.5 -17.5t55 17.5t20 43.5t-19.5 43t-55.5 17zM688 50q44 0 67.5 19.5t23.5 51.5t-23 51t-68 19q-44 0 -67 -19.5t-23 -50.5q0 -32 23 -51.5t67 -19.5z" />
    <glyph glyph-name="arrowleft" unicode="&#x2190;" horiz-adv-x="863" 
d="M816 390v-79h-629l280 -278h-102l-319 317l319 317h102l-279 -277h628z" />
    <glyph glyph-name="arrowup" unicode="&#x2191;" horiz-adv-x="727" 
d="M681 451v-102l-278 280v-629h-79v628l-277 -279v102l317 319z" />
    <glyph glyph-name="arrowright" unicode="&#x2192;" horiz-adv-x="863" 
d="M498 667l319 -317l-319 -317h-102l280 278h-629v79h628l-279 277h102z" />
    <glyph glyph-name="arrowdown" unicode="&#x2193;" horiz-adv-x="727" 
d="M403 71l278 280v-102l-317 -319l-317 319v102l277 -279v628h79v-629z" />
    <glyph glyph-name="uni2196" unicode="&#x2196;" horiz-adv-x="698" 
d="M651 171l-57 -57l-458 459v-385l-71 70v442h442l70 -70h-386z" />
    <glyph glyph-name="uni2197" unicode="&#x2197;" horiz-adv-x="698" 
d="M191 700h442v-442l-71 -70v385l-458 -459l-57 57l460 459h-386z" />
    <glyph glyph-name="uni2198" unicode="&#x2198;" horiz-adv-x="698" 
d="M562 512l71 -70v-442h-442l-70 70h386l-460 459l57 57l458 -459v385z" />
    <glyph glyph-name="uni2199" unicode="&#x2199;" horiz-adv-x="698" 
d="M651 529l-460 -459h386l-70 -70h-442v442l71 70v-385l458 459z" />
    <glyph glyph-name="partialdiff" unicode="&#x2202;" horiz-adv-x="530" 
d="M269 730q218 -169 218 -463v-32q0 -114 -59.5 -180t-161.5 -66q-103 0 -162.5 66t-59.5 179v31q0 103 59.5 165.5t156.5 62.5q70 0 120 -36q-55 149 -221 273h110zM406 237v24q0 54 -7 97q-45 59 -133 59q-67 0 -104 -41t-37 -115v-24q0 -82 36.5 -126.5t103.5 -44.5
t104 44.5t37 126.5z" />
    <glyph glyph-name="emptyset" unicode="&#x2205;" horiz-adv-x="679" 
d="M541 503q82 -82 82 -199q0 -118 -83 -201t-201 -83q-89 0 -162 51l-62 -73l-41 30l64 76q-83 83 -83 200q0 118 83 201t201 83q90 0 164 -52l61 73l41 -30zM122 304q0 -86 57 -151l283 335q-55 38 -123 38q-91 0 -154 -65t-63 -157zM339 82q91 0 154.5 65t63.5 157
q0 86 -57 150l-282 -334q54 -38 121 -38z" />
    <glyph glyph-name="product" unicode="&#x220f;" horiz-adv-x="717" 
d="M155 -130v750h-100v80h606v-80h-100v-750h-82v750h-241v-750h-83z" />
    <glyph glyph-name="summation" unicode="&#x2211;" horiz-adv-x="573" 
d="M48 -130v76l259 340l-259 338v76h476v-80h-371l237 -303v-62l-237 -305h371v-80h-476z" />
    <glyph glyph-name="minus" unicode="&#x2212;" 
d="M76 315v64h408v-64h-408z" />
    <glyph glyph-name="radical" unicode="&#x221a;" horiz-adv-x="619" 
d="M601 700v-80h-113l-194 -720h-125l-133 428h88l107 -356l190 728h180z" />
    <glyph glyph-name="infinity" unicode="&#x221e;" horiz-adv-x="774" 
d="M200 129q-64 0 -110 44.5t-46 110.5q0 69 46 113.5t117 44.5q52 0 95.5 -28.5t88.5 -80.5q33 36 53.5 54.5t57 36.5t76.5 18q68 0 110.5 -42.5t42.5 -110.5v-1q0 -71 -47.5 -115t-112.5 -44q-46 0 -87 25.5t-95 83.5q-46 -52 -90 -80.5t-99 -28.5zM207 188
q28 0 56.5 16.5t45 32.5t41.5 44q-27 35 -43 52t-45.5 34.5t-60.5 17.5q-41 0 -65.5 -29.5t-24.5 -72.5q0 -40 27 -67.5t69 -27.5zM574 188q41 0 65.5 29t24.5 67q0 47 -25.5 74t-65.5 27q-35 0 -65.5 -21t-78.5 -76q50 -56 80 -78t65 -22z" />
    <glyph glyph-name="integral" unicode="&#x222b;" 
d="M462 739q38 0 66 -11v-74q-21 8 -52 8q-37 0 -57.5 -23t-31.5 -72l-135 -604q-18 -79 -54 -117t-100 -38q-39 0 -66 11v74q21 -8 52 -8q38 0 58 22.5t31 71.5l135 605q18 79 54 117t100 38z" />
    <glyph glyph-name="approxequal" unicode="&#x2248;" 
d="M400 354q-40 0 -120 28t-120 28q-52 0 -90 -39v66q31 33 90 33q40 0 120 -28t120 -28q52 0 90 39v-66q-31 -33 -90 -33zM400 185q-40 0 -120 28t-120 28q-52 0 -90 -39v67q31 33 90 33q40 0 120 -28t120 -28q52 0 90 39v-67q-31 -33 -90 -33z" />
    <glyph glyph-name="notequal" unicode="&#x2260;" 
d="M484 399h-150l-52 -104h202v-64h-234l-47 -93h-55l47 93h-119v64h151l52 104h-203v64h235l46 93h55l-46 -93h118v-64z" />
    <glyph glyph-name="lessequal" unicode="&#x2264;" 
d="M484 509v-71l-319 -109l319 -110v-71l-408 150v61zM76 16v64h408v-64h-408z" />
    <glyph glyph-name="greaterequal" unicode="&#x2265;" 
d="M76 509l408 -150v-61l-408 -150v71l319 110l-319 109v71zM76 16v64h408v-64h-408z" />
    <glyph glyph-name="lozenge" unicode="&#x25ca;" 
d="M233 0l-202 350l202 350h94l202 -350l-202 -350h-94zM280 68l161 282l-161 282l-161 -282z" />
    <glyph glyph-name="i.loclTRK" horiz-adv-x="243" 
d="M122 609q-23 0 -39.5 16t-16.5 38t16.5 38t39.5 16t39 -16t16 -38t-16 -38t-39 -16zM82 0v507h80v-507h-80z" />
    <glyph glyph-name="zero.dnom" horiz-adv-x="361" 
d="M180 428q76 0 112 -55.5t36 -149.5v-26q0 -94 -36 -149.5t-112 -55.5t-111.5 55.5t-35.5 149.5v26q0 94 35.5 149.5t111.5 55.5zM96 224v-28q0 -22 1 -32l154 154q-21 51 -71 51q-84 0 -84 -145zM265 196v28q0 24 -1 36l-155 -155q20 -54 71 -54q85 0 85 145z" />
    <glyph glyph-name="one.dnom" horiz-adv-x="361" 
d="M231 53h102v-53h-274v53h108v292l-102 -28v60l135 44h31v-368z" />
    <glyph glyph-name="two.dnom" horiz-adv-x="361" 
d="M110 60h207v-60h-279v26q0 44 22 79t76 77l34 27q46 36 63.5 56t17.5 46q0 25 -20.5 39.5t-58.5 14.5q-65 0 -117 -41v66q46 38 122 38q66 0 102 -33t36 -82q0 -39 -22.5 -70.5t-80.5 -77.5l-31 -24q-62 -50 -71 -81z" />
    <glyph glyph-name="three.dnom" horiz-adv-x="361" 
d="M193 255q56 -3 91 -35.5t35 -88.5q0 -61 -43 -100t-114 -39q-73 0 -122 29v67q52 -33 121 -33q45 0 69.5 21.5t24.5 53.5q0 30 -22 48.5t-63 18.5q-28 0 -46 -8l-28 41l125 130h-174v60h251v-58z" />
    <glyph glyph-name="four.dnom" horiz-adv-x="361" 
d="M283 145h61v-60h-61v-85h-65v85h-196v57l164 278h97v-275zM90 145h128v217z" />
    <glyph glyph-name="five.dnom" horiz-adv-x="361" 
d="M181 261q63 0 102.5 -33.5t39.5 -93.5q0 -64 -43 -103t-115 -39t-121 29v67q51 -33 121 -33q46 0 70 21.5t24 54.5q0 31 -21.5 49.5t-63.5 18.5q-38 0 -66 -15l-52 18l27 218h222v-60h-168l-14 -109q27 10 58 10z" />
    <glyph glyph-name="six.dnom" horiz-adv-x="361" 
d="M193 275q67 0 102 -35.5t35 -99.5q0 -63 -37.5 -105.5t-106.5 -42.5q-71 0 -110.5 41.5t-39.5 109.5v18q0 78 47 147t104 112h95q-114 -83 -156 -161q32 16 67 16zM186 53q39 0 59.5 22.5t20.5 60.5q0 79 -82 79q-50 0 -82 -33q-2 -16 -2 -24v-12q0 -44 22 -68.5
t64 -24.5z" />
    <glyph glyph-name="seven.dnom" horiz-adv-x="361" 
d="M40 420h286v-59q-60 -75 -102 -170t-54 -191h-73q8 83 51 182t102 178h-210v60z" />
    <glyph glyph-name="eight.dnom" horiz-adv-x="361" 
d="M271 223q64 -34 64 -104q0 -57 -40.5 -92t-114.5 -35t-114.5 35t-40.5 92q0 70 64 104q-48 33 -48 87q0 50 38 84t101 34q64 0 101.5 -33.5t37.5 -84.5q0 -56 -48 -87zM180 370q-35 0 -54.5 -17t-19.5 -43t19.5 -43.5t54.5 -17.5t55 17.5t20 43.5t-19.5 43t-55.5 17z
M180 50q44 0 67.5 19.5t23.5 51.5t-23 51t-68 19q-44 0 -67 -19.5t-23 -50.5q0 -32 23 -51.5t67 -19.5z" />
    <glyph glyph-name="nine.dnom" horiz-adv-x="361" 
d="M177 428q69 0 108.5 -41.5t39.5 -109.5v-18q0 -78 -47 -147t-105 -112h-91q111 81 152 161q-30 -16 -69 -16q-61 0 -98 37t-37 99t37.5 104.5t109.5 42.5zM175 205q51 0 83 32q2 16 2 25v12q0 44 -21.5 68.5t-63.5 24.5q-39 0 -59.5 -22t-20.5 -61q0 -79 80 -79z" />
    <glyph glyph-name="zero.numr" horiz-adv-x="361" 
d="M180 711q76 0 112 -55.5t36 -149.5v-26q0 -94 -36 -149.5t-112 -55.5t-111.5 55.5t-35.5 149.5v26q0 94 35.5 149.5t111.5 55.5zM96 507v-28q0 -22 1 -32l154 154q-21 51 -71 51q-84 0 -84 -145zM265 479v28q0 24 -1 36l-155 -155q20 -54 71 -54q85 0 85 145z" />
    <glyph glyph-name="one.numr" horiz-adv-x="361" 
d="M231 336h102v-53h-274v53h108v292l-102 -28v60l135 44h31v-368z" />
    <glyph glyph-name="two.numr" horiz-adv-x="361" 
d="M110 343h207v-60h-279v26q0 44 22 79t76 77l34 27q46 36 63.5 56t17.5 46q0 25 -20.5 39.5t-58.5 14.5q-65 0 -117 -41v66q46 38 122 38q66 0 102 -33t36 -82q0 -39 -22.5 -70.5t-80.5 -77.5l-31 -24q-62 -50 -71 -81z" />
    <glyph glyph-name="three.numr" horiz-adv-x="361" 
d="M193 538q56 -3 91 -35.5t35 -88.5q0 -61 -43 -100t-114 -39q-73 0 -122 29v67q52 -33 121 -33q45 0 69.5 21.5t24.5 53.5q0 30 -22 48.5t-63 18.5q-28 0 -46 -8l-28 41l125 130h-174v60h251v-58z" />
    <glyph glyph-name="four.numr" horiz-adv-x="361" 
d="M283 428h61v-60h-61v-85h-65v85h-196v57l164 278h97v-275zM90 428h128v217z" />
    <glyph glyph-name="five.numr" horiz-adv-x="361" 
d="M181 544q63 0 102.5 -33.5t39.5 -93.5q0 -64 -43 -103t-115 -39t-121 29v67q51 -33 121 -33q46 0 70 21.5t24 54.5q0 31 -21.5 49.5t-63.5 18.5q-38 0 -66 -15l-52 18l27 218h222v-60h-168l-14 -109q27 10 58 10z" />
    <glyph glyph-name="six.numr" horiz-adv-x="361" 
d="M193 558q67 0 102 -35.5t35 -99.5q0 -63 -37.5 -105.5t-106.5 -42.5q-71 0 -110.5 41.5t-39.5 109.5v18q0 78 47 147t104 112h95q-114 -83 -156 -161q32 16 67 16zM186 336q39 0 59.5 22.5t20.5 60.5q0 79 -82 79q-50 0 -82 -33q-2 -16 -2 -24v-12q0 -44 22 -68.5
t64 -24.5z" />
    <glyph glyph-name="seven.numr" horiz-adv-x="361" 
d="M40 703h286v-59q-60 -75 -102 -170t-54 -191h-73q8 83 51 182t102 178h-210v60z" />
    <glyph glyph-name="eight.numr" horiz-adv-x="361" 
d="M271 506q64 -34 64 -104q0 -57 -40.5 -92t-114.5 -35t-114.5 35t-40.5 92q0 70 64 104q-48 33 -48 87q0 50 38 84t101 34q64 0 101.5 -33.5t37.5 -84.5q0 -56 -48 -87zM180 653q-35 0 -54.5 -17t-19.5 -43t19.5 -43.5t54.5 -17.5t55 17.5t20 43.5t-19.5 43t-55.5 17z
M180 333q44 0 67.5 19.5t23.5 51.5t-23 51t-68 19q-44 0 -67 -19.5t-23 -50.5q0 -32 23 -51.5t67 -19.5z" />
    <glyph glyph-name="nine.numr" horiz-adv-x="361" 
d="M177 711q69 0 108.5 -41.5t39.5 -109.5v-18q0 -78 -47 -147t-105 -112h-91q111 81 152 161q-30 -16 -69 -16q-61 0 -98 37t-37 99t37.5 104.5t109.5 42.5zM175 488q51 0 83 32q2 16 2 25v12q0 44 -21.5 68.5t-63.5 24.5q-39 0 -59.5 -22t-20.5 -61q0 -79 80 -79z" />
    <glyph glyph-name="caroncomb.alt" horiz-adv-x="0" 
d="M-176 554l45 176h79l-55 -176h-69z" />
    <glyph glyph-name="uni0328.alt" horiz-adv-x="0" 
d="M-97 -198q-46 0 -74 24.5t-28 67.5q0 84 109 158l38 -25q-78 -55 -78 -119q0 -22 13 -33t34 -11q19 0 31 4v-59q-14 -7 -45 -7z" />
    <glyph glyph-name="uni0308.case" horiz-adv-x="0" 
d="M-316 801q-22 0 -38 15t-16 37t16 37.5t38 15.5t38 -15.5t16 -37.5t-16 -37t-38 -15zM-106 801q-22 0 -37.5 15t-15.5 37t15.5 37.5t37.5 15.5q23 0 38.5 -15.5t15.5 -37.5t-15.5 -37t-38.5 -15z" />
    <glyph glyph-name="uni030A.case" horiz-adv-x="0" 
d="M-163 703q-47 0 -79.5 31.5t-32.5 76.5t32.5 76.5t79.5 31.5q48 0 80 -31.5t32 -76.5t-32 -76.5t-80 -31.5zM-163 750q27 0 44 17.5t17 43.5q0 25 -17 42.5t-44 17.5q-26 0 -43 -17.5t-17 -42.5q0 -26 16.5 -43.5t43.5 -17.5z" />
    <glyph glyph-name="uni0335.case" horiz-adv-x="0" 
d="M-375 322v74h324v-74h-324z" />
    <glyph glyph-name="uni0337.case" horiz-adv-x="0" 
d="M-354 294l302 157v-81l-302 -157v81z" />
    <glyph glyph-name="uni0338.case" horiz-adv-x="0" 
d="M-104 717l53 -38l-487 -695l-53 38z" />
    <glyph glyph-name="tonos.case" horiz-adv-x="224" 
d="M51 503l41 197h80l-55 -197h-66z" />
    <glyph glyph-name="brevecombcy" horiz-adv-x="0" 
d="M-203 594q-70 0 -108.5 35.5t-43.5 90.5h70q9 -73 82 -73q40 0 59 21.5t22 51.5h70q-5 -55 -43.5 -90.5t-107.5 -35.5z" />
    </font>
</defs>
</svg>
